<?xml version="1.0" encoding="UTF-8" standalone="no"?>
<svg
   xmlns:dc="http://purl.org/dc/elements/1.1/"
   xmlns:cc="http://creativecommons.org/ns#"
   xmlns:rdf="http://www.w3.org/1999/02/22-rdf-syntax-ns#"
   xmlns:svg="http://www.w3.org/2000/svg"
   xmlns="http://www.w3.org/2000/svg"
   xmlns:sodipodi="http://sodipodi.sourceforge.net/DTD/sodipodi-0.dtd"
   xmlns:inkscape="http://www.inkscape.org/namespaces/inkscape"
   version="1.1"
   viewBox="0 0 502.00001 97.367604"
   data-name="Layer 1"
   id="Layer_1"
   sodipodi:docname="accessnow.svg"
   width="502"
   height="97.367607"
   inkscape:version="0.92.1 r">
  <sodipodi:namedview
     pagecolor="#ffffff"
     bordercolor="#666666"
     borderopacity="1"
     objecttolerance="10"
     gridtolerance="10"
     guidetolerance="10"
     inkscape:pageopacity="0"
     inkscape:pageshadow="2"
     inkscape:window-width="1920"
     inkscape:window-height="1171"
     id="namedview9"
     showgrid="false"
     fit-margin-top="1"
     fit-margin-left="1"
     fit-margin-bottom="1"
     fit-margin-right="1"
     inkscape:zoom="1.1796216"
     inkscape:cx="11.158033"
     inkscape:cy="34.459999"
     inkscape:window-x="0"
     inkscape:window-y="29"
     inkscape:window-maximized="1"
     inkscape:current-layer="Layer_1" />
  <metadata
     id="metadata15">
    <rdf:RDF>
      <cc:Work
         rdf:about="">
        <dc:format>image/svg+xml</dc:format>
        <dc:type
           rdf:resource="http://purl.org/dc/dcmitype/StillImage" />
        <dc:title>Artboard 1</dc:title>
      </cc:Work>
    </rdf:RDF>
  </metadata>
  <defs
     id="defs4">
    <style
       id="style2">.cls-1{fill:#fff;}.cls-2{fill:#88bd56;}</style>
  </defs>
  <title
     id="title6">Artboard 1</title>
  <path
     style="fill:#1a1a1a;stroke-width:1.42456114"
     id="path8"
     d="m 134.97325,25.23927 c -7.64989,0 -12.05178,1.424561 -16.52491,6.325052 l 7.29376,7.122805 c 2.37901,-2.720911 4.40189,-3.775087 8.80379,-3.775087 6.06863,0 8.54736,2.20807 8.54736,7.222525 v 2.279298 h -10.82666 c -10.64147,0 -15.67018,5.983157 -15.67018,13.27691 a 14.67298,14.67298 0 0 0 3.77509,10.285332 c 2.73516,2.720912 6.51025,4.045754 11.69565,4.045754 5.1854,0 8.17698,-1.324842 11.25403,-4.401894 v 3.96028 h 11.16856 V 41.450776 c 0,-10.741191 -6.68119,-16.211506 -19.51649,-16.211506 z m 8.09151,29.488416 c 0,2.849122 -0.44161,4.658315 -1.68098,5.797964 -2.02288,1.923158 -4.04575,2.193824 -7.20828,2.193824 -4.48737,0 -6.59572,-2.10835 -6.59572,-5.270876 0,-3.162526 2.29354,-5.142666 6.42477,-5.142666 h 9.06021 z m 36.06989,17.408137 c -9.14568,0 -20.48519,-4.914736 -20.48519,-23.476768 0,-18.562031 11.35375,-23.419785 20.48519,-23.419785 a 19.530734,19.530734 0 0 1 15.12884,6.154104 l -7.73537,7.735367 c -2.36477,-2.549964 -4.40189,-3.604139 -7.37922,-3.604139 a 7.9348057,7.9348057 0 0 0 -6.51025,2.991578 c -1.76645,2.193824 -2.54996,5.270876 -2.54996,10.114384 0,4.843508 0.78351,8.006034 2.54996,10.185613 a 7.9063145,7.9063145 0 0 0 6.51025,2.991578 c 2.99157,0 5.01445,-1.054175 7.37922,-3.60414 l 7.73537,7.649894 a 19.601962,19.601962 0 0 1 -15.12884,6.268069 z m 36.02715,0 c -9.14568,0 -20.48519,-4.914736 -20.48519,-23.476768 0,-18.562031 11.33951,-23.419785 20.48519,-23.419785 a 19.530734,19.530734 0 0 1 15.17158,6.182595 l -7.73537,7.735368 c -2.36477,-2.549965 -4.40189,-3.60414 -7.37923,-3.60414 a 7.9348057,7.9348057 0 0 0 -6.51024,2.991578 c -1.76646,2.193824 -2.54996,5.270876 -2.54996,10.114384 0,4.843508 0.7835,8.006034 2.54996,10.185613 a 7.9063145,7.9063145 0 0 0 6.51024,2.991578 c 2.99158,0 5.01446,-1.054175 7.37923,-3.60414 l 7.73537,7.649894 a 19.601962,19.601962 0 0 1 -15.17158,6.239578 z m 55.14476,-24.958311 c 0,-12.593121 -7.20827,-21.938242 -20.02933,-21.938242 -11.86659,0 -19.94385,8.433402 -19.94385,23.377049 0,18.519295 10.3708,23.476768 21.19747,23.476768 8.26245,0 12.82105,-2.549965 17.40814,-7.20828 l -6.95186,-6.766665 a 12.650103,12.650103 0 0 1 -10.37081,4.273683 c -6.41052,0 -9.97193,-4.273683 -9.97193,-10.185612 h 28.67642 z m -28.67641,-2.735158 a 12.578875,12.578875 0 0 1 1.05417,-4.914736 8.547367,8.547367 0 0 1 15.29979,0 12.536138,12.536138 0 0 1 1.05418,4.914736 z m 50.55767,27.693469 c -7.20828,0 -13.71852,-0.797754 -19.51648,-6.595718 l 7.52168,-7.535928 c 3.77509,3.775087 8.70407,4.273683 12.22273,4.273683 3.96028,0 8.09151,-1.310596 8.09151,-4.743788 0,-2.279298 -1.23937,-3.874807 -4.82926,-4.273684 l -7.20828,-0.712281 c -8.26245,-0.797754 -13.36238,-4.387648 -13.36238,-12.82105 0,-9.487577 8.34792,-14.587506 17.66455,-14.587506 7.12281,0 13.10597,1.225122 17.49362,5.35635 l -7.03734,7.122806 c -2.63543,-2.364772 -6.68119,-3.077053 -10.64147,-3.077053 -4.57284,0 -6.51024,2.108351 -6.51024,4.401894 0,1.666737 0.69803,3.60414 4.74379,3.946035 l 7.20828,0.698035 c 9.0602,0.883228 13.63305,5.698244 13.63305,13.462103 -0.0285,10.242595 -8.67558,15.071857 -19.45951,15.071857 z m 40.35782,0 c -7.20828,0 -13.71852,-0.797754 -19.53073,-6.595718 l 7.47894,-7.535928 c 3.77509,3.775087 8.70407,4.273683 12.22274,4.273683 3.96028,0 8.09151,-1.310596 8.09151,-4.743788 0,-2.279298 -1.23937,-3.874807 -4.82927,-4.273684 l -7.20827,-0.712281 c -8.27671,-0.797754 -13.36239,-4.387648 -13.36239,-12.82105 0,-9.487577 8.34793,-14.587506 17.66456,-14.587506 7.12281,0 13.10596,1.225122 17.49361,5.35635 l -7.03733,7.122806 c -2.63544,-2.364772 -6.68119,-3.077053 -10.64147,-3.077053 -4.57284,0 -6.51025,2.108351 -6.51025,4.401894 0,1.666737 0.69804,3.60414 4.74379,3.946035 l 7.20828,0.698035 c 9.06021,0.883228 13.63305,5.698244 13.63305,13.462103 0.0143,10.242595 -8.60435,15.071857 -19.41677,15.071857 z m 55.0308,-0.641052 V 43.51639 c 0,-8.034525 -4.27368,-12.094525 -11.16856,-12.094525 -6.89488,0 -11.26828,4.159719 -11.26828,12.094525 v 27.964135 h -6.59572 v -45.41501 h 6.6527 v 4.985965 a 16.382453,16.382453 0 0 1 12.73558,-5.541543 15.912348,15.912348 0 0 1 11.63867,4.273683 c 3.16252,3.105543 4.58708,7.350736 4.58708,12.550384 v 29.146521 z m 43.29241,-40.813677 a 18.975155,18.975155 0 0 0 -26.04097,0 c -4.61558,4.715297 -5.54155,11.083085 -5.54155,18.091926 0,7.008841 0.92597,13.390875 5.54155,18.091927 a 18.975155,18.975155 0 0 0 26.04097,0 c 4.61558,-4.715297 5.54155,-11.083086 5.54155,-18.091927 0,-7.008841 -0.94021,-13.390875 -5.54155,-18.091926 z m -4.70105,32.123854 a 11.638665,11.638665 0 0 1 -8.30519,3.319227 11.396489,11.396489 0 0 1 -8.21972,-3.319227 c -3.31922,-3.319228 -3.68961,-8.96049 -3.68961,-14.031928 0,-5.071437 0.37039,-10.7127 3.68961,-14.031927 a 11.396489,11.396489 0 0 1 8.21972,-3.319228 11.638665,11.638665 0 0 1 8.30519,3.319228 c 3.31923,3.319227 3.60414,9.017472 3.60414,14.031927 0,5.014456 -0.28491,10.655718 -3.60414,14.031928 z m 60.45838,8.675577 h -6.1826 L 468.53425,36.208391 456.71039,71.480525 h -6.18259 l -14.40231,-45.41501 h 7.19403 l 10.42779,36.468766 11.90933,-36.468766 h 5.69824 l 12.00905,36.468766 10.34232,-36.468766 H 501 Z"
     class="cls-1"
     inkscape:connector-curvature="0" />
  <path
     id="path10"
     d="M 9.0420455,62.50579 Q 5.6373444,61.964457 2.3038712,61.237931 A 49.004904,49.004904 0 0 0 34.484708,96.367609 c 0,-0.170947 0,-0.341895 0,-0.512842 A 17.522102,17.522102 0 0 1 37.903655,85.45547 109.42054,109.42054 0 0 1 30.524428,75.982139 15.328278,15.328278 0 0 1 9.0420455,62.50579 Z M 71.437825,57.6053 A 172.03001,172.03001 0 0 0 93.433049,72.249788 48.677255,48.677255 0 0 0 98.832136,49.926915 49.218588,49.218588 0 0 0 97.849189,40.482074 118.06763,118.06763 0 0 1 87.87726,47.24874 107.98174,107.98174 0 0 1 82.179016,63.08986 l -1.723719,-1.153894 a 105.91612,105.91612 0 0 0 4.77228,-13.205683 116.92798,116.92798 0 0 1 -45.585958,14.587507 15.342524,15.342524 0 0 1 -7.322244,11.709893 107.22672,107.22672 0 0 0 6.88063,8.846525 17.536348,17.536348 0 0 1 20.812839,-3.732351 170.17808,170.17808 0 0 0 5.427578,-20.285751 l 2.236561,-0.783508 a 172.28643,172.28643 0 0 1 -5.869192,22.109189 17.707295,17.707295 0 0 1 4.487368,4.273683 106.84209,106.84209 0 0 0 11.610173,-17.920979 l 1.723719,1.125403 A 108.92195,108.92195 0 0 1 67.520281,87.293154 17.507857,17.507857 0 0 1 69.69986,94.715118 49.118869,49.118869 0 0 0 92.492839,74.073227 174.3378,174.3378 0 0 1 69.272492,58.403054 Z m 19.8014,-31.240627 a 108.06721,108.06721 0 0 1 -2.706666,18.063436 q 4.601332,-2.849123 8.903507,-6.139859 A 48.577536,48.577536 0 0 0 92.52133,25.908814 5.0714378,5.0714378 0 0 1 91.224979,26.364673 Z M 10.950957,33.088602 C 8.1018352,34.598637 5.2527128,36.222637 2.5175554,37.960601 A 48.919431,48.919431 0 0 0 1.833766,59.044106 q 3.5756486,0.812 7.2510164,1.424562 A 15.342524,15.342524 0 0 1 16.72043,48.616319 107.95325,107.95325 0 0 1 11.278606,19.925657 48.776974,48.776974 0 0 0 3.301064,35.01176 q 3.5471573,-2.122597 7.222525,-4.074245 c 0.128211,0.740771 0.242176,1.424561 0.427368,2.151087 z m 74.219637,-11.75263 a 5.0571922,5.0571922 0 0 1 0,-0.71228 q -4.743788,-0.712281 -9.601542,-1.03993 a 8.547367,8.547367 0 0 1 -4.686806,6.268069 174.12411,174.12411 0 0 1 -1.98014,26.169189 l -2.20807,0.854736 -0.698035,0.270667 -2.222316,0.797754 A 175.10706,175.10706 0 0 1 44.456636,34.413444 10.912139,10.912139 0 0 1 27.803516,25.866077 q -5.698245,1.965894 -11.182805,4.458876 c -0.113965,-0.698035 -0.22793,-1.424561 -0.327649,-2.094105 a 122.88265,122.88265 0 0 1 11.581682,-4.54435 10.897893,10.897893 0 0 1 3.60414,-6.709683 Q 28.458814,12.3185 25.780639,7.4749922 A 49.118869,49.118869 0 0 0 13.230255,17.575131 105.91612,105.91612 0 0 0 18.57236,47.676108 15.328278,15.328278 0 0 1 39.684356,61.252176 114.94784,114.94784 0 0 0 86.039577,45.938144 105.94461,105.94461 0 0 0 89.187857,26.364673 5.1141746,5.1141746 0 0 1 85.099366,21.350218 Z m -9.430595,-3.789333 q 5.156912,0.356141 10.199858,1.111158 A 5.0714378,5.0714378 0 0 1 86.723366,17.660604 49.033395,49.033395 0 0 0 69.671369,5.1956942 q 0.299158,2.478737 0.527087,4.9859638 a 8.547367,8.547367 0 0 1 5.484561,7.379227 z m -8.547367,9.174175 A 8.547367,8.547367 0 0 1 58.75923,19.598008 q -5.071438,0.341894 -9.971928,1.111157 a 10.897893,10.897893 0 0 1 -2.606947,12.464911 172.92748,172.92748 0 0 0 19.943856,19.943856 l 0.698035,-0.270667 a 172.03001,172.03001 0 0 0 2.151088,-26.32589 8.2482092,8.2482092 0 0 1 -1.823439,0.142456 z M 47.604916,18.800253 q 5.427578,-0.868982 11.011858,-1.239368 a 8.547367,8.547367 0 0 1 8.547367,-7.9348058 8.7468056,8.7468056 0 0 1 0.925965,0 Q 67.833685,6.9194132 67.49179,4.2554842 a 48.890939,48.890939 0 0 0 -39.973186,2.193824 q 2.663929,4.7295428 5.598525,9.2881388 a 10.897893,10.897893 0 0 1 14.473542,3.062806 z"
     class="cls-2"
     inkscape:connector-curvature="0"
     style="fill:#88bd56;stroke-width:1.42456114" />
</svg>
