<svg xmlns="http://www.w3.org/2000/svg" viewBox="0 0 473.57285 320.27643" height="320.276" width="473.573"><defs><clipPath id="a"><path d="M0 792h612V0H0z"/></clipPath></defs><g clip-path="url(#a)" transform="matrix(1.15111 0 0 -1.15111 -115.761 797.447)"><path d="M234.574 553.645c0 76.37 61.91 138.249 138.267 138.249 76.364 0 138.26-61.879 138.26-138.249s-61.896-138.246-138.26-138.246c-76.358 0-138.267 61.876-138.267 138.246" fill="#ed1c24" fill-rule="evenodd"/><path d="M362.597 645.801V563.89h15.353v30.737h10.259v15.347h-10.26v20.498h15.357v15.33zM362.597 543.398V461.48h15.353v30.719h10.259v15.368h-10.26v20.486h15.357v15.345z" fill="#fff" fill-rule="evenodd"/><path d="M101.434 645.801h230.44v-30.704H183.362V574.12h143.376V543.4H183.36v-51.2h148.514V461.48H101.434z" fill="#1a150d" fill-rule="evenodd"/></g></svg>