<?xml version="1.0" encoding="UTF-8" standalone="no"?>
<svg
   xmlns:dc="http://purl.org/dc/elements/1.1/"
   xmlns:cc="http://creativecommons.org/ns#"
   xmlns:rdf="http://www.w3.org/1999/02/22-rdf-syntax-ns#"
   xmlns:svg="http://www.w3.org/2000/svg"
   xmlns="http://www.w3.org/2000/svg"
   xmlns:sodipodi="http://sodipodi.sourceforge.net/DTD/sodipodi-0.dtd"
   xmlns:inkscape="http://www.inkscape.org/namespaces/inkscape"
   viewBox="0 0 473.57285 320.27643"
   height="320.27643"
   width="473.57285"
   xml:space="preserve"
   id="svg2"
   version="1.1"
   sodipodi:docname="eff.svg"
   inkscape:version="0.92.1 r"><sodipodi:namedview
     pagecolor="#ffffff"
     bordercolor="#666666"
     borderopacity="1"
     objecttolerance="10"
     gridtolerance="10"
     guidetolerance="10"
     inkscape:pageopacity="0"
     inkscape:pageshadow="2"
     inkscape:window-width="1920"
     inkscape:window-height="1171"
     id="namedview20"
     showgrid="false"
     fit-margin-top="1"
     fit-margin-left="1"
     fit-margin-bottom="1"
     fit-margin-right="1"
     inkscape:zoom="0.67679573"
     inkscape:cx="236.78712"
     inkscape:cy="160.13809"
     inkscape:window-x="0"
     inkscape:window-y="29"
     inkscape:window-maximized="1"
     inkscape:current-layer="svg2" /><metadata
     id="metadata8"><rdf:RDF><cc:Work
         rdf:about=""><dc:format>image/svg+xml</dc:format><dc:type
           rdf:resource="http://purl.org/dc/dcmitype/StillImage" /><dc:title></dc:title></cc:Work></rdf:RDF></metadata><defs
     id="defs6"><clipPath
       id="clipPath18"
       clipPathUnits="userSpaceOnUse"><path
         id="path16"
         d="M 0,792 H 612 V 0 H 0 Z"
         inkscape:connector-curvature="0" /></clipPath></defs><g
     transform="matrix(1.3333333,0,0,-1.3333333,-131.99488,870.89182)"
     id="g10"><g
       transform="matrix(0.86333322,0,0,0.86333322,12.175165,55.083804)"
       id="g12"><g
         clip-path="url(#clipPath18)"
         id="g14"><g
           transform="translate(195.7075,504.5459)"
           id="g20" /><g
           transform="translate(234.5742,553.645)"
           id="g24"><path
             id="path26"
             style="fill:#ed1c24;fill-opacity:1;fill-rule:evenodd;stroke:none"
             d="m 0,0 c 0,76.37 61.909,138.249 138.267,138.249 76.364,0 138.26,-61.879 138.26,-138.249 0,-76.37 -61.896,-138.246 -138.26,-138.246 C 61.909,-138.246 0,-76.37 0,0"
             inkscape:connector-curvature="0" /></g><g
           transform="translate(362.5967,645.8013)"
           id="g28"><path
             id="path30"
             style="fill:#ffffff;fill-opacity:1;fill-rule:evenodd;stroke:none"
             d="m 0,0 v -81.912 h 15.353 v 30.737 h 10.259 v 15.347 H 15.353 V -15.33 H 30.709 V 0 Z"
             inkscape:connector-curvature="0" /></g><g
           transform="translate(362.5967,543.3979)"
           id="g32"><path
             id="path34"
             style="fill:#ffffff;fill-opacity:1;fill-rule:evenodd;stroke:none"
             d="m 0,0 v -81.918 h 15.353 v 30.719 h 10.259 v 15.368 H 15.353 v 20.486 H 30.709 V 0 Z"
             inkscape:connector-curvature="0" /></g><g
           transform="translate(101.4336,645.8013)"
           id="g36"><path
             id="path38"
             style="fill:#1a150d;fill-opacity:1;fill-rule:evenodd;stroke:none"
             d="M 0,0 H 230.441 V -30.704 H 81.927 v -40.978 h 143.376 v -30.721 H 81.927 v -51.2 h 148.514 v -30.718 H 0 Z"
             inkscape:connector-curvature="0" /></g></g></g></g></svg>