<svg xmlns="http://www.w3.org/2000/svg" width="502" height="73.988" viewBox="0 0 460.85246 73.987762"><path d="M43.366 32.616v32.395c-7.199 4.377-15.86 7.977-26.847 7.977-22.67 0-36.093-15.759-36.093-35.508 0-19.75 13.424-35.508 36.093-35.508 8.85 0 17.801 2.53 25 6.906l-7.685 16.827c-5.057-2.82-12.157-4.28-17.313-4.28-9.241 0-15.176 7.587-15.176 16.05 0 8.463 5.935 16.05 15.176 16.05 1.748 0 3.696-.1 5.836-.49v-6.413H10.39V32.614h32.98zm24.233 9.727h16.737c-1.07-4.573-4.477-6.712-8.369-6.712-3.988 0-7.392 2.137-8.368 6.712zm.976 10.603c1.845 4.477 5.642 5.84 10.312 5.84 4.67 0 9.044-1.17 12.553-2.918l5.35 10.6c-5.354 4.378-11.676 6.52-20.818 6.52-14.206 0-25.78-11.575-25.78-25.78 0-14.203 11.574-25.781 25.78-25.781 14.202 0 25 8.368 25 25.78 0 1.557-.196 3.892-.585 5.737h-31.81zm55.654-10.603h16.732c-1.066-4.573-4.472-6.712-8.362-6.712-3.99 0-7.394 2.137-8.368 6.712zm.971 10.603c1.845 4.477 5.642 5.84 10.313 5.84 4.67 0 9.043-1.17 12.548-2.918l5.354 10.6c-5.354 4.378-11.675 6.52-20.82 6.52-14.206 0-25.78-11.575-25.78-25.78 0-14.203 11.574-25.781 25.78-25.781 14.202 0 25 8.368 25 25.78 0 1.557-.196 3.892-.585 5.737H125.2zm73.358 18.584l-15.081-25.686 14.105-22.955h19.846l-14.105 22.955 15.079 25.686H198.56zm-33.17 0h18.091V2.462h-18.09v69.064zm82.99-48.641h14.299v14.593h-14.301v14.105c0 4.378 2.819 6.225 5.835 6.225 2.918 0 5.543-.196 8.463-1.264v13.715c-4.085 1.654-10.118 2.241-14.982 2.241-8.562 0-17.412-3.113-17.412-18.001V37.48h-8.953V22.889h8.953V11.506h18.094v11.383zm21.117 48.641h18.094V22.889h-18.094v48.637zm-.005-61.482c0-4.866 4.185-9.048 9.044-9.048 4.859 0 9.052 4.184 9.052 9.043 0 5.062-4.189 9.048-9.052 9.048-4.864 0-9.044-3.986-9.044-9.043zm85.418 37.16c0-4.959-.292-8.558-4.476-8.558-3.114 0-6.03 2.722-6.713 7.878v25.004h-18.093V47.214c0-4.963-.288-8.562-4.477-8.562-3.111 0-6.03 2.722-6.704 7.878v25.002h-18.098V22.89h18.096v5.939c3.205-4.477 7.486-7.006 14.006-7.006 6.906 0 11.09 3.503 13.232 8.661 3.404-5.939 8.364-8.66 16.047-8.66 11.19 0 15.274 9.24 15.274 19.553v30.159H354.91V47.216zm42.327-4.865h16.737c-1.069-4.573-4.472-6.712-8.364-6.712-3.99 0-7.395 2.137-8.369 6.712zm.978 10.603c1.845 4.477 5.64 5.84 10.308 5.84s9.05-1.17 12.553-2.918l5.35 10.6c-5.354 4.378-11.676 6.518-20.816 6.518-14.209 0-25.78-11.575-25.78-25.781 0-14.202 11.57-25.78 25.78-25.78 14.2 0 24.998 8.368 24.998 25.78 0 1.557-.192 3.892-.585 5.736h-31.805zm82.213 3.017c0 12.26-9.538 17.023-21.794 17.023-9.143 0-16.152-2.239-23.153-7.784l6.812-11.09c6.13 4.278 10.895 5.938 16.34 5.938 3.02 0 5.256-.884 5.256-3.217 0-5.444-26.46 1.656-26.46-19.358 0-9.336 7.682-16.048 21.889-16.048 8.17 0 14.195 2.43 20.134 7.005l-7.003 10.506c-4.668-3.213-8.661-4.477-13.129-4.477-3.503 0-5.741.974-5.741 2.92 0 5.835 26.847.486 26.847 18.582z"/></svg>