<?xml version="1.0" encoding="UTF-8" standalone="no"?>
<svg
   xmlns:dc="http://purl.org/dc/elements/1.1/"
   xmlns:cc="http://creativecommons.org/ns#"
   xmlns:rdf="http://www.w3.org/1999/02/22-rdf-syntax-ns#"
   xmlns:svg="http://www.w3.org/2000/svg"
   xmlns="http://www.w3.org/2000/svg"
   xmlns:sodipodi="http://sodipodi.sourceforge.net/DTD/sodipodi-0.dtd"
   xmlns:inkscape="http://www.inkscape.org/namespaces/inkscape"
   width="502"
   height="73.987762"
   viewBox="0 0 460.85246 73.987762"
   aria-hidden="true"
   aria-labelledby="title"
   version="1.1"
   role="img"
   id="svg4"
   sodipodi:docname="geektimes.svg"
   inkscape:version="0.92.1 r">
  <metadata
     id="metadata10">
    <rdf:RDF>
      <cc:Work
         rdf:about="">
        <dc:format>image/svg+xml</dc:format>
        <dc:type
           rdf:resource="http://purl.org/dc/dcmitype/StillImage" />
        <dc:title></dc:title>
      </cc:Work>
    </rdf:RDF>
  </metadata>
  <defs
     id="defs8" />
  <sodipodi:namedview
     pagecolor="#ffffff"
     bordercolor="#666666"
     borderopacity="1"
     objecttolerance="10"
     gridtolerance="10"
     guidetolerance="10"
     inkscape:pageopacity="0"
     inkscape:pageshadow="2"
     inkscape:window-width="1920"
     inkscape:window-height="1171"
     id="namedview6"
     showgrid="false"
     fit-margin-top="1"
     fit-margin-left="1"
     fit-margin-bottom="1"
     fit-margin-right="1"
     inkscape:zoom="0.84836065"
     inkscape:cx="-117.53223"
     inkscape:cy="102.35873"
     inkscape:window-x="0"
     inkscape:window-y="29"
     inkscape:window-maximized="1"
     inkscape:current-layer="svg4" />
  <path
     d="m 43.366032,32.616125 v 32.394493 c -7.198776,4.377756 -15.859804,7.977144 -26.846936,7.977144 -22.6693965,0 -36.092864,-15.758571 -36.092864,-35.507964 0,-19.749392 13.4234675,-35.507963 36.092864,-35.507963 8.849996,0 17.801224,2.530819 25,6.906326 L 33.834403,25.7053 c -5.057141,-2.82102 -12.156934,-4.281022 -17.313057,-4.281022 -9.2414295,0 -15.1759205,7.58796 -15.1759205,16.051021 0,8.463061 5.934491,16.048772 15.1759205,16.048772 1.747953,0 3.696121,-0.09898 5.835508,-0.488167 v -6.41366 H 10.391138 V 32.613876 h 32.979393 z m 24.232881,9.727347 h 16.737159 c -1.07082,-4.573473 -4.476744,-6.712859 -8.368582,-6.712859 -3.988572,0 -7.392243,2.137136 -8.368577,6.712859 z m 0.976334,10.602447 c 1.844686,4.476739 5.642041,5.840007 10.312247,5.840007 4.670208,0 9.043458,-1.169801 12.552868,-2.917754 l 5.34959,10.600198 c -5.35409,4.377756 -11.67552,6.519392 -20.817963,6.519392 -14.206335,0 -25.780617,-11.574282 -25.780617,-25.780617 0,-14.201836 11.574282,-25.780618 25.780617,-25.780618 14.201833,0 25.000001,8.368578 25.000001,25.780618 0,1.556735 -0.19572,3.891838 -0.5849,5.736524 H 68.577496 Z M 124.22853,42.343472 h 16.73266 c -1.06632,-4.573473 -4.47224,-6.712859 -8.36183,-6.712859 -3.99082,0 -7.39449,2.137136 -8.36858,6.712859 z m 0.97184,10.602447 c 1.84468,4.476739 5.64204,5.840007 10.31225,5.840007 4.6702,0 9.04346,-1.169801 12.54836,-2.917754 l 5.35409,10.600198 c -5.35409,4.377756 -11.67551,6.519392 -20.82021,6.519392 -14.20633,0 -25.78062,-11.574282 -25.78062,-25.780617 0,-14.201836 11.57429,-25.780618 25.78062,-25.780618 14.20184,0 25,8.368578 25,25.780618 0,1.556735 -0.19572,3.891838 -0.5849,5.736524 h -31.80959 z m 73.35778,18.584091 -15.08144,-25.686133 14.1051,-22.955098 h 19.84613 l -14.1051,22.955098 15.07918,25.686133 H 198.5604 Z m -33.17061,0 h 18.09142 V 2.462251 h -18.08917 v 69.06326 z m 82.99064,-48.641231 h 14.29857 V 37.482048 H 248.37593 V 51.58715 c 0,4.377756 2.81877,6.224692 5.83551,6.224692 2.91775,0 5.54305,-0.195717 8.46306,-1.264285 v 13.715918 c -4.08531,1.653469 -10.11878,2.240619 -14.98246,2.240619 -8.56204,0 -17.41204,-3.11347 -17.41204,-18.00144 V 37.479798 h -8.95347 V 22.888779 H 230.28 V 11.505714 h 18.09368 v 11.383065 z m 21.11716,48.641231 h 18.09367 V 22.888779 h -18.09367 v 48.636732 z m -0.005,-61.482048 c 0,-4.865923 4.18429,-9.04796201 9.04346,-9.04796201 4.85918,0 9.05246,4.18428901 9.05246,9.04346301 0,5.061639 -4.18879,9.047961 -9.05246,9.047961 -4.86367,0 -9.04346,-3.986322 -9.04346,-9.043462 z m 85.41798,37.159183 c 0,-4.958157 -0.29245,-8.557545 -4.47674,-8.557545 -3.11347,0 -6.02898,2.722037 -6.71286,7.87816 V 71.532259 H 325.62555 V 47.213894 c 0,-4.962657 -0.28795,-8.562045 -4.47674,-8.562045 -3.11122,0 -6.02898,2.722037 -6.70386,7.878161 v 25.002249 h -18.09818 v -48.64348 h 18.09593 v 5.93899 c 3.2057,-4.476739 7.48672,-7.005309 14.00612,-7.005309 6.90632,0 11.09061,3.502655 13.23225,8.661028 3.40367,-5.938991 8.36407,-8.661028 16.04652,-8.661028 11.1896,0 15.2749,9.241429 15.2749,19.553676 V 71.534509 H 354.90882 V 47.216143 Z m 42.32655,-4.863673 h 16.73716 c -1.06857,-4.573473 -4.47224,-6.712859 -8.36408,-6.712859 -3.99082,0 -7.39449,2.137136 -8.36858,6.712859 z m 0.97859,10.602447 c 1.84468,4.476739 5.63979,5.840007 10.30774,5.840007 4.66796,0 9.05022,-1.169801 12.55287,-2.917754 l 5.34959,10.600198 c -5.35409,4.377756 -11.67551,6.517142 -20.81571,6.517142 -14.20859,0 -25.78062,-11.574282 -25.78062,-25.780617 0,-14.201836 11.56978,-25.780617 25.78062,-25.780617 14.19959,0 24.99775,8.368577 24.99775,25.780617 0,1.556735 -0.19122,3.891838 -0.5849,5.736525 h -31.80459 z m 82.21277,3.016737 c 0,12.260416 -9.53838,17.022856 -21.79429,17.022856 -9.14245,0 -16.15226,-2.238369 -23.15307,-7.783676 l 6.81184,-11.090615 c 6.13021,4.278773 10.8949,5.93899 16.34123,5.93899 3.01898,0 5.2551,-0.884099 5.2551,-3.216953 0,-5.444074 -26.46,1.655719 -26.46,-19.357959 0,-9.335913 7.68244,-16.048772 21.88878,-16.048772 8.17061,0 14.19509,2.429587 20.13408,7.00531 l -7.00306,10.505714 c -4.66796,-3.212454 -8.66103,-4.476739 -13.12877,-4.476739 -3.50266,0 -5.74103,0.974084 -5.74103,2.920003 0,5.835508 26.84694,0.485918 26.84694,18.581841 z"
     id="path2"
     inkscape:connector-curvature="0"
     style="stroke-width:2.24961758" />
</svg>
