<?xml version="1.0" encoding="UTF-8" standalone="no"?>
<svg
   xmlns:sketch="http://www.bohemiancoding.com/sketch/ns"
   xmlns:dc="http://purl.org/dc/elements/1.1/"
   xmlns:cc="http://creativecommons.org/ns#"
   xmlns:rdf="http://www.w3.org/1999/02/22-rdf-syntax-ns#"
   xmlns:svg="http://www.w3.org/2000/svg"
   xmlns="http://www.w3.org/2000/svg"
   xmlns:sodipodi="http://sodipodi.sourceforge.net/DTD/sodipodi-0.dtd"
   xmlns:inkscape="http://www.inkscape.org/namespaces/inkscape"
   width="520"
   height="80"
   viewBox="0 0 520 79.999999"
   version="1.1"
   id="svg25"
   sodipodi:docname="mediazona-black.svg"
   inkscape:version="0.92.1 r">
  <metadata
     id="metadata29">
    <rdf:RDF>
      <cc:Work
         rdf:about="">
        <dc:format>image/svg+xml</dc:format>
        <dc:type
           rdf:resource="http://purl.org/dc/dcmitype/StillImage" />
        <dc:title></dc:title>
      </cc:Work>
    </rdf:RDF>
  </metadata>
  <sodipodi:namedview
     pagecolor="#ffffff"
     bordercolor="#666666"
     borderopacity="1"
     objecttolerance="10"
     gridtolerance="10"
     guidetolerance="10"
     inkscape:pageopacity="0"
     inkscape:pageshadow="2"
     inkscape:window-width="1920"
     inkscape:window-height="1171"
     id="namedview27"
     showgrid="false"
     inkscape:zoom="7.9615385"
     inkscape:cx="8.2723319"
     inkscape:cy="4.0600019"
     inkscape:window-x="0"
     inkscape:window-y="29"
     inkscape:window-maximized="1"
     inkscape:current-layer="svg25"
     fit-margin-top="0"
     fit-margin-left="0"
     fit-margin-right="0"
     fit-margin-bottom="0" />
  <!-- Generator: Sketch 3.0 (7574) - http://www.bohemiancoding.com/sketch -->
  <description>Created with Sketch.</description>
  <defs
     id="defs4" />
  <g
     id="Page-1"
     sketch:type="MSPage"
     style="fill:#111111;fill-opacity:1;fill-rule:evenodd;stroke:none;stroke-width:1"
     transform="scale(10,9.9255583)">
    <g
       id="MZ_LOGO"
       sketch:type="MSLayerGroup"
       style="fill:#111111;fill-opacity:1">
      <path
         d="M 0,0 H 2.56 L 3.87,3.65 5.18,0 h 2.51 v 6.84 h -2 V 2.58 L 4.06,6.84 H 3.41 L 1.75,2.58 V 6.84 H 0 Z"
         id="Shape"
         sketch:type="MSShapeGroup"
         style="fill:#111111;fill-opacity:1"
         inkscape:connector-curvature="0" />
      <path
         d="M 8.22,4.4 V 4.33 C 8.1991117,3.6121669 8.4806934,2.9185676 8.9960425,2.4184317 9.5113917,1.9182958 10.213115,1.6576178 10.93,1.7 11.627343,1.6439104 12.313841,1.8987833 12.805628,2.3963563 13.297415,2.8939293 13.544242,3.5833604 13.48,4.28 V 4.74 H 10 c 0,0.5522848 0.447715,1 1,1 0.401181,0.067935 0.784696,-0.1921503 0.87,-0.59 h 1.61 C 13.32,6.32 12.45,7 10.94,7 10.219552,7.0745257 9.5026984,6.8290783 8.979127,6.3286056 8.4555556,5.8281329 8.178035,5.123076 8.22,4.4 Z M 11.81,3.77 C 11.839956,3.5233296 11.759164,3.2760539 11.589344,3.0946562 11.419525,2.9132584 11.178108,2.8163552 10.93,2.83 10.400323,2.8290458 9.9617798,3.2412761 9.93,3.77 h 1.84 z"
         id="path7"
         sketch:type="MSShapeGroup"
         style="fill:#111111;fill-opacity:1"
         inkscape:connector-curvature="0" />
      <path
         d="M 15.16,8.06 H 13.65 V 5.68 H 13.9 C 14.291755,5.3332148 14.495826,4.8211831 14.45,4.3 14.51169,3.4815472 14.53171,2.6604869 14.51,1.84 h 4.24 v 3.84 h 0.67 V 8.06 H 17.91 V 6.84 H 15.16 Z M 15.71,5.68 H 17 V 3 h -1 v 1.42 c -0.0323,0.432262 -0.130086,0.8571085 -0.29,1.26 z"
         id="path9"
         sketch:type="MSShapeGroup"
         style="fill:#111111;fill-opacity:1"
         inkscape:connector-curvature="0" />
      <path
         d="m 19.9,6.84 v -5 h 1.7 v 3 l 1.57,-3 h 1.7 v 5 h -1.7 v -3 l -1.57,3 z"
         id="path11"
         sketch:type="MSShapeGroup"
         style="fill:#111111;fill-opacity:1"
         inkscape:connector-curvature="0" />
      <path
         d="m 25.4,5.46 c 0,-1.18 1,-1.64 2.66,-1.64 h 0.48 V 3.7 C 28.54,3.22 28.42,2.91 27.88,2.91 27.710543,2.89336 27.541701,2.947144 27.413091,3.0587324 27.284481,3.1703205 27.207424,3.3298903 27.2,3.5 h -1.61 c 0.08,-1.21 1,-1.8 2.39,-1.8 1.39,0 2.26,0.56 2.26,1.9 V 6.84 H 28.58 V 6.26 C 28.246742,6.7405011 27.682849,7.0072073 27.1,6.96 26.668166,7.0215383 26.231053,6.8907583 25.903976,6.6021609 25.576899,6.3135636 25.39271,5.8961361 25.4,5.46 Z M 28.54,5.1 V 4.79 h -0.45 c -0.69,0 -1,0.13 -1,0.55 0.0029,0.1457944 0.07054,0.2827323 0.184597,0.3735911 C 27.388654,5.80445 27.537252,5.8397881 27.68,5.81 27.892026,5.84153 28.10741,5.7808299 28.271771,5.643226 28.436131,5.5056221 28.533757,5.3042666 28.54,5.09 Z"
         id="path13"
         sketch:type="MSShapeGroup"
         style="fill:#111111;fill-opacity:1"
         inkscape:connector-curvature="0" />
      <path
         d="m 35.29,3.06 c 0.02921,0.5895494 -0.412106,1.097062 -1,1.15 0.303123,-0.010781 0.597855,0.1007522 0.817899,0.309512 C 35.327943,4.7282717 35.454823,5.0167291 35.46,5.32 v 0 c 0,0.91 -0.94,1.61 -2.28,1.61 C 32.590062,7.0207932 31.988698,6.8657245 31.516226,6.5009764 31.043755,6.1362283 30.741504,5.5937068 30.68,5 h 1.5 c 0.101966,0.4348558 0.504457,0.7314277 0.95,0.7 0.144319,0.021678 0.290661,-0.023477 0.397673,-0.122706 C 33.634684,5.4780652 33.69074,5.3355419 33.68,5.19 v 0 c 0,-0.26 -0.16,-0.43 -0.57,-0.43 h -0.59 v -1 h 0.54 C 33.178348,3.783599 33.301082,3.75386 33.395504,3.67871 33.489925,3.6035583 33.546443,3.4906256 33.55,3.37 v 0 C 33.55,3.16 33.41,3 33,3 32.644497,2.9887516 32.328742,3.225568 32.24,3.57 h -1.5 C 30.866005,2.4393228 31.865722,1.612123 33,1.7 c 1.34,0 2.26,0.54 2.26,1.34 v 0 z"
         id="path15"
         sketch:type="MSShapeGroup"
         style="fill:#111111;fill-opacity:1"
         inkscape:connector-curvature="0" />
      <path
         d="M 35.7,4.4 V 4.33 C 35.681288,3.6056681 35.969205,2.9070906 36.492854,2.4062922 37.016503,1.9054937 37.727223,1.64901 38.45,1.7 39.161937,1.6434146 39.864626,1.8903641 40.384638,2.3798985 40.904649,2.8694329 41.193537,3.5559465 41.18,4.27 V 4.36 C 41.210959,5.086977 40.928652,5.7923225 40.404663,6.2971881 39.880674,6.8020537 39.165324,7.0579531 38.44,7 37.71949,7.0668898 37.005167,6.8195732 36.480264,6.3214907 35.955362,5.8234083 35.670956,5.1230249 35.7,4.4 Z m 3.73,0 V 4.3 c 0,-0.84 -0.34,-1.31 -1,-1.31 C 38.113227,2.99668 37.81641,3.1460513 37.622291,3.3964657 37.428171,3.64688 37.357508,3.9715608 37.43,4.28 v 0.08 c 0,0.86 0.34,1.33 1,1.33 C 38.75241,5.68087 39.0535,5.5267955 39.249499,5.2706391 39.445497,5.0144827 39.515489,4.6835809 39.44,4.37 Z"
         id="path17"
         sketch:type="MSShapeGroup"
         style="fill:#111111;fill-opacity:1"
         inkscape:connector-curvature="0" />
      <path
         d="m 44.84,4.88 h -1.5 v 2 h -1.7 v -5 h 1.7 v 1.83 h 1.5 V 1.84 h 1.7 v 5 h -1.7 v -2 z"
         id="path19"
         sketch:type="MSShapeGroup"
         style="fill:#111111;fill-opacity:1"
         inkscape:connector-curvature="0" />
      <path
         d="m 47.13,5.46 c 0,-1.18 1,-1.64 2.66,-1.64 h 0.48 V 3.7 C 50.27,3.22 50.15,2.91 49.61,2.91 49.440543,2.89336 49.271701,2.947144 49.143091,3.0587324 49.014481,3.1703205 48.937424,3.3298903 48.93,3.5 H 47.32 C 47.4,2.29 48.32,1.7 49.71,1.7 51.1,1.7 52,2.27 52,3.6 V 6.84 H 50.31 V 6.26 C 49.976742,6.7405011 49.412849,7.0072073 48.83,6.96 48.398166,7.0215383 47.961053,6.8907583 47.633976,6.6021609 47.306899,6.3135636 47.12271,5.8961361 47.13,5.46 Z M 50.27,5.1 V 4.79 h -0.45 c -0.69,0 -1,0.13 -1,0.55 0.0029,0.1457944 0.07054,0.2827323 0.184597,0.3735911 C 49.118654,5.80445 49.267252,5.8397881 49.41,5.81 49.622026,5.84153 49.83741,5.7808299 50.001771,5.643226 50.166131,5.5056221 50.263757,5.3042666 50.27,5.09 Z"
         id="path21"
         sketch:type="MSShapeGroup"
         style="fill:#111111;fill-opacity:1"
         inkscape:connector-curvature="0" />
    </g>
  </g>
</svg>
