<svg xmlns="http://www.w3.org/2000/svg" width="520" height="80" viewBox="0 0 520 79.999999"><g fill="#111" fill-rule="evenodd"><path d="M0 0h25.6l13.1 36.228L51.8 0h25.1v67.89h-20V25.609L40.6 67.89h-6.5L17.5 25.608V67.89H0zM82.2 43.672v-.694a25.312 25.312 0 0 1 7.76-18.974 25.71 25.71 0 0 1 19.34-7.13 23.8 23.8 0 0 1 18.756 6.911 23.421 23.421 0 0 1 6.744 18.696v4.566H100c0 5.482 4.477 9.926 10 9.926 4.012.674 7.847-1.907 8.7-5.856h16.1c-1.6 11.613-10.3 18.362-25.4 18.362a24.814 24.814 0 0 1-19.609-6.664A24.42 24.42 0 0 1 82.2 43.672zm35.9-6.253a8.298 8.298 0 0 0-2.207-6.703 8.433 8.433 0 0 0-6.593-2.627c-5.297-.01-9.682 4.082-10 9.33h18.4zM151.6 80h-15.1V56.377h2.5a16.315 16.315 0 0 0 5.5-13.697c.617-8.124.817-16.273.6-24.417h42.4v38.114h6.7V80h-15.1V67.89h-27.5zm5.5-23.623H170v-26.6h-10V43.87a42.215 42.215 0 0 1-2.9 12.506zM199 67.89V18.264h17V48.04l15.7-29.777h17v49.628h-17V38.114L216 67.891zM254 54.194c0-11.713 10-16.278 26.6-16.278h4.8v-1.191c0-4.765-1.2-7.842-6.6-7.842a6.23 6.23 0 0 0-4.67 1.477 6.136 6.136 0 0 0-2.13 4.38h-16.1c.8-12.01 10-17.867 23.9-17.867 13.9 0 22.6 5.559 22.6 18.859v32.159h-16.6v-5.757c-3.333 4.77-8.972 7.416-14.8 6.948-4.318.61-8.69-.687-11.96-3.552A14.74 14.74 0 0 1 254 54.194zm31.4-3.574v-3.077h-4.5c-6.9 0-10 1.29-10 5.46a4.852 4.852 0 0 0 1.846 3.708 4.928 4.928 0 0 0 4.054.956 7.54 7.54 0 0 0 5.918-1.655 7.424 7.424 0 0 0 2.682-5.49zM352.9 30.372c.292 5.852-4.121 10.89-10 11.415 3.031-.107 5.979 1 8.179 3.072a11.178 11.178 0 0 1 3.521 7.945c0 9.032-9.4 15.98-22.8 15.98a21.921 21.921 0 0 1-16.638-4.258 21.598 21.598 0 0 1-8.362-14.898h15c1.02 4.316 5.045 7.26 9.5 6.948a4.824 4.824 0 0 0 3.977-1.218 4.746 4.746 0 0 0 1.523-3.844c0-2.581-1.6-4.268-5.7-4.268h-5.9V37.32h5.4a4.123 4.123 0 0 0 3.355-.807 4.06 4.06 0 0 0 1.545-3.064c0-2.084-1.4-3.672-5.5-3.672-3.555-.112-6.713 2.239-7.6 5.657h-15c1.26-11.222 11.257-19.433 22.6-18.56 13.4 0 22.6 5.36 22.6 13.3zM357 43.672v-.694a25.413 25.413 0 0 1 7.929-19.094 25.814 25.814 0 0 1 19.571-7.01 25.415 25.415 0 0 1 19.346 6.748 25.02 25.02 0 0 1 7.954 18.76v.893a25.113 25.113 0 0 1-7.753 19.228A25.513 25.513 0 0 1 384.4 69.48a25.215 25.215 0 0 1-19.597-6.735A24.819 24.819 0 0 1 357 43.672zm37.3 0v-.992c0-8.338-3.4-13.003-10-13.003a10.527 10.527 0 0 0-8.077 4.035 10.362 10.362 0 0 0-1.923 8.77v.793c0 8.536 3.4 13.201 10 13.201a10.726 10.726 0 0 0 8.195-4.162 10.559 10.559 0 0 0 1.905-8.94zM448.4 48.437h-15v19.85h-17V18.66h17v18.164h15V18.263h17v49.628h-17V48.04zM471.3 54.194c0-11.713 10-16.278 26.6-16.278h4.8v-1.191c0-4.765-1.2-7.842-6.6-7.842a6.23 6.23 0 0 0-4.67 1.477 6.136 6.136 0 0 0-2.13 4.38h-16.1c.8-12.01 10-17.867 23.9-17.867 13.9 0 22.9 5.658 22.9 18.859v32.159h-16.9v-5.757c-3.333 4.77-8.972 7.416-14.8 6.948-4.318.61-8.69-.687-11.96-3.552a14.74 14.74 0 0 1-5.04-11.336zm31.4-3.574v-3.077h-4.5c-6.9 0-10 1.29-10 5.46a4.852 4.852 0 0 0 1.846 3.708 4.928 4.928 0 0 0 4.054.956 7.54 7.54 0 0 0 5.918-1.655 7.424 7.424 0 0 0 2.682-5.49z"/></g></svg>