<?xml version="1.0" encoding="UTF-8" standalone="no"?>
<!DOCTYPE svg PUBLIC "-//W3C//DTD SVG 1.1//EN" "http://www.w3.org/Graphics/SVG/1.1/DTD/svg11.dtd">
<svg width="300px" height="63px" viewBox="0 0 300 63" version="1.1" xmlns="http://www.w3.org/2000/svg" xmlns:xlink="http://www.w3.org/1999/xlink" xmlns:sketch="http://www.bohemiancoding.com/sketch/ns">
    <defs/>
    <g id="Page-1" stroke="none" stroke-width="1" fill="none" fill-rule="evenodd">
        <g id="meduza" fill="#000000">
            <path d="M32.5923868,27.384 L32.5923868,58.464 L46.8463462,63 L46.8463462,27.384 L56.0155599,27.384 L56.0155599,58.464 L70.1861628,63 L79.4387328,50.4 L70.2695196,50.4 L70.2695196,19.74 L56.0989163,14.784 L46.8463462,25.704 L46.8463462,19.74 L32.6757433,14.784 L23.4231731,25.704 L23.4231731,19.74 L9.25257018,14.784 L0,27.384 L9.16921368,27.384 L9.16921368,58.464 L23.4231731,63 L23.4231731,27.384 L32.5923868,27.384 L32.5923868,27.384 Z M185.634899,50.4 L185.634899,19.32 L171.380939,14.784 L171.380939,58.044 L185.551542,63 L194.804112,52.08 L194.804112,58.044 L208.974715,63 L218.227285,50.4 L209.058071,50.4 L209.058071,19.32 L194.804112,14.784 L194.804112,50.4 L185.634899,50.4 L185.634899,50.4 Z M290.830786,21 L276.910253,14.784 L260.405668,22.68 L276.910253,28.896 L254.237288,39.9 L254.237288,57.876 L268.491248,63 L276.910253,51.996 L276.910253,58.044 L291.164212,63 L300,50.316 L290.830786,50.316 L290.830786,21 L290.830786,21 Z M97.8605166,63 L114.198388,56.448 L97.8605166,50.316 L97.8605166,41.496 L119.283134,31.08 L107.113087,14.784 L83.6065572,26.124 L83.6065572,56.868 L97.8605166,63 L97.8605166,63 Z M251.153098,49.392 L233.814949,44.1 L250.069464,23.268 L229.73048,14.784 L219.06085,28.392 L236.482356,33.768 L219.894415,54.516 L240.483467,63 L251.153098,49.392 L251.153098,49.392 Z M268.491248,50.4 L268.491248,37.968 L276.910253,33.936 L276.910253,50.4 L268.491248,50.4 L268.491248,50.4 Z M97.8605166,22.932 L105.029175,32.844 L97.8605166,36.288 L97.8605166,22.932 L97.8605166,22.932 Z M122.95082,56.868 L137.204779,63 L160.627952,53.592 L160.627952,16.38 L122.95082,0 L122.95082,14.508 L146.373993,23.832 L146.373993,53.676 L137.204779,50.316 L137.204779,24.108 L122.95082,28.644 L122.95082,56.868 Z" id="Imported-Layers"/>
        </g>
    </g>
</svg>