<svg width="300" height="63" viewBox="0 0 300 63" xmlns="http://www.w3.org/2000/svg"><path d="M32.592 27.384v31.08L46.846 63V27.384h9.17v31.08L70.186 63l9.253-12.6h-9.17V19.74L56.1 14.784l-9.253 10.92V19.74l-14.17-4.956-9.253 10.92V19.74l-14.17-4.956L0 27.384h9.17v31.08L23.422 63V27.384h9.17zM185.635 50.4V19.32l-14.254-4.536v43.26L185.55 63l9.253-10.92v5.964L208.974 63l9.253-12.6h-9.169V19.32l-14.254-4.536V50.4h-9.17zM290.83 21l-13.92-6.216-16.505 7.896 16.504 6.216L254.237 39.9v17.976L268.491 63l8.42-11.004v6.048L291.163 63 300 50.316h-9.17V21zM97.86 63l16.337-6.552-16.337-6.132v-8.82l21.422-10.416-12.17-16.296-23.506 11.34v30.744L97.86 63zm153.292-13.608L233.815 44.1l16.254-20.832-20.339-8.484-10.67 13.608 17.422 5.376-16.588 20.748L240.484 63l10.67-13.608zm17.338 1.008V37.968l8.42-4.032V50.4h-8.42zM97.861 22.932l7.168 9.912-7.168 3.444V22.932zm25.09 33.936L137.205 63l23.423-9.408V16.38L122.951 0v14.508l23.423 9.324v29.844l-9.17-3.36V24.108l-14.253 4.536v28.224z" fill="#000" fill-rule="evenodd"/></svg>