<?xml version="1.0" encoding="UTF-8" standalone="no"?>
<svg
   xmlns:dc="http://purl.org/dc/elements/1.1/"
   xmlns:cc="http://creativecommons.org/ns#"
   xmlns:rdf="http://www.w3.org/1999/02/22-rdf-syntax-ns#"
   xmlns:svg="http://www.w3.org/2000/svg"
   xmlns="http://www.w3.org/2000/svg"
   xmlns:sodipodi="http://sodipodi.sourceforge.net/DTD/sodipodi-0.dtd"
   xmlns:inkscape="http://www.inkscape.org/namespaces/inkscape"
   version="1.1"
   x="0px"
   y="0px"
   viewBox="0 0 501.99998 115.11717"
   id="svg14"
   sodipodi:docname="openrussia.svg"
   width="502"
   height="115.11717"
   inkscape:version="0.92.1 r">
  <metadata
     id="metadata20">
    <rdf:RDF>
      <cc:Work
         rdf:about="">
        <dc:format>image/svg+xml</dc:format>
        <dc:type
           rdf:resource="http://purl.org/dc/dcmitype/StillImage" />
        <dc:title></dc:title>
      </cc:Work>
    </rdf:RDF>
  </metadata>
  <defs
     id="defs18" />
  <sodipodi:namedview
     pagecolor="#ffffff"
     bordercolor="#666666"
     borderopacity="1"
     objecttolerance="10"
     gridtolerance="10"
     guidetolerance="10"
     inkscape:pageopacity="0"
     inkscape:pageshadow="2"
     inkscape:window-width="1920"
     inkscape:window-height="1171"
     id="namedview16"
     showgrid="false"
     fit-margin-top="1"
     fit-margin-left="1"
     fit-margin-right="1"
     fit-margin-bottom="1"
     inkscape:zoom="3.0530972"
     inkscape:cx="4.930435"
     inkscape:cy="16.450004"
     inkscape:window-x="0"
     inkscape:window-y="29"
     inkscape:window-maximized="1"
     inkscape:current-layer="svg14" />
  <path
     d="m 176.75534,30.108327 c 0,-11.053796 8.84304,-19.896832 19.89683,-19.896832 11.0538,0 19.89683,8.843036 19.89683,19.896832 0,11.053795 -8.84303,19.896831 -19.89683,19.896831 -11.05379,0 -19.89683,-9.211496 -19.89683,-19.896831 z m 31.31909,0 c 0.36846,-6.263818 -4.78998,-11.422255 -11.0538,-11.790715 h -0.36846 c -6.26381,0 -11.05379,4.789978 -11.42225,10.685335 v 0.73692 c -0.36846,6.263817 4.78998,11.422255 11.0538,11.790715 h 0.36846 c 6.26381,0 11.05379,-4.789978 11.42225,-10.685336 z M 233.49816,18.686072 H 222.0759 v -7.369197 h 30.95063 v 7.737656 h -11.42225 v 29.845247 h -8.10612 z m 27.63449,-7.369197 h 8.1061 v 15.106853 h 2.57923 l 13.26455,-15.106853 h 10.31687 l -16.94915,18.054532 17.68608,19.159911 h -10.31688 l -13.633,-15.106853 h -2.9477 v 15.106853 h -8.1061 z m 42.00443,0 h 15.4753 c 8.84305,0 14.36995,5.158438 14.36995,12.896094 0,8.843036 -6.6323,13.264554 -15.10688,13.264554 h -6.2638 v 11.053795 h -8.47457 z m 14.73837,18.791452 c 3.31615,0.368459 5.89538,-1.8423 6.6323,-5.158438 v -0.73692 c 0,-3.684598 -2.57922,-5.526897 -6.6323,-5.526897 h -6.2638 v 11.422255 z m 22.84452,-18.791452 h 8.1061 V 23.10759 h 6.6323 c 8.84303,0 14.73838,4.421518 14.73838,12.527634 0,8.106117 -5.15843,12.896094 -15.10685,12.896094 H 340.3515 V 11.316875 Z m 14.73841,29.845247 c 4.05305,0 6.63227,-1.842299 6.63227,-5.526898 0,-3.316138 -2.21077,-5.526897 -6.63227,-5.526897 h -6.6323 v 11.053795 z m 20.26527,-29.845247 h 8.47457 v 37.582903 h -8.1061 z m 27.6345,7.369197 H 391.9359 v -7.369197 h 30.95062 v 7.737656 h -11.42227 v 29.845247 h -8.1061 z m 36.10905,-7.737657 h 7.73768 l 16.21222,37.582903 h -8.47457 l -3.31616,-8.474576 H 435.7826 l -2.94768,8.474576 h -8.47457 z m 8.47457,22.10759 -4.78997,-12.159174 -4.78997,12.159174 z m 52.68978,15.475313 h -8.10612 V 36.740604 h -5.89535 l -8.47458,11.790714 h -9.57997 l 9.57997,-13.264554 c -4.79,-1.473839 -8.47458,-5.895357 -8.47458,-11.053795 0,-8.843036 6.2638,-12.896094 15.84376,-12.896094 H 501 Z M 484.4193,18.686072 c -4.05305,0 -6.63228,1.842299 -6.63228,5.526897 0,3.684599 2.21078,5.158438 6.26383,5.158438 h 8.47457 V 18.686072 Z"
     id="path2"
     inkscape:connector-curvature="0"
     style="stroke-width:3.68459845" />
  <g
     id="g6"
     transform="matrix(3.6845985,0,0,3.6845985,1,1)">
    <path
       d="m 48.2,20.2 h 4.1 c 2.4,0 3.9,1.4 3.9,3.5 0,2.4 -1.8,3.6 -4.1,3.6 h -1.7 v 3 h -2.2 z m 4,5.1 c 0.9,0.1 1.6,-0.5 1.8,-1.4 v -0.2 c 0,-1 -0.7,-1.5 -1.8,-1.5 h -1.7 v 3.1 z m 5.8,0 c 0,-3 2.4,-5.4 5.4,-5.4 3,0 5.4,2.4 5.4,5.4 0,3 -2.4,5.4 -5.4,5.4 -3,0 -5.4,-2.4 -5.4,-5.4 z m 8.5,0 c 0.1,-1.7 -1.3,-3.1 -3,-3.2 h -0.1 c -1.7,0 -3,1.3 -3,3 v 0.2 c -0.1,1.7 1.3,3.1 3,3.2 h 0.1 c 1.7,0 3,-1.3 3,-3 z m 4.2,0 C 70.6,22.4 72.9,20.1 75.8,20 H 76 c 1.5,-0.1 3,0.5 4,1.6 l -1.4,1.6 C 77.9,22.5 77,22.1 76,22.1 c -1.7,0 -3,1.4 -3,3 v 0.1 c -0.1,1.7 1.1,3.1 2.8,3.2 H 76 c 1,0 2,-0.4 2.7,-1.2 l 1.4,1.4 c -1,1.2 -2.5,1.9 -4.1,1.8 -2.8,0.1 -5.2,-2.2 -5.3,-5 z m 10.9,0 c -0.1,-2.9 2.2,-5.2 5.1,-5.3 h 0.2 c 1.5,-0.1 3,0.5 4,1.6 l -1.4,1.6 c -0.7,-0.7 -1.6,-1.1 -2.6,-1.1 -1.7,0 -3,1.4 -3,3 v 0.1 c -0.1,1.7 1.2,3.1 2.8,3.2 h 0.1 c 1,0 2,-0.4 2.7,-1.2 l 1.4,1.4 c -1,1.2 -2.6,1.9 -4.2,1.8 -2.8,0 -5.2,-2.2 -5.2,-5.1 0.1,0.1 0.1,0 0.1,0 z m 18.3,5 v -6.6 l -4.8,6.6 h -2 V 20.2 h 2.2 v 6.4 l 4.7,-6.4 h 2.1 v 10.2 h -2.2 z m 13.3,0 H 111 v -3.2 h -1.6 l -2.3,3.2 h -2.6 l 2.6,-3.6 c -1.3,-0.4 -2.3,-1.6 -2.3,-3 0,-2.4 1.7,-3.5 4.2,-3.5 h 4.2 z m -4.5,-8.1 c -1.1,0 -1.8,0.5 -1.8,1.5 0,1 0.6,1.5 1.7,1.5 h 2.3 v -2.9 z"
       id="path4"
       inkscape:connector-curvature="0" />
  </g>
  <g
     id="g12"
     transform="matrix(3.6845985,0,0,3.6845985,1,1)">
    <path
       d="m 16.9,2.1 c 0.2,0.7 0.4,1.5 0.5,2.3 0.2,0.7 0.3,1.5 0.4,2.2 0,0.6 0.1,1.1 0.2,1.6 v 0.7 c 0.1,0.5 0.1,0.8 0.2,1.3 0,0.1 0.1,0.2 0.1,0.2 v 0.1 c 0,0.1 0,0.2 0.1,0.2 0.1,0.2 0.1,0.1 0.2,0 0.1,0 0.1,-0.1 0.1,-0.1 v -0.2 c 0.2,0 0.2,-0.4 0.2,-0.5 0,-0.1 0,-0.2 0.1,-0.3 0,-0.1 0,-0.3 0.1,-0.4 L 19.2,9.1 19.3,9 c 0,0 -0.1,0 -0.1,-0.1 V 8.8 h 0.1 c 0.1,-0.2 0.1,-0.4 0.1,-0.7 h -0.1 c 0.1,-0.2 0.1,-0.4 0,-0.6 0.1,-0.1 0.1,-0.2 0.1,-0.3 V 7.1 h 0.1 V 7 6.9 c 0,-0.1 -0.1,-0.2 -0.1,-0.2 0,0 0.1,-0.3 0,-0.5 0.1,0 0.1,-0.1 0,-0.1 V 5.6 C 19.4,5.5 19.3,5.4 19.3,5.3 V 4.7 4.6 c 0,-0.3 0,-0.6 -0.1,-0.9 V 3.6 C 19.1,3.3 18.9,2.9 19.1,2.7 19.3,2.5 19,2.3 19.1,2.1 H 19 V 1.9 1.7 1.3 h -0.1 c 0,0 -0.1,0 -0.1,-0.1 V 1.1 0.9 c 0,-0.1 0,-0.1 -0.1,-0.2 0,-0.1 -0.3,-0.4 -0.4,-0.4 H 18.1 L 17.6,0.1 C 17.5,0 17.4,0 17.3,0 17.2,0 17.1,0.1 17,0.1 c -0.1,0 -0.2,0 -0.4,0.2 -0.2,0.3 -0.2,0.6 -0.1,0.9 0.4,0.3 0.2,0.7 0.4,0.9 z m -6.5,10.7 c -0.1,-0.1 -0.1,-0.2 -0.2,-0.3 -0.1,-0.1 0.1,-0.1 0.1,-0.2 0,-0.1 -0.8,-0.8 -0.9,-0.9 0,-0.1 -0.1,-0.1 -0.1,-0.2 V 10.9 H 9.2 v -0.2 c 0,0 -0.1,0 -0.1,-0.1 C 9.1,10.5 9,10.5 9,10.4 L 8.8,10.2 8.5,10 H 8.3 L 7.8,9.6 C 7.5,9.5 7.3,9.4 7.1,9.2 6.8,9 6.6,8.8 6.3,8.6 6.1,8.5 5.9,8.6 5.7,8.4 5.5,8.3 5.3,8.3 5.2,8.4 5.1,8.5 4.9,8.6 4.8,8.7 H 4.7 C 4.7,8.8 4.3,8.9 4.2,9 v 0.4 c 0,0.2 0.1,0.4 0.2,0.5 0.1,0.2 0.3,0.2 0.5,0.4 0.3,0.2 0.6,0.4 1,0.5 0.5,0.2 1,0.5 1.4,0.9 0.4,0.3 1.7,1 2,1.3 0.2,0.2 0.4,0.3 0.6,0.4 H 10 l 0.1,0.1 0.1,0.1 h 0.1 v -0.1 -0.1 c 0,-0.1 0.1,-0.1 0.1,-0.2 0,-0.1 -0.1,-0.2 0,-0.4 z m 0.1,-8.9 c 0.1,0.6 0.4,1.2 0.8,1.7 0.1,0.2 0.2,0.5 0.4,0.7 l 0.4,0.6 c 0.3,0.5 0.6,1 0.9,1.6 0,0.1 0.1,0.2 0.1,0.2 l 0.2,0.3 0.2,0.3 0.3,0.6 c 0.1,0.3 0.2,0.5 0.4,0.8 l 0.2,0.4 0.2,0.4 c 0.1,0.1 0.1,0.2 0.2,0.4 l 0.1,0.2 c 0,0.1 0.1,0.1 0.1,0.2 0,0.1 0.1,0.1 0.1,0.1 l 0.1,-0.2 c 0,-0.1 0.1,-0.2 0.1,-0.2 V 11.9 11.5 L 15.2,11.1 15.1,11 v -0.1 -0.2 -0.1 h 0.2 c 0.1,0 0.1,-0.2 0,-0.3 V 9.9 C 15.2,9.8 15.2,9.9 15.2,9.8 15.2,9.7 15.1,9.5 15.1,9.4 15,9.2 15,9 15,8.8 h -0.1 c 0,0 0,-0.1 0.1,-0.1 C 14.9,8.6 14.9,8.5 14.9,8.4 14.7,8.1 14.6,7.9 14.4,7.6 14.2,7.3 14.3,7 14.1,6.9 14.1,6.9 13.6,6 13.6,5.9 13.4,5.6 13.3,5.3 13.1,5 13,5 13,4.9 13,4.9 13,4.8 13,4.8 12.9,4.7 c 0,-0.1 0,-0.1 -0.1,-0.2 L 12.5,3.9 C 12.4,3.7 12.3,3.5 12.1,3.3 12,3.2 11.9,3 11.7,2.9 h -0.8 c -0.1,0 -0.1,0 -0.2,0.1 h 0.2 v 0.1 c 0,0.1 0,0 -0.1,0 h -0.1 c 0,0 -0.1,0.1 -0.1,0.2 0,0.1 -0.1,0.1 -0.1,0.2 z M 23.3,9.8 C 23.4,9.9 23.8,9.7 24,9.7 24.6,9.5 24.8,9.7 24.9,8.9 24.9,8.7 25,8.4 25,8.2 25,8.1 25,8 24.9,8 H 24.8 V 7.8 c 0,-0.1 0.1,-0.1 0.1,-0.1 V 7.5 7.3 6.8 C 24.9,6.7 24.8,6.5 24.8,6.4 V 6.3 6.2 6.1 5.9 C 24.8,5.7 24.9,5.5 25,5.2 V 4.7 h 0.1 c 0,0 0,-0.2 0.1,-0.4 0.1,-0.2 0,-0.2 0,-0.3 0.1,-0.1 0.1,-0.3 0,-0.4 V 3.5 3.4 3.3 C 25.2,3.2 25.3,3 25.3,2.9 V 2.7 2.6 c 0.1,0 0.1,-0.1 0.1,-0.2 0,0 0.1,-0.1 0,-0.2 h -0.1 c 0,-0.1 0,-0.2 0.1,-0.3 0.1,-0.1 0.2,0 0.3,0.1 V 1.9 C 25.8,1.8 25.8,1.6 25.8,1.5 V 1.4 H 25.7 V 1.2 1.1 c 0,0 -0.1,0 -0.1,-0.1 V 0.9 0.8 0.7 0.6 C 25.6,0.5 25.5,0.5 25.5,0.5 L 25.4,0.4 C 25.6,-0.1 25,0 24.9,0.1 24.8,0.2 24.7,0.3 24.7,0.4 24.5,0.7 24.4,1 24.3,1.3 c 0,0.1 0,0.1 -0.1,0.2 C 24.1,1.8 24,2 23.9,2.3 v 0.2 c 0,0 0.1,0 0,0.1 l -0.1,0.1 v 0.2 c -0.1,0.2 -0.2,0.5 -0.3,0.8 v 0.6 c 0,0 0,0.1 -0.1,0.1 v 0.1 c 0,0 0,0.1 -0.1,0.1 v 0.3 c -0.1,0.3 -0.2,0.7 -0.3,1 0,0.5 0,0.9 -0.1,1.3 -0.2,0.9 -0.3,1.7 -0.2,2.6 0.2,0.1 0.4,0.1 0.6,0 z m 3.2,1.6 c 0.4,-0.1 0.9,0.3 1.4,0.1 L 28,11.4 c 0.1,-0.1 0.2,-0.2 0.3,-0.4 l 0.3,-0.6 0.3,-0.6 C 29,9.6 29.1,9.5 29.2,9.4 29.4,9.3 29.5,9.1 29.6,8.9 29.7,8.7 29.8,8.5 29.9,8.4 30,8.2 30.2,8 30.4,7.8 c 0.1,-0.1 0.1,-0.2 0.1,-0.3 0,-0.1 0,-0.1 0.1,-0.2 V 7.2 7.1 L 30.7,7 H 30.6 V 6.9 6.8 c 0,0 0.1,-0.1 0.1,-0.2 0,-0.1 0.1,-0.1 0.1,-0.2 C 30.8,6.3 30.9,6.1 31,6 V 5.9 5.7 C 31,5.6 31,5.6 30.9,5.5 30.6,5 29.4,6.2 29.2,6.3 29,6.4 29,6.7 28.8,6.9 c -0.2,0.3 -0.5,0.6 -0.7,0.9 -0.2,0.4 -0.5,0.7 -0.7,1 -0.2,0.3 -0.3,0.5 -0.5,0.7 -0.2,0.2 -0.1,0.2 -0.2,0.4 -0.1,0.2 -0.1,0.2 -0.1,0.4 0,0.2 -0.3,0.5 -0.4,0.8 0,0.1 0.1,0.2 0.3,0.3 z"
       id="path8"
       inkscape:connector-curvature="0" />
    <path
       d="m 40,12.3 c 0.1,-0.2 0.1,-0.4 0,-0.5 C 39.8,11.4 39.5,11.1 39.3,10.7 39.1,10.3 38.9,10.1 38.8,9.8 38.7,9.5 38.6,9.4 38.5,9.2 38.4,9 38.2,8.9 38,8.8 38,8.8 37.9,8.7 37.8,8.7 h -0.2 c -0.1,0 -0.2,0 -0.4,-0.1 -0.2,0 -0.4,0 -0.5,0.1 -0.1,0.1 -0.1,0.1 -0.2,0.1 -0.1,0 -0.2,0 -0.3,0.1 C 36,9 35.9,9.1 35.7,9.2 l -0.4,0.3 c -0.2,0.1 -0.4,0.1 -0.5,0.3 -0.1,0.2 -0.2,0.3 -0.4,0.4 -0.1,0 -0.2,0.1 -0.4,0.1 -0.3,0.1 -0.5,0.2 -0.7,0.3 l -0.6,0.5 c 0,0 -1.1,0.6 -1.2,0.6 -0.5,0.3 -1,0.6 -1.5,1 -0.5,0.4 -1.1,0.8 -1.7,1.3 -0.3,0.2 -0.5,0.5 -0.8,0.7 -0.3,0.2 -0.3,0.4 -0.6,0.6 h -0.2 c -0.4,0 -0.5,0.4 -0.8,0.6 l -0.3,0.3 -0.1,0.1 -0.1,0.1 -0.2,0.3 -0.4,0.3 c -0.9,0.8 -1.8,1.6 -2.6,2.6 -0.9,1 -1.8,1.9 -2.7,2.8 -0.3,0.2 -0.4,0.6 -0.7,0.7 -0.6,-0.3 -1.2,-0.6 -1.7,-1 C 13.9,20 10.5,18.2 7.2,16.3 L 6.7,16 C 6.3,15.8 5.8,15.5 5.4,15.3 4.6,15 3.8,14.6 3,14.3 2.7,14.2 0.4,12.9 0.3,13.4 0.2,13.5 0,13.6 0.1,13.8 v 1.7 c 0,0.1 0,0.9 -0.1,0.9 v 0.1 c 0,0.2 0,0.3 0.1,0.4 0.1,0.2 0.3,0.4 0.5,0.5 0.2,0.2 0.5,0.3 0.8,0.4 V 18 c 0.3,0 0.3,0.1 0.6,0.2 l 0.4,0.1 c 0.1,0.1 0.2,0.2 0.3,0.2 0.1,0 0.1,0.1 0.1,0.1 H 2.7 c 0.6,0.3 1.1,0.6 1.8,0.8 0.6,0.3 1.1,0.5 1.7,0.7 l 0.2,0.1 H 6.6 L 7,20.4 c 0.1,0 0.2,0.1 0.2,0.1 0.1,0 0.2,0.1 0.4,0.1 0.1,0 0.2,0 0.4,0.1 v 0.1 c 0.2,0 0.3,0.1 0.4,0.2 0.1,0 0.1,0 0.2,0.1 l 0.1,0.1 c 0,0 0.1,0.1 0.2,0.1 h 0.2 c 0.1,0 0.2,0.1 0.2,0.2 0,0 0,0.1 0.1,0.1 0.1,0 0.1,0.1 0.2,0.1 0.2,0 0.4,0.2 0.6,0.4 h 0.2 c 0.1,0 0.2,0.1 0.3,0.1 0.1,0.1 0.2,0.2 0.4,0.2 0.3,0.2 0.5,0.3 0.8,0.4 0.1,0 0.2,0.1 0.2,0.1 0.1,0.1 0.2,0.1 0.3,0.2 0.1,0.1 0.3,0.2 0.4,0.2 l 0.5,0.3 0.3,0.2 c 0.1,0.1 0.2,0.1 0.3,0.2 0.1,0 0.1,0 0.2,0.1 l 0.3,0.1 0.6,0.3 c 0,0.2 0.2,0.3 0.3,0.3 l 0.3,0.2 0.1,0.1 c 0.1,0 0.1,0.1 0.1,0.2 0,0.1 0.1,0.1 0.2,0.1 l 0.1,0.1 h 0.1 c 0.1,0 0.3,0.1 0.4,0.2 0.1,0.1 0.1,0.2 0.2,0.2 0.1,0.1 0.1,0.1 0.1,0.2 v 0.4 c 0.1,0.3 0.2,0.6 0.4,0.9 l 0.3,0.3 c 0.3,0.2 0.4,0.5 0.6,0.7 0.2,0.2 0.4,0.3 0.6,0.5 0.2,0.2 0.3,0.4 0.5,0.6 0.1,0.2 0.3,0.5 0.6,0.6 0.4,0.1 0.8,-0.9 1,-1.1 0.1,-0.1 0.2,-0.1 0.2,-0.2 0.1,-0.1 0.2,-0.1 0.3,-0.1 h 0.3 c 0,-0.1 0.1,-0.2 0.1,-0.3 0.1,-0.3 0.4,-0.4 0.6,-0.7 v -0.1 c 0,-0.1 -0.1,-0.1 -0.1,-0.2 0,-0.1 0.2,-0.2 0.2,-0.2 0.1,-0.1 0.1,-0.3 0.1,-0.4 0.1,-0.2 0.1,-0.4 0.2,-0.6 0.1,-0.2 0.3,-0.3 0.5,-0.4 0.2,-0.1 0.3,-0.3 0.5,-0.4 l 0.3,-0.3 c 0.1,-0.2 0.2,-0.4 0.4,-0.6 1,-1 2,-2.2 3,-3.1 0.9,-0.8 1.8,-1.5 2.7,-2.2 l 1.7,-1.4 c 0.6,-0.5 1.2,-1 1.8,-1.4 0.6,-0.4 1.3,-0.8 2,-1.2 0.2,-0.1 0.5,-0.2 0.7,-0.4 0.7,-0.7 1.7,-1.2 2.7,-1.4 h 0.3 C 39.5,13 39.6,12.5 40,12.3 Z"
       id="path10"
       inkscape:connector-curvature="0" />
  </g>
</svg>
