<svg xmlns="http://www.w3.org/2000/svg" viewBox="0 0 501.99998 115.11717" width="502" height="115.117"><path d="M176.755 30.108a19.814 19.814 0 0 1 19.897-19.897 19.814 19.814 0 0 1 19.897 19.897 19.814 19.814 0 0 1-19.897 19.897c-11.054 0-19.897-9.211-19.897-19.897zm31.32 0c.368-6.263-4.79-11.422-11.054-11.79h-.369c-6.264 0-11.054 4.79-11.422 10.685v.737c-.369 6.264 4.79 11.422 11.054 11.79h.368c6.264 0 11.054-4.79 11.422-10.685zm25.423-11.422h-11.422v-7.37h30.95v7.739h-11.422V48.9h-8.106zm27.635-7.37h8.106v15.108h2.579l13.265-15.107h10.316L278.45 29.37l17.686 19.16H285.82l-13.633-15.107h-2.947v15.107h-8.106zm42.004 0h15.475c8.843 0 14.37 5.16 14.37 12.897 0 8.843-6.632 13.265-15.107 13.265h-6.263V48.53h-8.475zm14.738 18.792c3.317.369 5.896-1.842 6.633-5.158v-.737c0-3.685-2.58-5.527-6.633-5.527h-6.263v11.422zm22.845-18.791h8.106v11.79h6.632c8.843 0 14.739 4.422 14.739 12.528 0 8.106-5.159 12.896-15.107 12.896h-14.738V11.317zm14.738 29.845c4.053 0 6.633-1.842 6.633-5.527 0-3.316-2.211-5.527-6.633-5.527h-6.632v11.054zm20.266-29.845h8.474V48.9h-8.106zm27.634 7.37h-11.422v-7.37h30.95v7.738h-11.422V48.9h-8.106zm36.11-7.739h7.737l16.212 37.583h-8.474l-3.317-8.474h-15.843l-2.948 8.474h-8.475zm8.474 22.108l-4.79-12.16-4.79 12.16zm52.69 15.475h-8.107v-11.79h-5.895l-8.474 11.79h-9.58l9.58-13.264c-4.79-1.474-8.475-5.896-8.475-11.054 0-8.843 6.264-12.896 15.844-12.896H501zm-16.213-29.845c-4.053 0-6.632 1.842-6.632 5.527s2.21 5.158 6.264 5.158h8.474V18.686zM178.598 75.429h15.107c8.843 0 14.37 5.158 14.37 12.896 0 8.843-6.633 13.265-15.107 13.265h-6.264v11.053h-8.106zm14.738 18.791c3.316.369 5.895-1.842 6.632-5.158v-.737c0-3.685-2.579-5.527-6.632-5.527h-6.264V94.22zm21.37 0a19.814 19.814 0 0 1 19.898-19.896A19.814 19.814 0 0 1 254.5 94.22a19.814 19.814 0 0 1-19.896 19.897 19.814 19.814 0 0 1-19.897-19.897zm31.32 0c.368-6.263-4.79-11.422-11.054-11.79h-.368c-6.264 0-11.054 4.79-11.054 11.053v.737c-.369 6.264 4.79 11.423 11.054 11.791h.368c6.264 0 11.054-4.79 11.054-11.054zm15.475 0c-.368-10.685 8.106-19.16 18.792-19.528h.736c5.527-.368 11.054 1.842 14.739 5.895l-5.159 5.896c-2.579-2.58-5.895-4.053-9.58-4.053-6.263 0-11.053 5.158-11.053 11.053v.369c-.369 6.264 4.053 11.422 10.317 11.79h.736c3.685 0 7.37-1.473 9.949-4.42l5.158 5.158c-3.684 4.421-9.211 7-15.107 6.632-10.316.368-19.16-8.106-19.528-18.423zm40.162 0c-.368-10.685 8.106-19.16 18.792-19.528h.737c5.527-.368 11.053 1.842 14.738 5.895l-5.158 5.896c-2.58-2.58-5.896-4.053-9.58-4.053-6.264 0-11.054 5.158-11.054 11.053v.369c-.369 6.264 4.421 11.422 10.317 11.79h.368c3.685 0 7.37-1.473 9.949-4.42l5.158 5.158c-3.685 4.421-9.58 7-15.475 6.632-10.317 0-19.16-8.106-19.16-18.792.368.369.368 0 .368 0zm67.428 18.423V88.325l-17.686 24.318h-7.369V75.43h8.106V99.01L369.46 75.43h7.738v37.583h-8.107zm49.006 0h-8.107v-11.79h-5.895l-8.475 11.79h-9.58l9.58-13.264c-4.79-1.474-8.474-5.896-8.474-11.054 0-8.843 6.264-12.896 15.475-12.896h15.476zm-16.581-29.845c-4.053 0-6.632 1.842-6.632 5.527s2.21 5.527 6.263 5.527h8.475V83.167zM63.27 8.738c.737 2.579 1.474 5.527 1.842 8.474.737 2.58 1.105 5.527 1.474 8.106 0 2.211.368 4.053.737 5.896v2.579c.368 1.842.368 2.948.737 4.79 0 .368.368.737.368.737v.368c0 .369 0 .737.369.737.368.737.368.369.737 0 .368 0 .368-.368.368-.368v-.737c.737 0 .737-1.474.737-1.842 0-.369 0-.737.368-1.106 0-.368 0-1.105.369-1.474l.368-.368.369-.369s-.369 0-.369-.368v-.369h.369c.368-.736.368-1.473.368-2.579h-.368c.368-.737.368-1.474 0-2.21.368-.369.368-.737.368-1.106v-.368h.369v-.737c0-.369-.369-.737-.369-.737s.369-1.106 0-1.842c.369 0 .369-.369 0-.369v-1.842c0-.369-.368-.737-.368-1.106V17.95c0-1.105 0-2.21-.369-3.316v-.368c-.368-1.106-1.105-2.58-.368-3.317.737-.737-.369-1.473 0-2.21h-.369V5.79h-.368s-.369 0-.369-.368V4.316c0-.368 0-.368-.368-.737 0-.368-1.105-1.474-1.474-1.474h-.737l-1.842-.737C65.48 1 65.112 1 64.744 1c-.369 0-.737.368-1.106.368-.368 0-.737 0-1.474.737-.737 1.106-.737 2.211-.368 3.317C63.27 6.527 62.533 8 63.27 8.738zM39.32 48.163c-.369-.369-.369-.737-.737-1.106-.369-.368.368-.368.368-.736 0-.369-2.947-2.948-3.316-3.317 0-.368-.368-.368-.368-.736v-1.106h-.369v-.737s-.368 0-.368-.368c0-.369-.369-.369-.369-.737l-.737-.737-1.105-.737h-.737l-1.842-1.474c-1.106-.368-1.842-.737-2.58-1.474-1.105-.737-1.842-1.474-2.947-2.21-.737-.369-1.474 0-2.21-.737-.738-.369-1.475-.369-1.843 0-.369.368-1.105.737-1.474 1.105h-.368c0 .368-1.474.737-1.843 1.105v1.474c0 .737.369 1.474.737 1.843.369.736 1.106.736 1.843 1.473 1.105.737 2.21 1.474 3.684 1.843 1.842.737 3.685 1.842 5.159 3.316 1.473 1.105 6.263 3.684 7.369 4.79.737.737 1.474 1.105 2.21 1.474h.369l.368.368.369.369h.368v-.737c0-.369.369-.369.369-.737 0-.369-.369-.737 0-1.474zm.368-32.793c.369 2.21 1.474 4.421 2.948 6.264.368.737.737 1.842 1.474 2.579l1.474 2.21c1.105 1.843 2.21 3.685 3.316 5.896 0 .369.368.737.368.737l.737 1.105.737 1.106 1.105 2.21c.369 1.106.737 1.843 1.474 2.948l.737 1.474.737 1.474c.369.368.369.737.737 1.474l.369.737c0 .368.368.368.368.737 0 .368.368.368.368.368l.369-.737c0-.368.368-.737.368-.737v-1.842l-.368-1.474-.369-.368V40.057h.737c.369 0 .369-.737 0-1.106v-1.473c-.368-.369-.368 0-.368-.369 0-.368-.369-1.105-.369-1.474-.368-.737-.368-1.474-.368-2.21h-.368s0-.369.368-.369c-.368-.368-.368-.737-.368-1.105-.737-1.106-1.106-1.843-1.843-2.948-.737-1.105-.368-2.21-1.105-2.58 0 0-1.842-3.315-1.842-3.684-.737-1.105-1.106-2.21-1.843-3.316-.368 0-.368-.368-.368-.368 0-.369 0-.369-.369-.737 0-.369 0-.369-.368-.737l-1.106-2.211c-.368-.737-.736-1.474-1.473-2.21-.369-.37-.737-1.106-1.474-1.475h-2.948c-.368 0-.368 0-.737.369h.737v.368c0 .369 0 0-.368 0h-.369s-.368.369-.368.737c0 .369-.369.369-.369.737zm47.163 21.74c.369.368 1.842-.37 2.58-.37 2.21-.736 2.947 0 3.316-2.947 0-.737.368-1.842.368-2.58 0-.368 0-.736-.368-.736h-.369v-.737c0-.369.369-.369.369-.369v-3.316c0-.368-.369-1.105-.369-1.474V22.74c0-.737.369-1.474.737-2.58v-1.841h.368s0-.737.369-1.474c.368-.737 0-.737 0-1.106.368-.368.368-1.105 0-1.473V13.159c0-.368.368-1.105.368-1.474V10.58c.369 0 .369-.369.369-.737 0 0 .368-.368 0-.737h-.369c0-.368 0-.737.369-1.105.368-.369.737 0 1.105.368v-.368c.369-.369.369-1.106.369-1.474v-.369h-.369V5.053s-.368 0-.368-.368V3.21c0-.369-.369-.369-.369-.369l-.368-.368C95.326.632 93.115 1 92.747 1.368c-.369.369-.737.737-.737 1.106-.737 1.105-1.106 2.21-1.474 3.316 0 .368 0 .368-.369.737-.368 1.105-.737 1.842-1.105 2.948v.736s.368 0 0 .369l-.369.368v.737c-.368.737-.736 1.843-1.105 2.948v2.21s0 .37-.368.37v.368s0 .368-.369.368v1.106c-.368 1.105-.737 2.579-1.105 3.684 0 1.842 0 3.316-.369 4.79-.737 3.316-1.105 6.264-.737 9.58.737.369 1.474.369 2.211 0zm11.79 5.894c1.475-.368 3.317 1.106 5.16.369l.368-.369c.368-.368.737-.736 1.105-1.473l1.106-2.211 1.105-2.21c.368-.738.737-1.106 1.105-1.475.737-.368 1.106-1.105 1.474-1.842.369-.737.737-1.474 1.105-1.842.369-.737 1.106-1.474 1.843-2.211.368-.369.368-.737.368-1.106 0-.368 0-.368.369-.736v-.737l.368-.369h-.368v-.737s.368-.368.368-.737c0-.368.369-.368.369-.737 0-.368.368-1.105.737-1.473V22.002c0-.368 0-.368-.369-.737-1.105-1.842-5.527 2.58-6.264 2.948-.737.368-.737 1.474-1.474 2.21-.736 1.106-1.842 2.211-2.579 3.317-.737 1.474-1.842 2.58-2.579 3.684-.737 1.106-1.105 1.843-1.842 2.58-.737.737-.369.737-.737 1.474-.369.736-.369.736-.369 1.473 0 .737-1.105 1.843-1.474 2.948 0 .369.369.737 1.106 1.105z"/><path d="M148.384 46.32c.368-.736.368-1.473 0-1.842-.737-1.474-1.842-2.579-2.58-4.053-.736-1.474-1.473-2.21-1.842-3.316-.368-1.105-.736-1.474-1.105-2.21-.368-.738-1.105-1.106-1.842-1.475 0 0-.369-.368-.737-.368h-.737c-.369 0-.737 0-1.474-.368-.737 0-1.474 0-1.842.368-.369.368-.369.368-.737.368-.369 0-.737 0-1.106.369-.736.368-1.105.737-1.842 1.105l-1.474 1.106c-.737.368-1.474.368-1.842 1.105-.368.737-.737 1.105-1.474 1.474-.368 0-.737.368-1.474.368-1.105.369-1.842.737-2.579 1.106l-2.21 1.842s-4.054 2.21-4.422 2.21c-1.842 1.106-3.685 2.212-5.527 3.685-1.842 1.474-4.053 2.948-6.264 4.79-1.105.737-1.842 1.843-2.948 2.58-1.105.737-1.105 1.473-2.21 2.21h-.737c-1.474 0-1.843 1.474-2.948 2.211l-1.105 1.105-.369.369-.368.368-.737 1.106-1.474 1.105c-3.316 2.948-6.632 5.896-9.58 9.58-3.316 3.685-6.632 7-9.948 10.317-1.106.737-1.474 2.21-2.58 2.58-2.21-1.106-4.421-2.212-6.263-3.685-11.791-7.738-24.319-14.37-36.478-21.371l-1.842-1.105c-1.474-.737-3.316-1.843-4.79-2.58-2.948-1.105-5.896-2.579-8.843-3.684-1.106-.369-9.58-5.159-9.949-3.316-.368.368-1.105.737-.737 1.473v6.264c0 .369 0 3.316-.368 3.316v.369c0 .737 0 1.105.368 1.474.369.737 1.106 1.474 1.843 1.842.737.737 1.842 1.105 2.947 1.474v.737c1.106 0 1.106.368 2.211.737l1.474.368c.368.369.737.737 1.105.737.369 0 .369.369.369.369h-.369c2.211 1.105 4.053 2.21 6.633 2.947 2.21 1.106 4.053 1.843 6.264 2.58l.736.368h.737l1.474.737c.369 0 .737.368.737.368.369 0 .737.369 1.474.369.368 0 .737 0 1.474.368v.369c.737 0 1.105.368 1.474.737.368 0 .368 0 .737.368l.368.368s.368.369.737.369h.737c.368 0 .737.368.737.737 0 0 0 .368.368.368.369 0 .369.369.737.369.737 0 1.474.737 2.21 1.474h.738c.368 0 .737.368 1.105.368.369.369.737.737 1.474.737 1.105.737 1.842 1.105 2.948 1.474.368 0 .737.368.737.368.368.369.737.369 1.105.737.368.369 1.105.737 1.474.737l1.842 1.106 1.106.736c.368.369.736.369 1.105.737.368 0 .368 0 .737.369l1.105.368 2.211 1.106c0 .737.737 1.105 1.105 1.105l1.106.737.368.368c.369 0 .369.369.369.737 0 .369.368.369.737.369l.368.368h.368c.369 0 1.106.369 1.474.737.369.369.369.737.737.737.369.369.369.369.369.737v1.474c.368 1.105.737 2.21 1.474 3.316l1.105 1.105c1.105.737 1.474 1.843 2.21 2.58.738.737 1.475 1.105 2.211 1.842.737.737 1.106 1.474 1.843 2.21.368.738 1.105 1.843 2.21 2.211 1.474.369 2.948-3.316 3.685-4.053.369-.368.737-.368.737-.737.368-.368.737-.368 1.105-.368h1.106c0-.368.368-.737.368-1.105.369-1.106 1.474-1.474 2.211-2.58v-.368c0-.369-.368-.369-.368-.737s.736-.737.736-.737c.369-.368.369-1.105.369-1.474.368-.737.368-1.474.737-2.21.368-.737 1.105-1.106 1.842-1.474.737-.369 1.106-1.106 1.842-1.474l1.106-1.106c.368-.736.737-1.473 1.474-2.21 3.684-3.685 7.369-8.106 11.053-11.423 3.317-2.947 6.633-5.526 9.949-8.106l6.264-5.158c2.21-1.842 4.421-3.685 6.632-5.159 2.21-1.473 4.79-2.947 7.37-4.421.736-.369 1.841-.737 2.578-1.474 2.58-2.58 6.264-4.421 9.949-5.158h1.105c.369-1.474.737-3.317 2.21-4.053z"/></svg>