<svg xmlns="http://www.w3.org/2000/svg" width="529" height="156" viewBox="-0.2 -0.1 529 156"><path fill="#FFF" stroke="#B7B9BC" stroke-width=".5" d="M135.6.3l-12.2 18.2C110.9 8.7 95.3 2.7 78.2 2.4 36.1 1.4 1.2 34.7.3 76.8c-1 42.1 32.3 77 74.4 77.9 30.7.7 57.5-16.8 70.2-42.7h224.9L406 64h73.5l48-63.8H135.6zM74.8 147.5C36.7 146.6 6.5 115 7.4 76.9 8.3 38.8 39.9 8.6 78 9.5c38.1.9 68.3 32.5 67.4 70.6-.8 38.1-32.4 68.3-70.6 67.4zm402-90.3l-73.3-.1-37 47.5H148c2.8-7.6 4.4-15.7 4.6-24.2.2-8.1-.9-15.8-3-23.2l196.8-.2-197-.2c-3.9-13-11.1-24.6-20.8-33.7l10.9-17.7 375.7.7-38.4 51.1z"/><path d="M287.3 34.8h9l-4.7-11.4zM259.6 21.7H257v6.8h3.4c3.4 0 4.6-1.2 4.6-3.4 0-2.5-1.4-3.4-5.4-3.4zM452.8 25.9c0 3 2.5 4 4.5 4h4.4v-8.1H458c-2.7-.1-5.2 1.3-5.2 4.1zM419.4 34.8h9l-4.8-11.4z"/><path d="M139.6 5.4L128.7 23c9.7 9.1 16.9 20.7 20.8 33.7l197 .2h57.1l-.1.1 73.3.1 39.1-51.7H139.6zm65.7 40.3H198v-24h-14.6v23.9h-7.3V16.4h29.2v29.3zm36.7 0h-7.3V28l-17.8 17.7h-4.1V16.4h7.3v18.3l17.7-18.3h4.2v29.3zm20.9-11.8h-5.8v11.8h-7.3V16.4h13.1c6.7 0 9.7 4.7 9.7 8.7-.1 4.1-3 8.8-9.7 8.8zm38 11.8l-2.4-5.8h-13.1l-2.2 5.8h-7.7l11.8-29.3h8.5l13 29.3h-7.9zm38.6-24h-10.6v23.9h-7.3V21.7H311v-5.4h28.5v5.4zm32.7 21.4c-4.1 2.1-7.2 2.9-11.5 2.9-11.4 0-17.1-7.4-17.1-14.9 0-7.8 6.4-15.1 17.6-15.1 4.1 0 7.7.9 10.6 2.6v6.5c-3.2-1.8-6.5-3-10.1-3-6.2 0-10.6 3.7-10.6 8.9s4.3 9 10.4 9c3.8 0 6.4-1.2 10.6-3.2v6.3zm25.6 2.6l-3-6.5c-1.8-4-4.3-5.9-7-5.9h-1.6v12.5h-7.3V16.4h7.3v11.5h2.1c2.3 0 3.6-1.3 4.6-3.3l1.9-4c1.2-2.5 3.6-4.3 7.2-4.3.8 0 1.7.1 2.7.3l-.4 5.4c-1.3 0-3.1.2-4 2.2l-1.1 2.4c-.8 1.8-2.1 3.7-3.1 4.3 2.5 1 4.5 4 6.1 7.1l3.8 7.7h-8.2zm35.1 0l-2.4-5.8h-13.1l-2.2 5.8h-7.7l11.8-29.3h8.5l13 29.3h-7.9zm36.1 0h-7.3V35.2h-1.5c-3.7 0-5.8 2.1-7.4 5.5l-2.3 5h-8.2l2.1-4.3c2.1-4.5 3.7-6.2 6.5-7.7-3.1-1.7-5.5-4.6-5.5-7.9 0-5.8 4.7-9.5 10.9-9.5H469v29.4z"/><path fill="#F15D22" d="M244.5 70h-2.6v6.8h3.4c3.4 0 4.6-1.2 4.6-3.4 0-2.5-1.4-3.4-5.4-3.4zM339.6 74.1c0 3.1 2.4 4 4.5 4h4.4V70h-3.7c-2.7 0-5.2 1.4-5.2 4.1zM208.6 83h9l-4.7-11.4z"/><path fill="#F15D22" d="M346.4 57l-196.9.1c2.1 7.3 3.2 15.1 3 23.2-.2 8.5-1.8 16.7-4.6 24.2h218.4l37-47.5.1-.1-57 .1zm-154 36.9h-7.3V70h-14.6v23.9h-7.3V64.6h29.2v29.3zm29.7 0l-2.4-5.8h-13.1l-2.2 5.8h-7.7l11.8-29.3h8.5l13 29.3h-7.9zm25.6-11.7h-5.8V94h-7.3V64.6h13.1c6.7 0 9.7 4.7 9.7 8.7 0 4.1-2.9 8.9-9.7 8.9zM289.9 70h-10.6v23.9H272V70h-10.6v-5.4h28.5V70zm34.6 23.9h-7.3V76.3l-17.8 17.6h-4.1V64.6h7.3v18.3l17.7-18.3h4.2v29.3zm31.3 0h-7.3V83.5H347c-3.7 0-5.8 2.1-7.4 5.5l-2.3 5h-8.2l2.1-4.2c2.1-4.5 3.7-6.2 6.5-7.7-3.1-1.7-5.5-4.6-5.5-7.9 0-5.8 4.7-9.5 10.9-9.5h12.8v29.2z"/><path fill="#FFF" d="M176.1 45.7h7.3v-24H198v24h7.3V16.4h-29.2zM220.1 34.7V16.4h-7.3v29.3h4.1L234.7 28v17.7h7.3V16.4h-4.2zM262.8 16.4h-13.1v29.3h7.3V33.9h5.8c6.7 0 9.7-4.7 9.7-8.8 0-4-3-8.7-9.7-8.7zm-2.4 12.1H257v-6.8h2.6c4 0 5.4.9 5.4 3.4 0 2.2-1.2 3.4-4.6 3.4zM287.2 16.4l-11.8 29.3h7.7l2.2-5.8h13.1l2.4 5.8h7.9l-13-29.3h-8.5zm.1 18.4l4.3-11.4 4.7 11.4h-9zM311 21.7h10.6v24h7.3v-24h10.6v-5.3H311zM351.1 31c0-5.2 4.4-8.9 10.6-8.9 3.6 0 6.9 1.2 10.1 3v-6.5c-2.9-1.7-6.5-2.6-10.6-2.6-11.2 0-17.6 7.3-17.6 15.1 0 7.6 5.7 14.9 17.1 14.9 4.3 0 7.4-.8 11.5-2.9v-6.4c-4.2 2-6.8 3.2-10.6 3.2-6.2.1-10.5-3.7-10.5-8.9zM396 30.8c.9-.6 2.2-2.4 3.1-4.3l1.1-2.4c.9-2 2.7-2.2 4-2.2l.4-5.4c-1-.2-1.8-.3-2.7-.3-3.6 0-6 1.8-7.2 4.3l-1.9 4c-.9 2-2.2 3.3-4.6 3.3h-2.1V16.4h-7.3v29.3h7.3V33.2h1.6c2.7 0 5.1 1.9 7 5.9l3 6.5h8.1l-3.8-7.7c-1.5-3.1-3.5-6.1-6-7.1zM419.3 16.4l-11.8 29.3h7.7l2.2-5.8h13.1l2.4 5.8h7.9l-13-29.3h-8.5zm.1 18.4l4.3-11.4 4.7 11.4h-9zM445.3 25.9c0 3.3 2.4 6.2 5.5 7.9-2.8 1.5-4.4 3.2-6.5 7.7l-2.1 4.3h8.2l2.3-5c1.6-3.4 3.7-5.5 7.4-5.5h1.5v10.4h7.3V16.4h-12.8c-6.1 0-10.8 3.7-10.8 9.5zm16.4-4.2v8.1h-4.4c-2 0-4.5-.9-4.5-4 0-2.8 2.5-4.1 5.2-4.1h3.7zM163.2 93.9h7.3V70h14.6v23.9h7.3V64.6h-29.2zM208.5 64.6l-11.8 29.3h7.7l2.2-5.8h13.1l2.4 5.8h7.9l-13-29.3h-8.5zm.1 18.4l4.3-11.4 4.7 11.4h-9zM247.7 64.6h-13.1v29.3h7.3V82.2h5.8c6.7 0 9.7-4.7 9.7-8.8 0-4.1-3-8.8-9.7-8.8zm-2.4 12.2h-3.4V70h2.6c4 0 5.4.9 5.4 3.4 0 2.2-1.2 3.4-4.6 3.4zM261.3 70H272v23.9h7.3V70h10.6v-5.4h-28.6zM302.6 82.9V64.6h-7.3v29.3h4.1l17.8-17.6v17.6h7.3V64.6h-4.2zM332.1 74.1c0 3.3 2.4 6.2 5.5 7.9-2.8 1.5-4.4 3.2-6.5 7.7l-2.1 4.2h8.2l2.3-5c1.6-3.4 3.7-5.5 7.4-5.5h1.5v10.4h7.3V64.6H343c-6.2 0-10.9 3.8-10.9 9.5zm16.4-4.1v8.1h-4.4c-2 0-4.5-.9-4.5-4 0-2.7 2.4-4.1 5.2-4.1h3.7zM56.5 42.4l-1.2 50.7c6.5-4.2 17.5-9.2 19.9-19.1 4.7-20.1-7.9-28.7-18.7-31.6z"/><path fill="#FFF" d="M77.9 16.2C43.5 15.4 15 42.6 14.2 77c-.9 34.5 26.4 63 60.8 63.8 34.4.8 62.9-26.4 63.7-60.9.8-34.3-26.4-62.9-60.8-63.7zm43.4 55.2C120.8 98 73.8 92.9 60 101.2c-15.1 9-8.9 29-8.9 29s-8.5-18.7-2-30.7l1.3-58.1c-2.6-.2-4.7-.1-6.1.3-.4-.8 2-2.2 6.2-3.4l.3-11 6 .1-.2 9.3c22-4.6 65.6-4.7 64.7 34.7z"/><path d="M78 9.5C39.9 8.6 8.3 38.8 7.4 76.9c-.9 38.1 29.3 69.7 67.4 70.6 38.1.9 69.7-29.3 70.6-67.4.9-38.1-29.2-69.7-67.4-70.6zm-3 131.3C40.6 140 13.4 111.5 14.2 77c.8-34.4 29.3-61.6 63.7-60.8 34.4.8 61.7 29.3 60.9 63.7-.9 34.5-29.4 61.7-63.8 60.9z"/><path d="M56.6 36.6l.2-9.3-6-.1-.3 11c-4.1 1.3-6.5 2.6-6.2 3.4 1.4-.4 3.5-.5 6.1-.3l-1.3 58.1c-6.5 12 2 30.7 2 30.7s-6.2-20 8.9-29c13.9-8.3 60.9-3.2 61.3-29.7.9-39.4-42.7-39.3-64.7-34.8zM75.2 74c-2.3 10-13.4 14.9-19.9 19.1l1.2-50.7C67.3 45.3 79.9 53.9 75.2 74z"/></svg>