<svg xmlns="http://www.w3.org/2000/svg" height="145.697" width="520" viewBox="0 0 520.00001 145.69659"><path d="M236.053.604h-56.75v145.093h26.363v-50.31h29.984c26.564 0 41.657-14.69 41.657-40.449V39.443c0-25.356-14.288-38.84-41.254-38.84zM205.666 24.55h28.173c14.892 0 16.904 7.245 16.904 13.483v15.898c0 12.074-4.628 17.508-15.093 17.508h-29.783V24.55zM349.954 58.36h-29.985V24.55h64.598V.604h-91.161v145.093h56.95c26.966 0 41.254-13.483 41.254-38.84v-8.049c0-25.758-15.093-40.449-41.656-40.449zm-29.985 23.947h29.783c10.465 0 15.093 5.433 15.093 17.507v8.452c0 6.239-2.012 13.483-16.904 13.483h-28.173V82.307zM432.663 66.006V.604h-25.96v145.093h25.96v-43.87l20.727-23.344 37.028 67.214H520l-49.102-87.942L517.183.604h-31.394z"/><path fill="#7ac79b" d="M134.427 0H0v134.427z"/><path fill="#007c89" d="M11.27 145.697h134.427V11.269z"/></svg>