<?xml version="1.0" encoding="UTF-8" standalone="no"?>
<svg
   xmlns:dc="http://purl.org/dc/elements/1.1/"
   xmlns:cc="http://creativecommons.org/ns#"
   xmlns:rdf="http://www.w3.org/1999/02/22-rdf-syntax-ns#"
   xmlns:svg="http://www.w3.org/2000/svg"
   xmlns="http://www.w3.org/2000/svg"
   height="145.69659"
   width="520"
   xml:space="preserve"
   enable-background="new 0 0 258.4 72.4"
   viewBox="0 0 520.00001 145.69659"
   y="0px"
   x="0px"
   id="Layer_1"
   version="1.1"><metadata
     id="metadata19"><rdf:RDF><cc:Work
         rdf:about=""><dc:format>image/svg+xml</dc:format><dc:type
           rdf:resource="http://purl.org/dc/dcmitype/StillImage" /><dc:title></dc:title></cc:Work></rdf:RDF></metadata><defs
     id="defs17" /><g
     transform="scale(2.0123839)"
     id="g12"><path
       id="path2"
       d="M 117.3,0.3 H 89.1 v 72.1 h 13.1 v -25 h 14.9 c 13.2,0 20.7,-7.3 20.7,-20.1 V 19.6 C 137.8,7 130.7,0.3 117.3,0.3 Z m -15.1,11.9 h 14 c 7.4,0 8.4,3.6 8.4,6.7 v 7.9 c 0,6 -2.3,8.7 -7.5,8.7 H 102.3 V 12.2 Z" /><path
       id="path4"
       d="M 173.9,29 H 159 V 12.2 h 32.1 V 0.3 h -45.3 v 72.1 h 28.3 c 13.4,0 20.5,-6.7 20.5,-19.3 v -4 C 194.6,36.3 187.1,29 173.9,29 Z M 159,40.9 h 14.8 c 5.2,0 7.5,2.7 7.5,8.7 v 4.2 c 0,3.1 -1,6.7 -8.4,6.7 h -14 V 40.9 Z" /><polygon
       id="polygon6"
       points="215,32.8 215,0.3 202.1,0.3 202.1,72.4 215,72.4 215,50.6 225.3,39 243.7,72.4 258.4,72.4 234,28.7 257,0.3 241.4,0.3 " /><polygon
       style="fill:#7ac79b"
       id="polygon8"
       points="66.8,0 0,0 0,66.8 " /><polygon
       style="fill:#007c89"
       id="polygon10"
       points="5.6,72.4 72.4,72.4 72.4,5.6 " /></g></svg>