<?xml version="1.0" encoding="UTF-8" standalone="no"?>
<svg
   xmlns:dc="http://purl.org/dc/elements/1.1/"
   xmlns:cc="http://creativecommons.org/ns#"
   xmlns:rdf="http://www.w3.org/1999/02/22-rdf-syntax-ns#"
   xmlns:svg="http://www.w3.org/2000/svg"
   xmlns="http://www.w3.org/2000/svg"
   height="61.556183"
   width="502"
   xml:space="preserve"
   viewBox="0 0 502 61.556181"
   y="0px"
   x="0px"
   id="Слой_1"
   version="1.1"><metadata
     id="metadata73"><rdf:RDF><cc:Work
         rdf:about=""><dc:format>image/svg+xml</dc:format><dc:type
           rdf:resource="http://purl.org/dc/dcmitype/StillImage" /><dc:title>logo line blue</dc:title></cc:Work></rdf:RDF></metadata><defs
     id="defs71" /><style
     id="style2"
     type="text/css">
	.st0{fill:#132251;stroke:#FFFFFF;stroke-width:6.8;stroke-miterlimit:10;}
	.st1{fill:#132251;stroke:#FFFFFF;stroke-width:6.87;stroke-miterlimit:10;}
	.st2{enable-background:new    ;}
	.st3{fill:#FFFFFF;}
	.st4{fill:none;stroke:#FFFFFF;stroke-width:4.54;stroke-miterlimit:10;}
</style><title
     id="title4">logo line blue</title><path
     style="fill:#132251;stroke:none;stroke-width:3.6984663;stroke-miterlimit:10"
     id="path6"
     d="m 5.949418,1 h 49.602959 c 2.71946,0 4.949418,2.229958 4.949418,4.949418 v 0 49.602956 c 0,2.71946 -2.229958,4.94942 -4.949418,4.94942 v 0 H 5.949418 C 3.2299576,60.501794 1,58.271834 1,55.552374 v 0 V 5.949418 C 1,3.229958 3.2299576,1 5.949418,1 Z"
     class="st0" /><path
     style="fill:#132251;stroke:none;stroke-width:3.73653865;stroke-miterlimit:10"
     id="path8"
     d="M 73.500816,1 H 495.99619 C 498.77004,1 501,3.229958 501,6.003807 v 49.548567 c 0,2.77385 -2.22996,5.00381 -5.00381,5.00381 H 73.500816 c -2.77385,0 -5.003807,-2.22996 -5.003807,-5.00381 V 6.003807 C 68.497009,3.229958 70.726966,1 73.500816,1 Z"
     class="st1" /><g
     style="enable-background:new"
     transform="matrix(0.54389209,0,0,0.54389209,-1.9370173,-1.937017)"
     id="g36"
     class="st2"><path
       style="fill:#ffffff"
       id="path10"
       d="M 145.5,80.7 V 39.2 h 33.8 c 3.7,0 6.6,1.1 8.6,3.3 2.1,2.2 3.1,5.5 3.1,10 0,4.5 -1.1,7.8 -3.2,9.9 -2.1,2.2 -5.1,3.3 -8.8,3.3 h -27.4 v 15 z m 6.2,-20.6 H 179 c 1.8,0 3.2,-0.6 4.2,-1.8 1,-1.2 1.6,-3.2 1.6,-5.8 0,-2.6 -0.5,-4.6 -1.5,-5.8 -1,-1.2 -2.5,-1.9 -4.3,-1.9 h -27.3 z"
       class="st3" /><path
       style="fill:#ffffff"
       id="path12"
       d="m 225.7,81.3 c -8.6,0 -14.6,-0.6 -18,-1.7 -3.4,-1.1 -5.6,-3.2 -6.5,-6.3 -0.6,-2.1 -1,-6.6 -1,-13.3 0,-6.8 0.3,-11.2 0.9,-13.3 0.9,-3.1 3.1,-5.3 6.6,-6.4 3.5,-1.1 9.5,-1.7 18,-1.7 8.6,0 14.6,0.6 18,1.7 3.4,1.1 5.6,3.2 6.6,6.4 0.6,2.1 1,6.6 1,13.3 0,6.8 -0.3,11.2 -0.9,13.2 -0.9,3.1 -3.1,5.3 -6.5,6.4 -3.5,1.1 -9.5,1.7 -18.2,1.7 z m 0,-5.6 c 9.5,0 15.1,-0.7 16.8,-2.1 1.7,-1.4 2.5,-5.9 2.5,-13.6 0,-7.7 -0.8,-12.2 -2.5,-13.7 -1.7,-1.4 -7.3,-2.1 -16.9,-2.1 -9.6,0 -15.2,0.7 -16.9,2.1 -1.7,1.4 -2.5,6 -2.5,13.7 0,7.6 0.8,12.1 2.5,13.6 1.9,1.4 7.5,2.1 17,2.1 z"
       class="st3" /><path
       style="fill:#ffffff"
       id="path14"
       d="m 266.1,60 c 0,7.6 0.8,12.1 2.4,13.5 1.6,1.5 6.6,2.2 14.9,2.2 7.7,0 12.4,-0.4 14.1,-1.3 2,-1 3,-3.7 3,-8.2 h 6.2 c 0,6.6 -1.4,10.7 -4.1,12.4 -2.7,1.7 -9.1,2.6 -19.1,2.6 -10.2,0 -16.7,-1.2 -19.4,-3.6 -2.7,-2.4 -4.1,-8.3 -4.1,-17.6 0,-9.4 1.3,-15.3 4,-17.7 2.7,-2.4 9.1,-3.6 19.4,-3.6 10.1,0 16.5,0.8 19.2,2.5 2.7,1.7 4.1,5.8 4.1,12.4 h -6.2 c 0,-4.4 -0.9,-7.1 -2.7,-8 -1.8,-0.9 -6.6,-1.4 -14.3,-1.4 -8.3,0 -13.3,0.7 -14.9,2.2 -1.7,1.4 -2.5,5.9 -2.5,13.6 z"
       class="st3" /><path
       style="fill:#ffffff"
       id="path16"
       d="M 316,80.7 V 39.2 h 6.2 V 56 h 6.2 L 353.5,39.2 H 364 l -29.1,19.6 30.9,21.9 H 355.6 L 328.2,61.6 H 322 v 19.1 z"
       class="st3" /><path
       style="fill:#ffffff"
       id="path18"
       d="m 398.5,81.3 c -8.6,0 -14.6,-0.6 -18,-1.7 -3.4,-1.1 -5.6,-3.2 -6.5,-6.3 -0.6,-2.1 -1,-6.6 -1,-13.3 0,-6.8 0.3,-11.2 0.9,-13.3 0.9,-3.1 3.1,-5.3 6.6,-6.4 3.5,-1.1 9.5,-1.7 18,-1.7 8.6,0 14.6,0.6 18,1.7 3.4,1.1 5.6,3.2 6.6,6.4 0.6,2.1 1,6.6 1,13.3 0,6.8 -0.3,11.2 -0.9,13.2 -0.9,3.1 -3.1,5.3 -6.5,6.4 -3.5,1.1 -9.6,1.7 -18.2,1.7 z m 0,-5.6 c 9.5,0 15.1,-0.7 16.8,-2.1 1.7,-1.4 2.5,-5.9 2.5,-13.6 0,-7.7 -0.8,-12.2 -2.5,-13.7 -1.7,-1.4 -7.3,-2.1 -16.9,-2.1 -9.6,0 -15.2,0.7 -16.9,2.1 -1.7,1.4 -2.5,6 -2.5,13.7 0,7.6 0.8,12.1 2.5,13.6 1.9,1.4 7.5,2.1 17,2.1 z"
       class="st3" /><path
       style="fill:#ffffff"
       id="path20"
       d="m 445.5,39.2 21.4,34.1 21.4,-34.1 h 11 v 41.5 h -6.2 v -36 H 492 L 468.8,80.6 H 465 L 441.8,44.7 h -1.1 v 35.9 h -6.2 V 39.2 Z"
       class="st3" /><path
       style="fill:#ffffff"
       id="path22"
       d="m 516.9,60 c 0,7.6 0.8,12.1 2.4,13.5 1.6,1.5 6.6,2.2 14.9,2.2 7.7,0 12.4,-0.4 14.1,-1.3 2,-1 3,-3.7 3,-8.2 h 6.2 c 0,6.6 -1.4,10.7 -4.1,12.4 -2.7,1.7 -9.1,2.6 -19.1,2.6 -10.2,0 -16.7,-1.2 -19.4,-3.6 -2.7,-2.4 -4.1,-8.3 -4.1,-17.6 0,-9.4 1.3,-15.3 4,-17.7 2.7,-2.4 9.1,-3.6 19.4,-3.6 10.1,0 16.5,0.8 19.2,2.5 2.7,1.7 4.1,5.8 4.1,12.4 h -6.2 c 0,-4.4 -0.9,-7.1 -2.7,-8 -1.8,-0.9 -6.6,-1.4 -14.3,-1.4 -8.3,0 -13.3,0.7 -14.9,2.2 -1.6,1.5 -2.5,5.9 -2.5,13.6 z"
       class="st3" /><path
       style="fill:#ffffff"
       id="path24"
       d="m 611.9,68.5 c 0,4.1 -1.1,7.1 -3.4,9.1 -2.2,2 -5.5,3 -9.8,3 H 565.5 V 39.2 h 31.8 c 4.2,0 7.5,1 9.8,3 2.3,2 3.4,4.9 3.4,8.7 0,4.2 -1.6,6.8 -4.7,8 1.8,0.6 3.2,1.6 4.2,3 1.3,1.8 1.9,4 1.9,6.6 z m -7.7,-17.6 c 0,-1.9 -0.5,-3.4 -1.5,-4.4 -1.2,-1.2 -3,-1.8 -5.6,-1.8 h -25.6 v 11.8 h 25.6 c 2.6,0 4.4,-0.5 5.5,-1.4 1.1,-0.9 1.6,-2.2 1.6,-4.2 z m -32.6,11.2 v 13 h 27 c 2.3,0 4.1,-0.6 5.3,-1.8 1.2,-1.2 1.8,-2.8 1.8,-4.7 0,-1.9 -0.6,-3.5 -1.8,-4.7 -1.2,-1.2 -3,-1.8 -5.3,-1.8 z"
       class="st3" /><path
       style="fill:#ffffff"
       id="path26"
       d="m 647.1,81.3 c -8.6,0 -14.6,-0.6 -18,-1.7 -3.4,-1.1 -5.6,-3.2 -6.5,-6.3 -0.6,-2.1 -1,-6.6 -1,-13.3 0,-6.8 0.3,-11.2 0.9,-13.3 0.9,-3.1 3.1,-5.3 6.6,-6.4 3.5,-1.1 9.5,-1.7 18,-1.7 8.6,0 14.6,0.6 18,1.7 3.4,1.1 5.6,3.2 6.6,6.4 0.6,2.1 1,6.6 1,13.3 0,6.8 -0.3,11.2 -0.9,13.2 -0.9,3.1 -3.1,5.3 -6.5,6.4 -3.5,1.1 -9.6,1.7 -18.2,1.7 z m 0,-5.6 c 9.5,0 15.1,-0.7 16.8,-2.1 1.7,-1.4 2.5,-5.9 2.5,-13.6 0,-7.7 -0.8,-12.2 -2.5,-13.7 -1.7,-1.4 -7.3,-2.1 -16.9,-2.1 -9.6,0 -15.2,0.7 -16.9,2.1 -1.7,1.4 -2.5,6 -2.5,13.7 0,7.6 0.8,12.1 2.5,13.6 1.9,1.4 7.5,2.1 17,2.1 z"
       class="st3" /><path
       style="fill:#ffffff"
       id="path28"
       d="m 682,39.2 h 42.3 v 5.6 h -36.1 v 11.8 h 27.4 c 3.9,0 6.9,0.8 9,2.4 2.6,2 3.9,5.2 3.9,9.6 0,4.4 -1.3,7.7 -3.9,9.6 -2.1,1.6 -5.1,2.4 -9,2.4 H 682 Z m 40.3,29.4 c 0,-2.1 -0.6,-3.7 -1.9,-4.8 -1.3,-1.1 -2.9,-1.7 -4.8,-1.7 h -27.3 v 13 h 27.3 c 1.9,0 3.6,-0.6 4.9,-1.7 1.2,-1.1 1.8,-2.7 1.8,-4.8 z"
       class="st3" /><path
       style="fill:#ffffff"
       id="path30"
       d="m 763,81.3 c -8.6,0 -14.6,-0.6 -18,-1.7 -3.4,-1.1 -5.6,-3.2 -6.5,-6.3 -0.6,-2.1 -1,-6.6 -1,-13.3 0,-6.8 0.3,-11.2 0.9,-13.3 0.9,-3.1 3.1,-5.3 6.6,-6.4 3.5,-1.1 9.5,-1.7 18,-1.7 8.6,0 14.6,0.6 18,1.7 3.4,1.1 5.6,3.2 6.6,6.4 0.6,2.1 1,6.6 1,13.3 0,6.8 -0.3,11.2 -0.9,13.2 -0.9,3.1 -3.1,5.3 -6.5,6.4 -3.5,1.1 -9.6,1.7 -18.2,1.7 z m 0,-5.6 c 9.5,0 15.1,-0.7 16.8,-2.1 1.7,-1.4 2.5,-5.9 2.5,-13.6 0,-7.7 -0.8,-12.2 -2.5,-13.7 -1.7,-1.4 -7.3,-2.1 -16.9,-2.1 -9.6,0 -15.2,0.7 -16.9,2.1 -1.7,1.4 -2.5,6 -2.5,13.7 0,7.6 0.8,12.1 2.5,13.6 1.9,1.4 7.5,2.1 17,2.1 z"
       class="st3" /><path
       style="fill:#ffffff"
       id="path32"
       d="M 803.6,53.1 V 39.3 h 41.7 v 35.8 h 3 v 15.6 h -5.7 v -10 h -39.3 v 10 h -5.7 V 75.1 h 3 c 0.8,-2.7 1.5,-6.3 2.1,-11 0.6,-4.7 0.9,-8.3 0.9,-11 z m 35.5,-8.2 h -29.4 v 8.2 c 0,3.1 -0.2,6.9 -0.7,11.2 -0.5,4.3 -1.1,7.9 -1.9,10.8 h 32 z"
       class="st3" /><path
       style="fill:#ffffff"
       id="path34"
       d="m 885.4,39.2 21.8,41.5 h -7 l -4.9,-9.2 h -29.6 l -4.8,9.2 h -7 l 21.8,-41.5 z m 7.3,26.7 -11.3,-21.7 h -1.6 l -11.3,21.7 z"
       class="st3" /></g><g
     style="enable-background:new"
     transform="matrix(0.54389209,0,0,0.54389209,-1.9333652,-1.937017)"
     id="g64"
     class="st2"><path
       style="fill:none;stroke:#ffffff;stroke-width:4.53999996;stroke-miterlimit:10"
       id="path38"
       d="M 145.5,80.7 V 39.2 h 33.8 c 3.7,0 6.6,1.1 8.6,3.3 2.1,2.2 3.1,5.5 3.1,10 0,4.5 -1.1,7.8 -3.2,9.9 -2.1,2.2 -5.1,3.3 -8.8,3.3 h -27.4 v 15 z m 6.2,-20.6 H 179 c 1.8,0 3.2,-0.6 4.2,-1.8 1,-1.2 1.6,-3.2 1.6,-5.8 0,-2.6 -0.5,-4.6 -1.5,-5.8 -1,-1.2 -2.5,-1.9 -4.3,-1.9 h -27.3 z"
       class="st4" /><path
       style="fill:none;stroke:#ffffff;stroke-width:4.53999996;stroke-miterlimit:10"
       id="path40"
       d="m 225.7,81.3 c -8.6,0 -14.6,-0.6 -18,-1.7 -3.4,-1.1 -5.6,-3.2 -6.5,-6.3 -0.6,-2.1 -1,-6.6 -1,-13.3 0,-6.8 0.3,-11.2 0.9,-13.3 0.9,-3.1 3.1,-5.3 6.6,-6.4 3.5,-1.1 9.5,-1.7 18,-1.7 8.6,0 14.6,0.6 18,1.7 3.4,1.1 5.6,3.2 6.6,6.4 0.6,2.1 1,6.6 1,13.3 0,6.8 -0.3,11.2 -0.9,13.2 -0.9,3.1 -3.1,5.3 -6.5,6.4 -3.5,1.1 -9.5,1.7 -18.2,1.7 z m 0,-5.6 c 9.5,0 15.1,-0.7 16.8,-2.1 1.7,-1.4 2.5,-5.9 2.5,-13.6 0,-7.7 -0.8,-12.2 -2.5,-13.7 -1.7,-1.4 -7.3,-2.1 -16.9,-2.1 -9.6,0 -15.2,0.7 -16.9,2.1 -1.7,1.4 -2.5,6 -2.5,13.7 0,7.6 0.8,12.1 2.5,13.6 1.9,1.4 7.5,2.1 17,2.1 z"
       class="st4" /><path
       style="fill:none;stroke:#ffffff;stroke-width:4.53999996;stroke-miterlimit:10"
       id="path42"
       d="m 266.1,60 c 0,7.6 0.8,12.1 2.4,13.5 1.6,1.5 6.6,2.2 14.9,2.2 7.7,0 12.4,-0.4 14.1,-1.3 2,-1 3,-3.7 3,-8.2 h 6.2 c 0,6.6 -1.4,10.7 -4.1,12.4 -2.7,1.7 -9.1,2.6 -19.1,2.6 -10.2,0 -16.7,-1.2 -19.4,-3.6 -2.7,-2.4 -4.1,-8.3 -4.1,-17.6 0,-9.4 1.3,-15.3 4,-17.7 2.7,-2.4 9.1,-3.6 19.4,-3.6 10.1,0 16.5,0.8 19.2,2.5 2.7,1.7 4.1,5.8 4.1,12.4 h -6.2 c 0,-4.4 -0.9,-7.1 -2.7,-8 -1.8,-0.9 -6.6,-1.4 -14.3,-1.4 -8.3,0 -13.3,0.7 -14.9,2.2 -1.7,1.4 -2.5,5.9 -2.5,13.6 z"
       class="st4" /><path
       style="fill:none;stroke:#ffffff;stroke-width:4.53999996;stroke-miterlimit:10"
       id="path44"
       d="M 316,80.7 V 39.2 h 6.2 V 56 h 6.2 L 353.5,39.2 H 364 l -29.1,19.6 30.9,21.9 H 355.6 L 328.2,61.6 H 322 v 19.1 z"
       class="st4" /><path
       style="fill:none;stroke:#ffffff;stroke-width:4.53999996;stroke-miterlimit:10"
       id="path46"
       d="m 398.5,81.3 c -8.6,0 -14.6,-0.6 -18,-1.7 -3.4,-1.1 -5.6,-3.2 -6.5,-6.3 -0.6,-2.1 -1,-6.6 -1,-13.3 0,-6.8 0.3,-11.2 0.9,-13.3 0.9,-3.1 3.1,-5.3 6.6,-6.4 3.5,-1.1 9.5,-1.7 18,-1.7 8.6,0 14.6,0.6 18,1.7 3.4,1.1 5.6,3.2 6.6,6.4 0.6,2.1 1,6.6 1,13.3 0,6.8 -0.3,11.2 -0.9,13.2 -0.9,3.1 -3.1,5.3 -6.5,6.4 -3.5,1.1 -9.6,1.7 -18.2,1.7 z m 0,-5.6 c 9.5,0 15.1,-0.7 16.8,-2.1 1.7,-1.4 2.5,-5.9 2.5,-13.6 0,-7.7 -0.8,-12.2 -2.5,-13.7 -1.7,-1.4 -7.3,-2.1 -16.9,-2.1 -9.6,0 -15.2,0.7 -16.9,2.1 -1.7,1.4 -2.5,6 -2.5,13.7 0,7.6 0.8,12.1 2.5,13.6 1.9,1.4 7.5,2.1 17,2.1 z"
       class="st4" /><path
       style="fill:none;stroke:#ffffff;stroke-width:4.53999996;stroke-miterlimit:10"
       id="path48"
       d="m 445.5,39.2 21.4,34.1 21.4,-34.1 h 11 v 41.5 h -6.2 v -36 H 492 L 468.8,80.6 H 465 L 441.8,44.7 h -1.1 v 35.9 h -6.2 V 39.2 Z"
       class="st4" /><path
       style="fill:none;stroke:#ffffff;stroke-width:4.53999996;stroke-miterlimit:10"
       id="path50"
       d="m 516.9,60 c 0,7.6 0.8,12.1 2.4,13.5 1.6,1.5 6.6,2.2 14.9,2.2 7.7,0 12.4,-0.4 14.1,-1.3 2,-1 3,-3.7 3,-8.2 h 6.2 c 0,6.6 -1.4,10.7 -4.1,12.4 -2.7,1.7 -9.1,2.6 -19.1,2.6 -10.2,0 -16.7,-1.2 -19.4,-3.6 -2.7,-2.4 -4.1,-8.3 -4.1,-17.6 0,-9.4 1.3,-15.3 4,-17.7 2.7,-2.4 9.1,-3.6 19.4,-3.6 10.1,0 16.5,0.8 19.2,2.5 2.7,1.7 4.1,5.8 4.1,12.4 h -6.2 c 0,-4.4 -0.9,-7.1 -2.7,-8 -1.8,-0.9 -6.6,-1.4 -14.3,-1.4 -8.3,0 -13.3,0.7 -14.9,2.2 -1.6,1.5 -2.5,5.9 -2.5,13.6 z"
       class="st4" /><path
       style="fill:none;stroke:#ffffff;stroke-width:4.53999996;stroke-miterlimit:10"
       id="path52"
       d="m 611.9,68.5 c 0,4.1 -1.1,7.1 -3.4,9.1 -2.2,2 -5.5,3 -9.8,3 H 565.5 V 39.2 h 31.8 c 4.2,0 7.5,1 9.8,3 2.3,2 3.4,4.9 3.4,8.7 0,4.2 -1.6,6.8 -4.7,8 1.8,0.6 3.2,1.6 4.2,3 1.3,1.8 1.9,4 1.9,6.6 z m -7.7,-17.6 c 0,-1.9 -0.5,-3.4 -1.5,-4.4 -1.2,-1.2 -3,-1.8 -5.6,-1.8 h -25.6 v 11.8 h 25.6 c 2.6,0 4.4,-0.5 5.5,-1.4 1.1,-0.9 1.6,-2.2 1.6,-4.2 z m -32.6,11.2 v 13 h 27 c 2.3,0 4.1,-0.6 5.3,-1.8 1.2,-1.2 1.8,-2.8 1.8,-4.7 0,-1.9 -0.6,-3.5 -1.8,-4.7 -1.2,-1.2 -3,-1.8 -5.3,-1.8 z"
       class="st4" /><path
       style="fill:none;stroke:#ffffff;stroke-width:4.53999996;stroke-miterlimit:10"
       id="path54"
       d="m 647.1,81.3 c -8.6,0 -14.6,-0.6 -18,-1.7 -3.4,-1.1 -5.6,-3.2 -6.5,-6.3 -0.6,-2.1 -1,-6.6 -1,-13.3 0,-6.8 0.3,-11.2 0.9,-13.3 0.9,-3.1 3.1,-5.3 6.6,-6.4 3.5,-1.1 9.5,-1.7 18,-1.7 8.6,0 14.6,0.6 18,1.7 3.4,1.1 5.6,3.2 6.6,6.4 0.6,2.1 1,6.6 1,13.3 0,6.8 -0.3,11.2 -0.9,13.2 -0.9,3.1 -3.1,5.3 -6.5,6.4 -3.5,1.1 -9.6,1.7 -18.2,1.7 z m 0,-5.6 c 9.5,0 15.1,-0.7 16.8,-2.1 1.7,-1.4 2.5,-5.9 2.5,-13.6 0,-7.7 -0.8,-12.2 -2.5,-13.7 -1.7,-1.4 -7.3,-2.1 -16.9,-2.1 -9.6,0 -15.2,0.7 -16.9,2.1 -1.7,1.4 -2.5,6 -2.5,13.7 0,7.6 0.8,12.1 2.5,13.6 1.9,1.4 7.5,2.1 17,2.1 z"
       class="st4" /><path
       style="fill:none;stroke:#ffffff;stroke-width:4.53999996;stroke-miterlimit:10"
       id="path56"
       d="m 682,39.2 h 42.3 v 5.6 h -36.1 v 11.8 h 27.4 c 3.9,0 6.9,0.8 9,2.4 2.6,2 3.9,5.2 3.9,9.6 0,4.4 -1.3,7.7 -3.9,9.6 -2.1,1.6 -5.1,2.4 -9,2.4 H 682 Z m 40.3,29.4 c 0,-2.1 -0.6,-3.7 -1.9,-4.8 -1.3,-1.1 -2.9,-1.7 -4.8,-1.7 h -27.3 v 13 h 27.3 c 1.9,0 3.6,-0.6 4.9,-1.7 1.2,-1.1 1.8,-2.7 1.8,-4.8 z"
       class="st4" /><path
       style="fill:none;stroke:#ffffff;stroke-width:4.53999996;stroke-miterlimit:10"
       id="path58"
       d="m 763,81.3 c -8.6,0 -14.6,-0.6 -18,-1.7 -3.4,-1.1 -5.6,-3.2 -6.5,-6.3 -0.6,-2.1 -1,-6.6 -1,-13.3 0,-6.8 0.3,-11.2 0.9,-13.3 0.9,-3.1 3.1,-5.3 6.6,-6.4 3.5,-1.1 9.5,-1.7 18,-1.7 8.6,0 14.6,0.6 18,1.7 3.4,1.1 5.6,3.2 6.6,6.4 0.6,2.1 1,6.6 1,13.3 0,6.8 -0.3,11.2 -0.9,13.2 -0.9,3.1 -3.1,5.3 -6.5,6.4 -3.5,1.1 -9.6,1.7 -18.2,1.7 z m 0,-5.6 c 9.5,0 15.1,-0.7 16.8,-2.1 1.7,-1.4 2.5,-5.9 2.5,-13.6 0,-7.7 -0.8,-12.2 -2.5,-13.7 -1.7,-1.4 -7.3,-2.1 -16.9,-2.1 -9.6,0 -15.2,0.7 -16.9,2.1 -1.7,1.4 -2.5,6 -2.5,13.7 0,7.6 0.8,12.1 2.5,13.6 1.9,1.4 7.5,2.1 17,2.1 z"
       class="st4" /><path
       style="fill:none;stroke:#ffffff;stroke-width:4.53999996;stroke-miterlimit:10"
       id="path60"
       d="M 803.6,53.1 V 39.3 h 41.7 v 35.8 h 3 v 15.6 h -5.7 v -10 h -39.3 v 10 h -5.7 V 75.1 h 3 c 0.8,-2.7 1.5,-6.3 2.1,-11 0.6,-4.7 0.9,-8.3 0.9,-11 z m 35.5,-8.2 h -29.4 v 8.2 c 0,3.1 -0.2,6.9 -0.7,11.2 -0.5,4.3 -1.1,7.9 -1.9,10.8 h 32 z"
       class="st4" /><path
       style="fill:none;stroke:#ffffff;stroke-width:4.53999996;stroke-miterlimit:10"
       id="path62"
       d="m 885.4,39.2 21.8,41.5 h -7 l -4.9,-9.2 h -29.6 l -4.8,9.2 h -7 l 21.8,-41.5 z m 7.3,26.7 -11.3,-21.7 h -1.6 l -11.3,21.7 z"
       class="st4" /></g><path
     style="fill:#ffffff;stroke-width:0.54389209"
     id="path66"
     d="m 41.356793,17.806266 c 0,-5.874035 -4.731861,-10.605896 -10.605896,-10.605896 -5.874034,0 -10.605895,4.731861 -10.605895,10.605896 0,4.623082 2.991406,8.756662 7.451321,10.116392 L 21.015229,54.355814 H 40.540955 L 33.905472,27.922658 c 4.459915,-1.414119 7.451321,-5.49331 7.451321,-10.116392 z"
     class="st3" /></svg>