<?xml version="1.0" encoding="utf-8"?>
<!-- Generator: Adobe Illustrator 20.1.0, SVG Export Plug-In . SVG Version: 6.00 Build 0)  -->
<svg version="1.1" id="Слой_1" xmlns="http://www.w3.org/2000/svg" xmlns:xlink="http://www.w3.org/1999/xlink" x="0px" y="0px"
	 viewBox="0 0 930 120.3" style="enable-background:new 0 0 930 120.3;" xml:space="preserve">
<style type="text/css">
	.st0{fill:#132251;stroke:#FFFFFF;stroke-width:6.8;stroke-miterlimit:10;}
	.st1{fill:#132251;stroke:#FFFFFF;stroke-width:6.87;stroke-miterlimit:10;}
	.st2{enable-background:new    ;}
	.st3{fill:#FFFFFF;}
	.st4{fill:none;stroke:#FFFFFF;stroke-width:4.54;stroke-miterlimit:10;}
</style>
<title>logo line blue</title>
<path class="st0" d="M12.5,3.4h95.2c5,0,9.1,4.1,9.1,9.1v0v95.2c0,5-4.1,9.1-9.1,9.1l0,0H12.5c-5,0-9.1-4.1-9.1-9.1c0,0,0,0,0,0
	V12.5C3.4,7.5,7.5,3.4,12.5,3.4L12.5,3.4z"/>
<path class="st1" d="M136.7,3.4h780.8c5.1,0,9.2,4.1,9.2,9.2v95.1c0,5.1-4.1,9.2-9.2,9.2H136.7c-5.1,0-9.2-4.1-9.2-9.2V12.6
	C127.5,7.5,131.6,3.4,136.7,3.4z"/>
<g class="st2">
	<path class="st3" d="M145.5,80.7V39.2h33.8c3.7,0,6.6,1.1,8.6,3.3c2.1,2.2,3.1,5.5,3.1,10c0,4.5-1.1,7.8-3.2,9.9
		c-2.1,2.2-5.1,3.3-8.8,3.3h-27.4v15H145.5z M151.7,60.1H179c1.8,0,3.2-0.6,4.2-1.8c1-1.2,1.6-3.2,1.6-5.8s-0.5-4.6-1.5-5.8
		c-1-1.2-2.5-1.9-4.3-1.9h-27.3V60.1z"/>
	<path class="st3" d="M225.7,81.3c-8.6,0-14.6-0.6-18-1.7c-3.4-1.1-5.6-3.2-6.5-6.3c-0.6-2.1-1-6.6-1-13.3c0-6.8,0.3-11.2,0.9-13.3
		c0.9-3.1,3.1-5.3,6.6-6.4c3.5-1.1,9.5-1.7,18-1.7c8.6,0,14.6,0.6,18,1.7c3.4,1.1,5.6,3.2,6.6,6.4c0.6,2.1,1,6.6,1,13.3
		c0,6.8-0.3,11.2-0.9,13.2c-0.9,3.1-3.1,5.3-6.5,6.4C240.4,80.7,234.4,81.3,225.7,81.3z M225.7,75.7c9.5,0,15.1-0.7,16.8-2.1
		c1.7-1.4,2.5-5.9,2.5-13.6c0-7.7-0.8-12.2-2.5-13.7c-1.7-1.4-7.3-2.1-16.9-2.1s-15.2,0.7-16.9,2.1c-1.7,1.4-2.5,6-2.5,13.7
		c0,7.6,0.8,12.1,2.5,13.6C210.6,75,216.2,75.7,225.7,75.7z"/>
	<path class="st3" d="M266.1,60c0,7.6,0.8,12.1,2.4,13.5c1.6,1.5,6.6,2.2,14.9,2.2c7.7,0,12.4-0.4,14.1-1.3c2-1,3-3.7,3-8.2h6.2
		c0,6.6-1.4,10.7-4.1,12.4c-2.7,1.7-9.1,2.6-19.1,2.6c-10.2,0-16.7-1.2-19.4-3.6c-2.7-2.4-4.1-8.3-4.1-17.6c0-9.4,1.3-15.3,4-17.7
		c2.7-2.4,9.1-3.6,19.4-3.6c10.1,0,16.5,0.8,19.2,2.5c2.7,1.7,4.1,5.8,4.1,12.4h-6.2c0-4.4-0.9-7.1-2.7-8c-1.8-0.9-6.6-1.4-14.3-1.4
		c-8.3,0-13.3,0.7-14.9,2.2C266.9,47.8,266.1,52.3,266.1,60z"/>
	<path class="st3" d="M316,80.7V39.2h6.2V56h6.2l25.1-16.8H364l-29.1,19.6l30.9,21.9h-10.2l-27.4-19.1h-6.2v19.1H316z"/>
	<path class="st3" d="M398.5,81.3c-8.6,0-14.6-0.6-18-1.7c-3.4-1.1-5.6-3.2-6.5-6.3c-0.6-2.1-1-6.6-1-13.3c0-6.8,0.3-11.2,0.9-13.3
		c0.9-3.1,3.1-5.3,6.6-6.4c3.5-1.1,9.5-1.7,18-1.7c8.6,0,14.6,0.6,18,1.7c3.4,1.1,5.6,3.2,6.6,6.4c0.6,2.1,1,6.6,1,13.3
		c0,6.8-0.3,11.2-0.9,13.2c-0.9,3.1-3.1,5.3-6.5,6.4C413.2,80.7,407.1,81.3,398.5,81.3z M398.5,75.7c9.5,0,15.1-0.7,16.8-2.1
		c1.7-1.4,2.5-5.9,2.5-13.6c0-7.7-0.8-12.2-2.5-13.7c-1.7-1.4-7.3-2.1-16.9-2.1s-15.2,0.7-16.9,2.1c-1.7,1.4-2.5,6-2.5,13.7
		c0,7.6,0.8,12.1,2.5,13.6C383.4,75,389,75.7,398.5,75.7z"/>
	<path class="st3" d="M445.5,39.2l21.4,34.1l21.4-34.1h11v41.5h-6.2V44.7H492l-23.2,35.9H465l-23.2-35.9h-1.1v35.9h-6.2V39.2H445.5z
		"/>
	<path class="st3" d="M516.9,60c0,7.6,0.8,12.1,2.4,13.5c1.6,1.5,6.6,2.2,14.9,2.2c7.7,0,12.4-0.4,14.1-1.3c2-1,3-3.7,3-8.2h6.2
		c0,6.6-1.4,10.7-4.1,12.4c-2.7,1.7-9.1,2.6-19.1,2.6c-10.2,0-16.7-1.2-19.4-3.6c-2.7-2.4-4.1-8.3-4.1-17.6c0-9.4,1.3-15.3,4-17.7
		c2.7-2.4,9.1-3.6,19.4-3.6c10.1,0,16.5,0.8,19.2,2.5c2.7,1.7,4.1,5.8,4.1,12.4h-6.2c0-4.4-0.9-7.1-2.7-8s-6.6-1.4-14.3-1.4
		c-8.3,0-13.3,0.7-14.9,2.2S516.9,52.3,516.9,60z"/>
	<path class="st3" d="M611.9,68.5c0,4.1-1.1,7.1-3.4,9.1c-2.2,2-5.5,3-9.8,3h-33.2V39.2h31.8c4.2,0,7.5,1,9.8,3
		c2.3,2,3.4,4.9,3.4,8.7c0,4.2-1.6,6.8-4.7,8c1.8,0.6,3.2,1.6,4.2,3C611.3,63.7,611.9,65.9,611.9,68.5z M604.2,50.9
		c0-1.9-0.5-3.4-1.5-4.4c-1.2-1.2-3-1.8-5.6-1.8h-25.6v11.8h25.6c2.6,0,4.4-0.5,5.5-1.4S604.2,52.9,604.2,50.9z M571.6,62.1v13h27
		c2.3,0,4.1-0.6,5.3-1.8c1.2-1.2,1.8-2.8,1.8-4.7c0-1.9-0.6-3.5-1.8-4.7c-1.2-1.2-3-1.8-5.3-1.8H571.6z"/>
	<path class="st3" d="M647.1,81.3c-8.6,0-14.6-0.6-18-1.7c-3.4-1.1-5.6-3.2-6.5-6.3c-0.6-2.1-1-6.6-1-13.3c0-6.8,0.3-11.2,0.9-13.3
		c0.9-3.1,3.1-5.3,6.6-6.4c3.5-1.1,9.5-1.7,18-1.7c8.6,0,14.6,0.6,18,1.7c3.4,1.1,5.6,3.2,6.6,6.4c0.6,2.1,1,6.6,1,13.3
		c0,6.8-0.3,11.2-0.9,13.2c-0.9,3.1-3.1,5.3-6.5,6.4C661.8,80.7,655.7,81.3,647.1,81.3z M647.1,75.7c9.5,0,15.1-0.7,16.8-2.1
		c1.7-1.4,2.5-5.9,2.5-13.6c0-7.7-0.8-12.2-2.5-13.7c-1.7-1.4-7.3-2.1-16.9-2.1c-9.6,0-15.2,0.7-16.9,2.1c-1.7,1.4-2.5,6-2.5,13.7
		c0,7.6,0.8,12.1,2.5,13.6C632,75,637.6,75.7,647.1,75.7z"/>
	<path class="st3" d="M682,39.2h42.3v5.6h-36.1v11.8h27.4c3.9,0,6.9,0.8,9,2.4c2.6,2,3.9,5.2,3.9,9.6c0,4.4-1.3,7.7-3.9,9.6
		c-2.1,1.6-5.1,2.4-9,2.4H682V39.2z M722.3,68.6c0-2.1-0.6-3.7-1.9-4.8c-1.3-1.1-2.9-1.7-4.8-1.7h-27.3v13h27.3
		c1.9,0,3.6-0.6,4.9-1.7C721.7,72.3,722.3,70.7,722.3,68.6z"/>
	<path class="st3" d="M763,81.3c-8.6,0-14.6-0.6-18-1.7c-3.4-1.1-5.6-3.2-6.5-6.3c-0.6-2.1-1-6.6-1-13.3c0-6.8,0.3-11.2,0.9-13.3
		c0.9-3.1,3.1-5.3,6.6-6.4c3.5-1.1,9.5-1.7,18-1.7c8.6,0,14.6,0.6,18,1.7c3.4,1.1,5.6,3.2,6.6,6.4c0.6,2.1,1,6.6,1,13.3
		c0,6.8-0.3,11.2-0.9,13.2c-0.9,3.1-3.1,5.3-6.5,6.4C777.7,80.7,771.6,81.3,763,81.3z M763,75.7c9.5,0,15.1-0.7,16.8-2.1
		c1.7-1.4,2.5-5.9,2.5-13.6c0-7.7-0.8-12.2-2.5-13.7c-1.7-1.4-7.3-2.1-16.9-2.1c-9.6,0-15.2,0.7-16.9,2.1c-1.7,1.4-2.5,6-2.5,13.7
		c0,7.6,0.8,12.1,2.5,13.6C747.9,75,753.5,75.7,763,75.7z"/>
	<path class="st3" d="M803.6,53.1V39.3h41.7v35.8h3v15.6h-5.7v-10h-39.3v10h-5.7V75.1h3c0.8-2.7,1.5-6.3,2.1-11
		S803.6,55.8,803.6,53.1z M839.1,44.9h-29.4v8.2c0,3.1-0.2,6.9-0.7,11.2c-0.5,4.3-1.1,7.9-1.9,10.8h32V44.9z"/>
	<path class="st3" d="M885.4,39.2l21.8,41.5h-7l-4.9-9.2h-29.6l-4.8,9.2h-7l21.8-41.5H885.4z M892.7,65.9l-11.3-21.7h-1.6
		l-11.3,21.7H892.7z"/>
</g>
<g class="st2">
	<path class="st4" d="M145.5,80.7V39.2h33.8c3.7,0,6.6,1.1,8.6,3.3c2.1,2.2,3.1,5.5,3.1,10c0,4.5-1.1,7.8-3.2,9.9
		c-2.1,2.2-5.1,3.3-8.8,3.3h-27.4v15H145.5z M151.7,60.1H179c1.8,0,3.2-0.6,4.2-1.8c1-1.2,1.6-3.2,1.6-5.8s-0.5-4.6-1.5-5.8
		c-1-1.2-2.5-1.9-4.3-1.9h-27.3V60.1z"/>
	<path class="st4" d="M225.7,81.3c-8.6,0-14.6-0.6-18-1.7c-3.4-1.1-5.6-3.2-6.5-6.3c-0.6-2.1-1-6.6-1-13.3c0-6.8,0.3-11.2,0.9-13.3
		c0.9-3.1,3.1-5.3,6.6-6.4c3.5-1.1,9.5-1.7,18-1.7c8.6,0,14.6,0.6,18,1.7c3.4,1.1,5.6,3.2,6.6,6.4c0.6,2.1,1,6.6,1,13.3
		c0,6.8-0.3,11.2-0.9,13.2c-0.9,3.1-3.1,5.3-6.5,6.4C240.4,80.7,234.4,81.3,225.7,81.3z M225.7,75.7c9.5,0,15.1-0.7,16.8-2.1
		c1.7-1.4,2.5-5.9,2.5-13.6c0-7.7-0.8-12.2-2.5-13.7c-1.7-1.4-7.3-2.1-16.9-2.1s-15.2,0.7-16.9,2.1c-1.7,1.4-2.5,6-2.5,13.7
		c0,7.6,0.8,12.1,2.5,13.6C210.6,75,216.2,75.7,225.7,75.7z"/>
	<path class="st4" d="M266.1,60c0,7.6,0.8,12.1,2.4,13.5c1.6,1.5,6.6,2.2,14.9,2.2c7.7,0,12.4-0.4,14.1-1.3c2-1,3-3.7,3-8.2h6.2
		c0,6.6-1.4,10.7-4.1,12.4c-2.7,1.7-9.1,2.6-19.1,2.6c-10.2,0-16.7-1.2-19.4-3.6c-2.7-2.4-4.1-8.3-4.1-17.6c0-9.4,1.3-15.3,4-17.7
		c2.7-2.4,9.1-3.6,19.4-3.6c10.1,0,16.5,0.8,19.2,2.5c2.7,1.7,4.1,5.8,4.1,12.4h-6.2c0-4.4-0.9-7.1-2.7-8c-1.8-0.9-6.6-1.4-14.3-1.4
		c-8.3,0-13.3,0.7-14.9,2.2C266.9,47.8,266.1,52.3,266.1,60z"/>
	<path class="st4" d="M316,80.7V39.2h6.2V56h6.2l25.1-16.8H364l-29.1,19.6l30.9,21.9h-10.2l-27.4-19.1h-6.2v19.1H316z"/>
	<path class="st4" d="M398.5,81.3c-8.6,0-14.6-0.6-18-1.7c-3.4-1.1-5.6-3.2-6.5-6.3c-0.6-2.1-1-6.6-1-13.3c0-6.8,0.3-11.2,0.9-13.3
		c0.9-3.1,3.1-5.3,6.6-6.4c3.5-1.1,9.5-1.7,18-1.7c8.6,0,14.6,0.6,18,1.7c3.4,1.1,5.6,3.2,6.6,6.4c0.6,2.1,1,6.6,1,13.3
		c0,6.8-0.3,11.2-0.9,13.2c-0.9,3.1-3.1,5.3-6.5,6.4C413.2,80.7,407.1,81.3,398.5,81.3z M398.5,75.7c9.5,0,15.1-0.7,16.8-2.1
		c1.7-1.4,2.5-5.9,2.5-13.6c0-7.7-0.8-12.2-2.5-13.7c-1.7-1.4-7.3-2.1-16.9-2.1s-15.2,0.7-16.9,2.1c-1.7,1.4-2.5,6-2.5,13.7
		c0,7.6,0.8,12.1,2.5,13.6C383.4,75,389,75.7,398.5,75.7z"/>
	<path class="st4" d="M445.5,39.2l21.4,34.1l21.4-34.1h11v41.5h-6.2V44.7H492l-23.2,35.9H465l-23.2-35.9h-1.1v35.9h-6.2V39.2H445.5z
		"/>
	<path class="st4" d="M516.9,60c0,7.6,0.8,12.1,2.4,13.5c1.6,1.5,6.6,2.2,14.9,2.2c7.7,0,12.4-0.4,14.1-1.3c2-1,3-3.7,3-8.2h6.2
		c0,6.6-1.4,10.7-4.1,12.4c-2.7,1.7-9.1,2.6-19.1,2.6c-10.2,0-16.7-1.2-19.4-3.6c-2.7-2.4-4.1-8.3-4.1-17.6c0-9.4,1.3-15.3,4-17.7
		c2.7-2.4,9.1-3.6,19.4-3.6c10.1,0,16.5,0.8,19.2,2.5c2.7,1.7,4.1,5.8,4.1,12.4h-6.2c0-4.4-0.9-7.1-2.7-8s-6.6-1.4-14.3-1.4
		c-8.3,0-13.3,0.7-14.9,2.2S516.9,52.3,516.9,60z"/>
	<path class="st4" d="M611.9,68.5c0,4.1-1.1,7.1-3.4,9.1c-2.2,2-5.5,3-9.8,3h-33.2V39.2h31.8c4.2,0,7.5,1,9.8,3
		c2.3,2,3.4,4.9,3.4,8.7c0,4.2-1.6,6.8-4.7,8c1.8,0.6,3.2,1.6,4.2,3C611.3,63.7,611.9,65.9,611.9,68.5z M604.2,50.9
		c0-1.9-0.5-3.4-1.5-4.4c-1.2-1.2-3-1.8-5.6-1.8h-25.6v11.8h25.6c2.6,0,4.4-0.5,5.5-1.4S604.2,52.9,604.2,50.9z M571.6,62.1v13h27
		c2.3,0,4.1-0.6,5.3-1.8c1.2-1.2,1.8-2.8,1.8-4.7c0-1.9-0.6-3.5-1.8-4.7c-1.2-1.2-3-1.8-5.3-1.8H571.6z"/>
	<path class="st4" d="M647.1,81.3c-8.6,0-14.6-0.6-18-1.7c-3.4-1.1-5.6-3.2-6.5-6.3c-0.6-2.1-1-6.6-1-13.3c0-6.8,0.3-11.2,0.9-13.3
		c0.9-3.1,3.1-5.3,6.6-6.4c3.5-1.1,9.5-1.7,18-1.7c8.6,0,14.6,0.6,18,1.7c3.4,1.1,5.6,3.2,6.6,6.4c0.6,2.1,1,6.6,1,13.3
		c0,6.8-0.3,11.2-0.9,13.2c-0.9,3.1-3.1,5.3-6.5,6.4C661.8,80.7,655.7,81.3,647.1,81.3z M647.1,75.7c9.5,0,15.1-0.7,16.8-2.1
		c1.7-1.4,2.5-5.9,2.5-13.6c0-7.7-0.8-12.2-2.5-13.7c-1.7-1.4-7.3-2.1-16.9-2.1c-9.6,0-15.2,0.7-16.9,2.1c-1.7,1.4-2.5,6-2.5,13.7
		c0,7.6,0.8,12.1,2.5,13.6C632,75,637.6,75.7,647.1,75.7z"/>
	<path class="st4" d="M682,39.2h42.3v5.6h-36.1v11.8h27.4c3.9,0,6.9,0.8,9,2.4c2.6,2,3.9,5.2,3.9,9.6c0,4.4-1.3,7.7-3.9,9.6
		c-2.1,1.6-5.1,2.4-9,2.4H682V39.2z M722.3,68.6c0-2.1-0.6-3.7-1.9-4.8c-1.3-1.1-2.9-1.7-4.8-1.7h-27.3v13h27.3
		c1.9,0,3.6-0.6,4.9-1.7C721.7,72.3,722.3,70.7,722.3,68.6z"/>
	<path class="st4" d="M763,81.3c-8.6,0-14.6-0.6-18-1.7c-3.4-1.1-5.6-3.2-6.5-6.3c-0.6-2.1-1-6.6-1-13.3c0-6.8,0.3-11.2,0.9-13.3
		c0.9-3.1,3.1-5.3,6.6-6.4c3.5-1.1,9.5-1.7,18-1.7c8.6,0,14.6,0.6,18,1.7c3.4,1.1,5.6,3.2,6.6,6.4c0.6,2.1,1,6.6,1,13.3
		c0,6.8-0.3,11.2-0.9,13.2c-0.9,3.1-3.1,5.3-6.5,6.4C777.7,80.7,771.6,81.3,763,81.3z M763,75.7c9.5,0,15.1-0.7,16.8-2.1
		c1.7-1.4,2.5-5.9,2.5-13.6c0-7.7-0.8-12.2-2.5-13.7c-1.7-1.4-7.3-2.1-16.9-2.1c-9.6,0-15.2,0.7-16.9,2.1c-1.7,1.4-2.5,6-2.5,13.7
		c0,7.6,0.8,12.1,2.5,13.6C747.9,75,753.5,75.7,763,75.7z"/>
	<path class="st4" d="M803.6,53.1V39.3h41.7v35.8h3v15.6h-5.7v-10h-39.3v10h-5.7V75.1h3c0.8-2.7,1.5-6.3,2.1-11
		S803.6,55.8,803.6,53.1z M839.1,44.9h-29.4v8.2c0,3.1-0.2,6.9-0.7,11.2c-0.5,4.3-1.1,7.9-1.9,10.8h32V44.9z"/>
	<path class="st4" d="M885.4,39.2l21.8,41.5h-7l-4.9-9.2h-29.6l-4.8,9.2h-7l21.8-41.5H885.4z M892.7,65.9l-11.3-21.7h-1.6
		l-11.3,21.7H892.7z"/>
</g>
<path class="st3" d="M81.6,36.3c0-10.8-8.7-19.5-19.5-19.5c-10.8,0-19.5,8.7-19.5,19.5c0,8.5,5.5,16.1,13.7,18.6l-12.1,48.6h35.9
	L67.9,54.9C76.1,52.3,81.6,44.8,81.6,36.3z"/>
</svg>
