<svg xmlns="http://www.w3.org/2000/svg" height="61.556" width="502" viewBox="0 0 502 61.556181" id="Слой_1"><style id="style2">.st0,.st1{fill:#132251;stroke:#fff;stroke-width:6.8;stroke-miterlimit:10}.st1{stroke-width:6.87}.st2{enable-background:new}.st3{fill:#fff}.st4{fill:none;stroke:#fff;stroke-width:4.54;stroke-miterlimit:10}</style><title id="title4">logo line blue</title><path id="path6" d="M5.95 1h49.602c2.72 0 4.95 2.23 4.95 4.95v49.602c0 2.72-2.23 4.95-4.95 4.95H5.95C3.23 60.502 1 58.272 1 55.552V5.95C1 3.23 3.23 1 5.95 1z" class="st0" fill="#132251" stroke-width="3.698" stroke-miterlimit="10"/><path id="path8" d="M73.5 1h422.496A4.99 4.99 0 0 1 501 6.004v49.548a4.99 4.99 0 0 1-5.004 5.004H73.501a4.99 4.99 0 0 1-5.004-5.004V6.004A4.99 4.99 0 0 1 73.501 1z" class="st1" fill="#132251" stroke-width="3.737" stroke-miterlimit="10"/><g transform="matrix(.5439 0 0 .5439 -1.937 -1.937)" id="g36" class="st2"><path id="path10" d="M145.5 80.7V39.2h33.8c3.7 0 6.6 1.1 8.6 3.3 2.1 2.2 3.1 5.5 3.1 10s-1.1 7.8-3.2 9.9c-2.1 2.2-5.1 3.3-8.8 3.3h-27.4v15zm6.2-20.6H179c1.8 0 3.2-.6 4.2-1.8 1-1.2 1.6-3.2 1.6-5.8 0-2.6-.5-4.6-1.5-5.8-1-1.2-2.5-1.9-4.3-1.9h-27.3z" class="st3" fill="#fff"/><path id="path12" d="M225.7 81.3c-8.6 0-14.6-.6-18-1.7-3.4-1.1-5.6-3.2-6.5-6.3-.6-2.1-1-6.6-1-13.3 0-6.8.3-11.2.9-13.3.9-3.1 3.1-5.3 6.6-6.4 3.5-1.1 9.5-1.7 18-1.7 8.6 0 14.6.6 18 1.7 3.4 1.1 5.6 3.2 6.6 6.4.6 2.1 1 6.6 1 13.3 0 6.8-.3 11.2-.9 13.2-.9 3.1-3.1 5.3-6.5 6.4-3.5 1.1-9.5 1.7-18.2 1.7zm0-5.6c9.5 0 15.1-.7 16.8-2.1 1.7-1.4 2.5-5.9 2.5-13.6 0-7.7-.8-12.2-2.5-13.7-1.7-1.4-7.3-2.1-16.9-2.1-9.6 0-15.2.7-16.9 2.1-1.7 1.4-2.5 6-2.5 13.7 0 7.6.8 12.1 2.5 13.6 1.9 1.4 7.5 2.1 17 2.1z" class="st3" fill="#fff"/><path id="path14" d="M266.1 60c0 7.6.8 12.1 2.4 13.5 1.6 1.5 6.6 2.2 14.9 2.2 7.7 0 12.4-.4 14.1-1.3 2-1 3-3.7 3-8.2h6.2c0 6.6-1.4 10.7-4.1 12.4-2.7 1.7-9.1 2.6-19.1 2.6-10.2 0-16.7-1.2-19.4-3.6-2.7-2.4-4.1-8.3-4.1-17.6 0-9.4 1.3-15.3 4-17.7 2.7-2.4 9.1-3.6 19.4-3.6 10.1 0 16.5.8 19.2 2.5 2.7 1.7 4.1 5.8 4.1 12.4h-6.2c0-4.4-.9-7.1-2.7-8-1.8-.9-6.6-1.4-14.3-1.4-8.3 0-13.3.7-14.9 2.2-1.7 1.4-2.5 5.9-2.5 13.6z" class="st3" fill="#fff"/><path id="path16" d="M316 80.7V39.2h6.2V56h6.2l25.1-16.8H364l-29.1 19.6 30.9 21.9h-10.2l-27.4-19.1H322v19.1z" class="st3" fill="#fff"/><path id="path18" d="M398.5 81.3c-8.6 0-14.6-.6-18-1.7-3.4-1.1-5.6-3.2-6.5-6.3-.6-2.1-1-6.6-1-13.3 0-6.8.3-11.2.9-13.3.9-3.1 3.1-5.3 6.6-6.4 3.5-1.1 9.5-1.7 18-1.7 8.6 0 14.6.6 18 1.7 3.4 1.1 5.6 3.2 6.6 6.4.6 2.1 1 6.6 1 13.3 0 6.8-.3 11.2-.9 13.2-.9 3.1-3.1 5.3-6.5 6.4-3.5 1.1-9.6 1.7-18.2 1.7zm0-5.6c9.5 0 15.1-.7 16.8-2.1 1.7-1.4 2.5-5.9 2.5-13.6 0-7.7-.8-12.2-2.5-13.7-1.7-1.4-7.3-2.1-16.9-2.1-9.6 0-15.2.7-16.9 2.1-1.7 1.4-2.5 6-2.5 13.7 0 7.6.8 12.1 2.5 13.6 1.9 1.4 7.5 2.1 17 2.1z" class="st3" fill="#fff"/><path id="path20" d="M445.5 39.2l21.4 34.1 21.4-34.1h11v41.5h-6.2v-36H492l-23.2 35.9H465l-23.2-35.9h-1.1v35.9h-6.2V39.2z" class="st3" fill="#fff"/><path id="path22" d="M516.9 60c0 7.6.8 12.1 2.4 13.5 1.6 1.5 6.6 2.2 14.9 2.2 7.7 0 12.4-.4 14.1-1.3 2-1 3-3.7 3-8.2h6.2c0 6.6-1.4 10.7-4.1 12.4-2.7 1.7-9.1 2.6-19.1 2.6-10.2 0-16.7-1.2-19.4-3.6-2.7-2.4-4.1-8.3-4.1-17.6 0-9.4 1.3-15.3 4-17.7 2.7-2.4 9.1-3.6 19.4-3.6 10.1 0 16.5.8 19.2 2.5 2.7 1.7 4.1 5.8 4.1 12.4h-6.2c0-4.4-.9-7.1-2.7-8-1.8-.9-6.6-1.4-14.3-1.4-8.3 0-13.3.7-14.9 2.2-1.6 1.5-2.5 5.9-2.5 13.6z" class="st3" fill="#fff"/><path id="path24" d="M611.9 68.5c0 4.1-1.1 7.1-3.4 9.1-2.2 2-5.5 3-9.8 3h-33.2V39.2h31.8c4.2 0 7.5 1 9.8 3 2.3 2 3.4 4.9 3.4 8.7 0 4.2-1.6 6.8-4.7 8 1.8.6 3.2 1.6 4.2 3 1.3 1.8 1.9 4 1.9 6.6zm-7.7-17.6c0-1.9-.5-3.4-1.5-4.4-1.2-1.2-3-1.8-5.6-1.8h-25.6v11.8h25.6c2.6 0 4.4-.5 5.5-1.4 1.1-.9 1.6-2.2 1.6-4.2zm-32.6 11.2v13h27c2.3 0 4.1-.6 5.3-1.8 1.2-1.2 1.8-2.8 1.8-4.7 0-1.9-.6-3.5-1.8-4.7-1.2-1.2-3-1.8-5.3-1.8z" class="st3" fill="#fff"/><path id="path26" d="M647.1 81.3c-8.6 0-14.6-.6-18-1.7-3.4-1.1-5.6-3.2-6.5-6.3-.6-2.1-1-6.6-1-13.3 0-6.8.3-11.2.9-13.3.9-3.1 3.1-5.3 6.6-6.4 3.5-1.1 9.5-1.7 18-1.7 8.6 0 14.6.6 18 1.7 3.4 1.1 5.6 3.2 6.6 6.4.6 2.1 1 6.6 1 13.3 0 6.8-.3 11.2-.9 13.2-.9 3.1-3.1 5.3-6.5 6.4-3.5 1.1-9.6 1.7-18.2 1.7zm0-5.6c9.5 0 15.1-.7 16.8-2.1 1.7-1.4 2.5-5.9 2.5-13.6 0-7.7-.8-12.2-2.5-13.7-1.7-1.4-7.3-2.1-16.9-2.1-9.6 0-15.2.7-16.9 2.1-1.7 1.4-2.5 6-2.5 13.7 0 7.6.8 12.1 2.5 13.6 1.9 1.4 7.5 2.1 17 2.1z" class="st3" fill="#fff"/><path id="path28" d="M682 39.2h42.3v5.6h-36.1v11.8h27.4c3.9 0 6.9.8 9 2.4 2.6 2 3.9 5.2 3.9 9.6 0 4.4-1.3 7.7-3.9 9.6-2.1 1.6-5.1 2.4-9 2.4H682zm40.3 29.4c0-2.1-.6-3.7-1.9-4.8-1.3-1.1-2.9-1.7-4.8-1.7h-27.3v13h27.3c1.9 0 3.6-.6 4.9-1.7 1.2-1.1 1.8-2.7 1.8-4.8z" class="st3" fill="#fff"/><path id="path30" d="M763 81.3c-8.6 0-14.6-.6-18-1.7-3.4-1.1-5.6-3.2-6.5-6.3-.6-2.1-1-6.6-1-13.3 0-6.8.3-11.2.9-13.3.9-3.1 3.1-5.3 6.6-6.4 3.5-1.1 9.5-1.7 18-1.7 8.6 0 14.6.6 18 1.7 3.4 1.1 5.6 3.2 6.6 6.4.6 2.1 1 6.6 1 13.3 0 6.8-.3 11.2-.9 13.2-.9 3.1-3.1 5.3-6.5 6.4-3.5 1.1-9.6 1.7-18.2 1.7zm0-5.6c9.5 0 15.1-.7 16.8-2.1 1.7-1.4 2.5-5.9 2.5-13.6 0-7.7-.8-12.2-2.5-13.7-1.7-1.4-7.3-2.1-16.9-2.1-9.6 0-15.2.7-16.9 2.1-1.7 1.4-2.5 6-2.5 13.7 0 7.6.8 12.1 2.5 13.6 1.9 1.4 7.5 2.1 17 2.1z" class="st3" fill="#fff"/><path id="path32" d="M803.6 53.1V39.3h41.7v35.8h3v15.6h-5.7v-10h-39.3v10h-5.7V75.1h3c.8-2.7 1.5-6.3 2.1-11 .6-4.7.9-8.3.9-11zm35.5-8.2h-29.4v8.2c0 3.1-.2 6.9-.7 11.2-.5 4.3-1.1 7.9-1.9 10.8h32z" class="st3" fill="#fff"/><path id="path34" d="M885.4 39.2l21.8 41.5h-7l-4.9-9.2h-29.6l-4.8 9.2h-7l21.8-41.5zm7.3 26.7l-11.3-21.7h-1.6l-11.3 21.7z" class="st3" fill="#fff"/></g><g transform="matrix(.5439 0 0 .5439 -1.933 -1.937)" id="g64" class="st2"><path id="path38" d="M145.5 80.7V39.2h33.8c3.7 0 6.6 1.1 8.6 3.3 2.1 2.2 3.1 5.5 3.1 10s-1.1 7.8-3.2 9.9c-2.1 2.2-5.1 3.3-8.8 3.3h-27.4v15zm6.2-20.6H179c1.8 0 3.2-.6 4.2-1.8 1-1.2 1.6-3.2 1.6-5.8 0-2.6-.5-4.6-1.5-5.8-1-1.2-2.5-1.9-4.3-1.9h-27.3z" class="st4" fill="none" stroke="#fff" stroke-width="4.54" stroke-miterlimit="10"/><path id="path40" d="M225.7 81.3c-8.6 0-14.6-.6-18-1.7-3.4-1.1-5.6-3.2-6.5-6.3-.6-2.1-1-6.6-1-13.3 0-6.8.3-11.2.9-13.3.9-3.1 3.1-5.3 6.6-6.4 3.5-1.1 9.5-1.7 18-1.7 8.6 0 14.6.6 18 1.7 3.4 1.1 5.6 3.2 6.6 6.4.6 2.1 1 6.6 1 13.3 0 6.8-.3 11.2-.9 13.2-.9 3.1-3.1 5.3-6.5 6.4-3.5 1.1-9.5 1.7-18.2 1.7zm0-5.6c9.5 0 15.1-.7 16.8-2.1 1.7-1.4 2.5-5.9 2.5-13.6 0-7.7-.8-12.2-2.5-13.7-1.7-1.4-7.3-2.1-16.9-2.1-9.6 0-15.2.7-16.9 2.1-1.7 1.4-2.5 6-2.5 13.7 0 7.6.8 12.1 2.5 13.6 1.9 1.4 7.5 2.1 17 2.1z" class="st4" fill="none" stroke="#fff" stroke-width="4.54" stroke-miterlimit="10"/><path id="path42" d="M266.1 60c0 7.6.8 12.1 2.4 13.5 1.6 1.5 6.6 2.2 14.9 2.2 7.7 0 12.4-.4 14.1-1.3 2-1 3-3.7 3-8.2h6.2c0 6.6-1.4 10.7-4.1 12.4-2.7 1.7-9.1 2.6-19.1 2.6-10.2 0-16.7-1.2-19.4-3.6-2.7-2.4-4.1-8.3-4.1-17.6 0-9.4 1.3-15.3 4-17.7 2.7-2.4 9.1-3.6 19.4-3.6 10.1 0 16.5.8 19.2 2.5 2.7 1.7 4.1 5.8 4.1 12.4h-6.2c0-4.4-.9-7.1-2.7-8-1.8-.9-6.6-1.4-14.3-1.4-8.3 0-13.3.7-14.9 2.2-1.7 1.4-2.5 5.9-2.5 13.6z" class="st4" fill="none" stroke="#fff" stroke-width="4.54" stroke-miterlimit="10"/><path id="path44" d="M316 80.7V39.2h6.2V56h6.2l25.1-16.8H364l-29.1 19.6 30.9 21.9h-10.2l-27.4-19.1H322v19.1z" class="st4" fill="none" stroke="#fff" stroke-width="4.54" stroke-miterlimit="10"/><path id="path46" d="M398.5 81.3c-8.6 0-14.6-.6-18-1.7-3.4-1.1-5.6-3.2-6.5-6.3-.6-2.1-1-6.6-1-13.3 0-6.8.3-11.2.9-13.3.9-3.1 3.1-5.3 6.6-6.4 3.5-1.1 9.5-1.7 18-1.7 8.6 0 14.6.6 18 1.7 3.4 1.1 5.6 3.2 6.6 6.4.6 2.1 1 6.6 1 13.3 0 6.8-.3 11.2-.9 13.2-.9 3.1-3.1 5.3-6.5 6.4-3.5 1.1-9.6 1.7-18.2 1.7zm0-5.6c9.5 0 15.1-.7 16.8-2.1 1.7-1.4 2.5-5.9 2.5-13.6 0-7.7-.8-12.2-2.5-13.7-1.7-1.4-7.3-2.1-16.9-2.1-9.6 0-15.2.7-16.9 2.1-1.7 1.4-2.5 6-2.5 13.7 0 7.6.8 12.1 2.5 13.6 1.9 1.4 7.5 2.1 17 2.1z" class="st4" fill="none" stroke="#fff" stroke-width="4.54" stroke-miterlimit="10"/><path id="path48" d="M445.5 39.2l21.4 34.1 21.4-34.1h11v41.5h-6.2v-36H492l-23.2 35.9H465l-23.2-35.9h-1.1v35.9h-6.2V39.2z" class="st4" fill="none" stroke="#fff" stroke-width="4.54" stroke-miterlimit="10"/><path id="path50" d="M516.9 60c0 7.6.8 12.1 2.4 13.5 1.6 1.5 6.6 2.2 14.9 2.2 7.7 0 12.4-.4 14.1-1.3 2-1 3-3.7 3-8.2h6.2c0 6.6-1.4 10.7-4.1 12.4-2.7 1.7-9.1 2.6-19.1 2.6-10.2 0-16.7-1.2-19.4-3.6-2.7-2.4-4.1-8.3-4.1-17.6 0-9.4 1.3-15.3 4-17.7 2.7-2.4 9.1-3.6 19.4-3.6 10.1 0 16.5.8 19.2 2.5 2.7 1.7 4.1 5.8 4.1 12.4h-6.2c0-4.4-.9-7.1-2.7-8-1.8-.9-6.6-1.4-14.3-1.4-8.3 0-13.3.7-14.9 2.2-1.6 1.5-2.5 5.9-2.5 13.6z" class="st4" fill="none" stroke="#fff" stroke-width="4.54" stroke-miterlimit="10"/><path id="path52" d="M611.9 68.5c0 4.1-1.1 7.1-3.4 9.1-2.2 2-5.5 3-9.8 3h-33.2V39.2h31.8c4.2 0 7.5 1 9.8 3 2.3 2 3.4 4.9 3.4 8.7 0 4.2-1.6 6.8-4.7 8 1.8.6 3.2 1.6 4.2 3 1.3 1.8 1.9 4 1.9 6.6zm-7.7-17.6c0-1.9-.5-3.4-1.5-4.4-1.2-1.2-3-1.8-5.6-1.8h-25.6v11.8h25.6c2.6 0 4.4-.5 5.5-1.4 1.1-.9 1.6-2.2 1.6-4.2zm-32.6 11.2v13h27c2.3 0 4.1-.6 5.3-1.8 1.2-1.2 1.8-2.8 1.8-4.7 0-1.9-.6-3.5-1.8-4.7-1.2-1.2-3-1.8-5.3-1.8z" class="st4" fill="none" stroke="#fff" stroke-width="4.54" stroke-miterlimit="10"/><path id="path54" d="M647.1 81.3c-8.6 0-14.6-.6-18-1.7-3.4-1.1-5.6-3.2-6.5-6.3-.6-2.1-1-6.6-1-13.3 0-6.8.3-11.2.9-13.3.9-3.1 3.1-5.3 6.6-6.4 3.5-1.1 9.5-1.7 18-1.7 8.6 0 14.6.6 18 1.7 3.4 1.1 5.6 3.2 6.6 6.4.6 2.1 1 6.6 1 13.3 0 6.8-.3 11.2-.9 13.2-.9 3.1-3.1 5.3-6.5 6.4-3.5 1.1-9.6 1.7-18.2 1.7zm0-5.6c9.5 0 15.1-.7 16.8-2.1 1.7-1.4 2.5-5.9 2.5-13.6 0-7.7-.8-12.2-2.5-13.7-1.7-1.4-7.3-2.1-16.9-2.1-9.6 0-15.2.7-16.9 2.1-1.7 1.4-2.5 6-2.5 13.7 0 7.6.8 12.1 2.5 13.6 1.9 1.4 7.5 2.1 17 2.1z" class="st4" fill="none" stroke="#fff" stroke-width="4.54" stroke-miterlimit="10"/><path id="path56" d="M682 39.2h42.3v5.6h-36.1v11.8h27.4c3.9 0 6.9.8 9 2.4 2.6 2 3.9 5.2 3.9 9.6 0 4.4-1.3 7.7-3.9 9.6-2.1 1.6-5.1 2.4-9 2.4H682zm40.3 29.4c0-2.1-.6-3.7-1.9-4.8-1.3-1.1-2.9-1.7-4.8-1.7h-27.3v13h27.3c1.9 0 3.6-.6 4.9-1.7 1.2-1.1 1.8-2.7 1.8-4.8z" class="st4" fill="none" stroke="#fff" stroke-width="4.54" stroke-miterlimit="10"/><path id="path58" d="M763 81.3c-8.6 0-14.6-.6-18-1.7-3.4-1.1-5.6-3.2-6.5-6.3-.6-2.1-1-6.6-1-13.3 0-6.8.3-11.2.9-13.3.9-3.1 3.1-5.3 6.6-6.4 3.5-1.1 9.5-1.7 18-1.7 8.6 0 14.6.6 18 1.7 3.4 1.1 5.6 3.2 6.6 6.4.6 2.1 1 6.6 1 13.3 0 6.8-.3 11.2-.9 13.2-.9 3.1-3.1 5.3-6.5 6.4-3.5 1.1-9.6 1.7-18.2 1.7zm0-5.6c9.5 0 15.1-.7 16.8-2.1 1.7-1.4 2.5-5.9 2.5-13.6 0-7.7-.8-12.2-2.5-13.7-1.7-1.4-7.3-2.1-16.9-2.1-9.6 0-15.2.7-16.9 2.1-1.7 1.4-2.5 6-2.5 13.7 0 7.6.8 12.1 2.5 13.6 1.9 1.4 7.5 2.1 17 2.1z" class="st4" fill="none" stroke="#fff" stroke-width="4.54" stroke-miterlimit="10"/><path id="path60" d="M803.6 53.1V39.3h41.7v35.8h3v15.6h-5.7v-10h-39.3v10h-5.7V75.1h3c.8-2.7 1.5-6.3 2.1-11 .6-4.7.9-8.3.9-11zm35.5-8.2h-29.4v8.2c0 3.1-.2 6.9-.7 11.2-.5 4.3-1.1 7.9-1.9 10.8h32z" class="st4" fill="none" stroke="#fff" stroke-width="4.54" stroke-miterlimit="10"/><path id="path62" d="M885.4 39.2l21.8 41.5h-7l-4.9-9.2h-29.6l-4.8 9.2h-7l21.8-41.5zm7.3 26.7l-11.3-21.7h-1.6l-11.3 21.7z" class="st4" fill="none" stroke="#fff" stroke-width="4.54" stroke-miterlimit="10"/></g><path id="path66" d="M41.357 17.806A10.585 10.585 0 0 0 30.75 7.2a10.585 10.585 0 0 0-10.606 10.606c0 4.623 2.991 8.757 7.451 10.117l-6.58 26.433H40.54l-6.636-26.433c4.46-1.414 7.452-5.494 7.452-10.117z" class="st3" fill="#fff" stroke-width=".544"/></svg>