<svg xmlns="http://www.w3.org/2000/svg" width="226.924" height="32" viewBox="0 0 226.92439 32"><defs><clipPath id="a"><path d="M0 400h400V0H0z"/></clipPath></defs><path d="M85.298 12.503v14.164h-5.175V12.503h-5.228V7.995h15.631v4.508z" fill="#0a9600"/><g clip-path="url(#a)" transform="matrix(1.33333 0 0 -1.33333 -146.667 284)"><path d="M182.193 201.062c-.82 0-1.28-.56-1.4-1.6h3.001c-.18 1.06-.54 1.6-1.6 1.6m4.76-3.841h-6.16c.12-1.16.798-1.68 1.78-1.68.92 0 1.68.2 2.72.74l1.38-2.301c-1.3-.759-2.64-1.2-4.28-1.2-3.162 0-4.902 2.241-4.902 5.462 0 3.62 2.04 5.481 4.801 5.481 2.88 0 4.681-1.901 4.681-5.801 0-.301 0-.521-.02-.701M193.653 192.78c-3.08 0-4.92 1.96-4.92 5.501 0 3.221 1.64 5.441 5 5.441 1.981 0 3.121-.92 4.041-2.4l-2.48-1.88c-.5.92-.84 1.36-1.62 1.36-.92 0-1.38-.92-1.38-2.58 0-1.662.5-2.52 1.48-2.52.68 0 1.16.38 1.82 1.36l2.28-1.78c-1.22-1.802-2.36-2.502-4.22-2.502M205.934 193v5.962c0 1.36-.46 1.72-1.2 1.72-.761 0-1.221-.36-1.221-1.68V193h-3.6v13.143l3.6 1.44v-4.78c.66.5 1.4.92 2.64.92 2.302 0 3.402-1.54 3.402-4.301V193z" fill="#0a9600"/><path d="M218.174 192.78c-4.161 0-6.382 3.081-6.382 7.222 0 4.501 2.64 7.221 6.402 7.221 3.44 0 4.8-1.48 5.76-4.12l-3.52-1.38c-.5 1.3-.98 2.12-2.26 2.12-1.62 0-2.32-1.62-2.32-3.84 0-2.142.679-3.842 2.36-3.842 1.22 0 1.74.66 2.5 1.98l3.28-1.74c-.94-1.84-2.5-3.62-5.82-3.62M232.852 199.542c-.46.5-.979.88-1.68.88-.88 0-1.42-.42-1.42-1.7V193h-3.6v10.503h3.6v-.76c.62.6 1.32.98 2.241.98.76 0 1.28-.18 1.7-.44zM241.413 193v.701c-.64-.5-1.4-.921-2.62-.921-2.3 0-3.4 1.54-3.4 4.302v6.421h3.62v-5.962c0-1.359.46-1.72 1.2-1.72s1.2.361 1.2 1.681v6.001h3.621V193zM253.653 193v5.962c0 1.36-.46 1.72-1.2 1.72-.76 0-1.22-.36-1.22-1.68V193h-3.6v10.503h3.6v-.7c.66.5 1.4.92 2.64.92 2.301 0 3.401-1.54 3.401-4.301V193zM264.292 192.78c-3.08 0-4.921 1.96-4.921 5.501 0 3.221 1.641 5.441 5.001 5.441 1.981 0 3.121-.92 4.041-2.4l-2.48-1.88c-.5.92-.841 1.36-1.62 1.36-.921 0-1.381-.92-1.381-2.58 0-1.662.5-2.52 1.48-2.52.68 0 1.16.38 1.82 1.36l2.281-1.78c-1.22-1.802-2.361-2.502-4.221-2.502M276.572 193v5.962c0 1.36-.46 1.72-1.2 1.72-.76 0-1.22-.36-1.22-1.68V193h-3.6v13.143l3.6 1.44v-4.78c.66.5 1.4.92 2.64.92 2.301 0 3.401-1.54 3.401-4.301V193z"/><path d="M110 213v-8h8v-16h8v16h8v8zM142 197v8h-8v-16h24v8zM142 205h16v8h-16z" fill="#0a9600"/></g></svg>