<svg xmlns="http://www.w3.org/2000/svg" height="160"
width="869.4" viewBox="0 0 869.4 160"><path d="M524.7 0c3.1 3.1 6.1 6.4 9.5 9.2 2.7 2.3 3.6 4.7 3.6 8.2-.1 30.5-.1 61.1-.1 91.6 0 1.9.5 3.1 2.1 4.1 2.2 1.3 4.4 4 6.5 3.9 2.1 0 4.2-2.7 6.3-4.2 1.4-1 2.7-2 4.3-3.2 1.1 1.3 2.3 2.5 3.6 4-7.6 6.9-15 13.6-22.5 20.4-6.1-4.3-12-8.5-18.1-12.8-3.2 2.8-6.4 5.6-9.8 8.5-1.4-1.8-2.7-3.4-4.1-5.2 3.2-2.6 6.3-5.1 9.2-7.7.8-.7 1.5-2.1 1.5-3.1.1-31.1.1-62.2-.1-93.4 0-1.8-1.7-3.7-2.8-5.9-2.8 2.1-5 3.7-7.4 5.5-1.1-1.2-2.2-2.4-3.5-3.8 6.1-4.6 12-9 17.9-13.5 1.1-.8 2-1.7 3-2.6h.9zM262.4 78.2c-7.5 6-14.8 11.8-22.1 17.6-4.5 3.6-8.9 7.2-13.4 10.7-1.1.9-1.7 1.6-.5 2.8 4.6 4.8 9.1 9.7 13.8 14.6 4.2-3.1 7.7-5.7 11.3-8.4 1.2 1.4 2.3 2.6 3.5 4-7.6 6.8-15 13.5-22.5 20.4-6-4.9-11.9-9.8-17.8-14.6-1.8-1.5-3.7-4-5.6-4-1.9 0-3.8 2.4-5.6 3.9-8.5 6.7-17 13.5-25.5 20.3-.5.4-1.1.8-1.5 1.1-4.8-4.9-9.6-9.8-14.7-14.9 1.1-2 2.5-4.4 3.7-7 .6-1.2.9-2.5.9-3.8.1-16.8 0-33.7.1-50.5 0-1.7-.5-2.8-1.8-3.8-3.3-2.5-6.6-5.2-10-7.9-2.9 2.1-5.7 4.1-8.4 6.3-.6.5-1 1.5-1 2.3-.1 18.3-.2 36.7.1 55 0 2.4 1.8 5 3.1 7.3 1.1 1.9.7 2.8-.7 4.2-4.6 4.5-9 9.1-13.6 13.8-5-5.3-9.7-10.3-14.4-15.3-.2.1-.4.3-.6.4.2-.4.3-.8.5-1.1 3.9-5.4 4.6-11.3 4.5-17.8-.2-29.5-.2-59.1 0-88.6 0-3-1-4.9-3.5-6.4-2.2 1.6-4.4 3.3-6.7 5 4.7 7.3 5.7 14.4-.5 21.4-5.7 6.4-12.8 7.9-21 6.2v80.7c9.4-3 16.6-8.8 22.5-16.3.3.1.5.2.6.3 3.4 3.6 3.4 3.7.7 7.7-9.4 13.6-22.6 21.4-38.6 24.4-17.2 3.2-33-.3-46.5-11.7C1.4 111 9.5 64.2 46.2 49.6c1.5-.6 3.1-1.1 4.9-1.5C44.2 54 38.7 60.9 35.4 70c13.7-5.1 27-9.9 40.5-14.9v17c9.2-1.4 17.7-7.7 15.1-20-10.3-3.6-20.3-7-30.3-10.5-10.4-3.6-20.9-5.3-31.7-2C17.6 43 9.6 50.8 3.1 60.5c-.5.8-1 1.5-1.7 2.5-.2-.4-.4-.7-.4-1 0-9.1 1.3-18 5.4-26.2 5.7-11 15.6-16 27.3-18.1 8.5-1.5 16.7 0 24.7 3.3 9.7 4 19.3 8.2 29.1 12.1 2.9 1.2 6 2.3 9.1 3 9.9 2.5 16.6-3.8 14.6-13.8-.4-1.9 0-2.9 1.5-4 6.3-4.6 12.5-9.4 18.8-14.1.1-.1.3-.1.7-.3 4.2 3.9 8.5 7.9 12.7 12 .6.6.6 1.8.6 2.8v40.4c7-5.3 13.6-10.2 20.4-15.2 7.2 6 14.4 12 21.8 18.2 4.1-2.4 8.1-4.7 12.3-7.2 1 1.2 2.1 2.4 3.3 3.8-4.5 4.4-8.9 8.7-13.5 12.9-1.5 1.4-2.1 2.8-2.1 4.8.1 14.4.1 28.8 0 43.2 0 3 1.1 5.1 3.2 7.2 4.4-3.6 8.8-7 13.1-10.7.6-.5.8-1.8.8-2.7 0-15.3.1-30.6 0-45.9 0-1.9.6-2.8 2.4-3.5 10.6-4.3 21.1-8.8 31.6-13.2.6-.3 1.2-.5 1.9-.8 7.1 9.4 14.3 18.7 21.7 28.2zm-220.3 37c10.8 15.3 30.8 22 47.5 17.9 1.7-.4 1.5-1.4 1.5-2.6V97.7c0-7-7.7-14.4-15.1-14.3v14.5c0 1.5-.4 2.3-1.8 2.9-3.6 1.5-7.1 3.1-10.6 4.7-7.1 3.2-14.3 6.4-21.5 9.7zm-2.9-4.1c4.8-2.2 9.2-4.4 13.8-6.3 1.7-.7 2.1-1.7 2.1-3.4-.1-10.1 0-20.2 0-30.2 0-.8-.1-1.6-.2-2.7-5.7 2.2-11 4.5-16.6 6.1-3.9 1.1-5.4 3.2-5.7 7.1-.8 10.4 1.2 20.1 6.6 29.4zm186.5-12.5c5.8-4.7 11.2-9 16.6-13.4-4.9-6.4-9.7-12.7-14.7-19.4-.8 1.2-1.8 2-1.8 2.9-.1 9.8-.1 19.5-.1 29.9zM91 91V64.8c-2.2 1.9-4.2 4.1-6.7 5.6-2.5 1.6-5.5 2.5-8.4 3.7 0 1.9-.1 4 .1 6.1 0 .6.7 1.4 1.1 1.5C82.7 83 87.2 86 91 91zm755.5-32.4h17.8v8.8h-17.7c-.1 1.1-.2 2-.2 2.9v43.2c0 1.8.5 3 2.1 3.9 2.3 1.3 4.5 4 6.7 4 2.1 0 4.2-2.7 6.3-4.3 1.4-1 2.7-2 4.2-3.1 1.2 1.3 2.3 2.6 3.6 4-7.5 6.8-14.9 13.5-22.5 20.4-6-4.3-12-8.5-18.2-12.8-3.7 3.1-7.2 6.2-10.9 9.4-1.5-1.6-2.9-3.1-4.5-4.8 3.7-2.9 7.3-5.5 10.7-8.3.8-.6 1.6-1.8 1.6-2.8.1-16.7.1-33.5.1-50.2 0-.3-.1-.6-.1-1.1h-9v47c0 1.7-.6 2.7-2 3.5-7.6 4.5-15.1 9.1-22.7 13.7-3.4 2.1-11.3 1.8-14.5-.6-.7-.5-1.6-1-2.2-1.6-3.3-3.8-6.6-3.4-10.3-.5-1.9 1.5-4.2 2.5-6.4 3.8-1.1-1.2-2.1-2.4-3.1-3.6 2.8-2.7 5.4-5.3 8-8-.3-.4-.5-.8-.8-.9-4.1-1.8-4.7-5-4.6-9.2.2-14.2.1-28.4.1-42.7 0-1.7.5-2.5 2-3.2 9.9-4.6 19.7-9.3 29.6-14.1 1.7-.8 2.8-.8 4.3.3 6.7 4.8 13.5 9.4 20.3 14.1.6.4 1.3.8 2.2 1.4v-8.5h9.3c0-5.5.1-10.7-.1-15.9-.1-2 .5-3.5 1.8-4.9 4.9-5.1 9.7-10.2 14.6-15.4 2.9 1.4 4.7 2.9 4.6 6.6-.3 8.7-.1 17.5-.1 26.2v3.3zm-68.6 3.6v3.2c0 12 .2 24.1-.1 36.1-.1 4 1 6.4 4.6 8.3 5.2 2.8 10.1 6.2 15.5 9.6v-3.1c0-11.3-.2-22.5.1-33.8.1-3.6-.8-5.9-3.8-7.9-3.5-2.3-6.7-5.1-10-7.6-2-1.5-3.9-3-6.3-4.8zm-442.6 54.9V29.5h-3c-11.2-.1-22.4.2-33.6-.3-13.5-.5-22.7-10.9-21.8-24.1.1 0 .4-.2.4-.1 5.2 4.4 11.3 5.9 18 5.8 12.4-.1 24.7 0 37.1 0h3.2V1.5h1v9.3c5 0 9.6.3 14.2-.1 9.1-.6 16 2.9 20.8 10.6 2.7 4.3 3.9 9.2 3.9 14.2.1 29.7 0 59.4 0 89.1 0 .2-.1.5-.1.8-14.3-3.3-25.8.5-33.5 13.7-8.1-4.8-17-7.9-26.7-8.2-12-.4-20.7 5.7-25 17l-.5 1c-.4-.7-.7-1.2-1-1.7-3.8-9.3-1-18.8 7.3-25.1 7.7-5.7 16.4-7.5 25.8-6.6 4.6.3 9 1 13.5 1.6zm19.7 5.7c.1-.4.2-.7.2-.9v-32c0-.6-.1-1.4-.4-1.9-2.8-5.4-11.7-9.9-17.8-8.9v38.5c5.9 1.7 11.9 3.4 18 5.2zm-18-93.1v39c6.8-.2 12.5-2.4 16.6-7.7.9-1.1 1.5-2.8 1.5-4.3.2-6.1.1-12.1.1-18.2 0-4.3-2.7-8.1-6.9-8.7-3.7-.4-7.5-.1-11.3-.1zm18.1 31.8c-5 6-11.1 8.3-18.1 8.7v7.1c7.1.3 13.1 2.8 18.1 8.6V61.5zm354.7-50.8V1.4h.9v9.1c1.1.1 1.9.2 2.6.2 4.4 0 8.8.3 13.1 0 12-.9 20.3 8.6 22.4 17.9.6 2.6 1 5.3 1 8 .1 28.8 0 57.5 0 86.3v2.5c-17.4-2.5-27 1.4-33.4 13.7-7-4.2-14.6-6.9-22.7-8-13.8-2-24 3.8-29.2 16.8-.1.2-.3.4-.4.6-3.8-5.5-3.4-14.8.9-20.9 5.1-7.2 12.4-10.6 20.8-12 7.2-1.2 14.2-.1 21.3 1.2.7.1 1.5.3 2.4.4V29.4h-2.9c-11.3-.1-22.5.2-33.8-.3-13.1-.5-22.2-10.5-21.8-23.3 0-.3.1-.6.2-1.4 6.5 6 14.3 6.3 22.3 6.2 11-.2 22 0 33.1 0 .8.1 1.7.1 3.2.1zm1.3 68v38.8c6 1.8 12 3.5 18.2 5.3v-3c0-9.2-.1-18.5.1-27.7.1-3.1-.9-5.4-3-7.4-4.2-3.9-9.2-5.8-15.3-6zm0-10.1c6.6.3 13.2-2.7 16.9-7.8.8-1.1 1.3-2.6 1.3-3.9.1-6.1-.1-12.3.1-18.4.2-4.6-3.7-8.2-6.8-8.6-3.8-.4-7.6-.1-11.6-.1.1 12.9.1 25.8.1 38.8zm18.1-7c-5 6-11.1 8.3-18.1 8.7v7.1c7.1.3 13.1 2.8 18.1 8.6V61.6z"/><path d="M574.3 49.8c4.4 4.1 8.7 8 12.9 12 .6.6.7 1.8.7 2.8 0 14.8.1 29.6 0 44.4 0 1.9.5 3.1 2.1 4.1 2.2 1.3 4.4 4 6.5 3.9 2.1 0 4.1-2.9 6.4-4.1 4-2.2 5.1-5.3 5-9.8-.4-12-.3-24.1 0-36.1.1-3.2-.9-5.5-3.6-7.5-2.1 1.5-4.3 3.1-6.6 4.8l-3.6-3.6c1.3-1.1 2.6-2.1 3.9-3.1 5.1-3.9 10.3-7.6 15.3-11.6 1.6-1.3 2.6-1.1 4 .3 3.3 3.3 6.9 6.4 10.3 9.7.7.7 1.3 1.8 1.3 2.7.1 18.8.2 37.7 0 56.5-.1 8.7-1.9 17.1-8 23.9-2.2 2.4-4.8 4.6-7.5 6.3-7.1 4.4-14.5 8.5-22 12.9-2.9-3.9-6.7-6.3-11.3-7.3-4.6-.9-9-.3-13.4 1.5 2.2-4.2 11.2-10.8 16.2-11.5 6.9-1 13.5 1.2 20.2 3.1 1.2-8.8 2.5-17.4 3.8-26.8-6.5 5.8-12.5 11.1-18.6 16.6-6-4.3-12-8.5-18.1-12.8-3.2 2.8-6.4 5.6-9.8 8.5-1.4-1.8-2.7-3.4-4.1-5.1 3-2.5 5.9-5 8.8-7.3 1.4-1.1 1.9-2.3 1.9-4-.1-13.5-.1-27.1 0-40.6 0-3.3-.6-5.9-3.7-7.9-2.1 1.5-4.3 3.2-6.7 4.9-1.1-1.2-2.2-2.3-3.5-3.7 6.9-5.4 13.9-10.7 21.2-16.1zm-159.7 32c0-4.6.3-8.8-.1-13-.2-1.5-2-2.9-2.6-3.8-4.9 1.4-9.1 3-13.5 3.8-6 1.1-11.7-2.2-14.3-7.6-2.4-4.9-1.2-11.2 2.8-15.4.2-.2.4-.2.6-.4 9 14.4 25.6 14.1 34.8 4.5 4.4 4.1 8.8 8.2 13.4 12.4 4-2.7 7.9-5.4 12.1-8.2 1.3 1.4 2.6 2.8 4.1 4.3-4.7 3.6-9.1 7.1-13.8 10.5-1.7 1.3-2.4 2.6-2.4 4.8.1 11.9.1 23.7 0 35.6 0 1.7.4 2.8 1.9 3.7 2.2 1.3 4.3 2.9 6.7 4.6 3.5-2.6 6.9-5.2 10.7-7.9 1.1 1.3 2.2 2.5 3.7 4.2-.8.6-1.4 1-2 1.5-6.9 6.2-13.7 12.4-20.7 18.7-6.1-4.3-12-8.5-18.2-12.9-5.3 3.8-10.7 7.6-15.9 11.5-1.7 1.3-3 1.3-4.8.4-16.1-7.4-21.3-27.5-10.6-41.8 4.4-5.9 10.6-8.7 17.7-9.4 3.3-.4 6.7-.1 10.4-.1zm0 6.9c-4.8 0-7.8 2.3-9.9 5.9-2.5 4.2-3.2 8.8-3.3 13.5-.1 5.5.6 10.8 2.6 16.3 3.4-2.9 6.7-5.5 9.8-8.3.4-.3.7-1 .7-1.5.1-8.5.1-17.1.1-25.9z"/><path d="M506 109.6c1.2 1.4 2.2 2.6 3.5 4-7.5 6.8-14.9 13.5-22.5 20.4-6.1-4.3-12-8.5-18.1-12.8-3.2 2.8-6.3 5.5-9.8 8.5-1.4-1.7-2.7-3.4-4.1-5.2 3.1-2.6 6-5.1 9-7.5 1.2-1 1.7-2 1.7-3.6-.1-13.8-.1-27.6 0-41.4 0-3.2-.8-5.5-3.7-7.3-2.2 1.6-4.5 3.2-6.8 4.9-1.2-1.3-2.2-2.5-3.4-3.8 7.1-5.4 14.1-10.6 21.3-16 4.5 4.2 9 8.3 13.6 12.5 4.1-2.8 8-5.5 12.1-8.2 1.3 1.4 2.6 2.8 4.1 4.3-4.9 3.7-9.6 7.4-14.4 11-1.3 1-1.7 2-1.7 3.6.1 12.2.1 24.4 0 36.6 0 1.5.4 2.5 1.7 3.3 1.8 1.1 3.5 2.3 5.2 3.6 1.3 1.1 2.2.9 3.5-.1 2.8-2.4 5.7-4.5 8.8-6.8zM315 31.1c-2.2 4.5-4.4 9-6.5 13.6-.7 1.6-1.2 3.5-1.2 5.3-.1 18.7-.1 37.5 0 56.2 0 2.1-.6 2.8-2.7 3.5-4.5 1.4-8.9 3.4-13.4 5.2V77.4c-6.8-1.3-12.5 1-18.2 4.2 1.4-10.9 7.3-17.2 18.1-19 0-5.9.1-11.6 0-17.3 0-1.7.5-2.7 2.1-3.5 7.2-3.6 14.3-7.4 21.5-11.1 0 .2.2.3.3.4zm374.2 0c-2.2 4.6-4.5 9.1-6.6 13.8-.7 1.5-1.1 3.2-1.1 4.8-.1 18.8-.1 37.7 0 56.5 0 2.1-.6 2.8-2.7 3.5-4.5 1.4-8.9 3.4-13.4 5.2V77.4c-6.8-1.3-12.5 1-18 4.1 1.2-9.7 5.3-16.3 17.9-19.1 0-5.7.1-11.4 0-17.1 0-1.7.5-2.7 2.1-3.5 7.2-3.6 14.3-7.4 21.5-11.1 0 .2.1.3.3.4zm-201.8 2c-3.6 4.2-7.2 8.3-10.9 12.5-4.1-3.5-8-6.8-11.8-10 3.7-3.8 7.3-7.6 11.1-11.4 3.7 2.9 7.6 5.8 11.6 8.9z"/></svg>
