<svg xmlns="http://www.w3.org/2000/svg" viewBox="0 0 79.323023 7.6404097" height="28.877" width="299.804"><path d="M2.381 1.852a.264.264 0 0 0-.264.265v2.38c0 .148.118.266.264.266h.265v2.38c0 .147.118.265.264.265h1.588a.264.264 0 0 0 .265-.264V4.763h.264a.264.264 0 0 0 .265-.265V2.117a.264.264 0 0 0-.265-.265zm-2.116 0A.264.264 0 0 0 0 2.117v2.38c0 .148.118.266.265.266h.264v2.645h1.588V5.244a.79.79 0 0 1-.53-.746V1.852zm5.556 0v2.646a.79.79 0 0 1-.53.746v2.164H6.88V4.763h.265a.264.264 0 0 0 .264-.265V2.117a.264.264 0 0 0-.264-.265zM6.615.794a.794.794 0 0 1-.794.794.794.794 0 0 1-.794-.794A.794.794 0 0 1 5.821 0a.794.794 0 0 1 .794.794zm-2.117 0a.794.794 0 0 1-.794.794.794.794 0 0 1-.794-.794A.794.794 0 0 1 3.704 0a.794.794 0 0 1 .794.794zm-2.117 0a.794.794 0 0 1-.793.794.794.794 0 0 1-.794-.794A.794.794 0 0 1 1.588 0a.794.794 0 0 1 .793.794zm76.942 6.66q-.24.062-.508.095-.27.038-.658.038-.868 0-1.294-.352-.421-.351-.421-1.203v-2.17h-.612V2.853h.612V1.526h1.488v1.327h1.393v1.009H77.93v1.645q0 .244.004.426T78 6.26q.058.144.202.231.15.083.43.083.116 0 .302-.05.19-.05.265-.09h.124zM75.305 5.45h-3.407q.033.546.414.835.384.29 1.128.29.471 0 .914-.17.442-.17.698-.363h.166v1.194q-.505.203-.951.294-.446.09-.988.09-1.397 0-2.142-.628-.744-.628-.744-1.79 0-1.149.703-1.819.707-.674 1.935-.674 1.133 0 1.703.575.57.57.57 1.645zm-1.48-.872q-.013-.467-.232-.703-.219-.235-.682-.235-.43 0-.707.223-.277.223-.31.715zM69.36 7.496h-1.497V5.193q0-.281-.029-.558-.029-.281-.099-.413-.083-.153-.244-.224-.157-.07-.442-.07-.203 0-.414.066-.206.066-.45.21v3.292h-1.488V2.853h1.488v.513q.397-.31.76-.476.368-.165.815-.165.752 0 1.174.438.426.438.426 1.31zm-6.123 0h-1.546V5.87h1.546zm-2.592-1.472q0 .72-.645 1.162-.645.438-1.765.438-.62 0-1.125-.116-.504-.116-.81-.256V6.028h.137q.111.079.256.174.149.09.417.198.232.095.525.166.294.066.629.066.438 0 .649-.095.21-.1.21-.29 0-.17-.123-.244-.124-.078-.472-.149-.165-.037-.45-.078-.281-.046-.513-.108-.632-.165-.938-.512-.306-.352-.306-.873 0-.67.632-1.112.637-.446 1.737-.446.52 0 .996.107.48.104.748.224V4.23h-.128q-.33-.228-.756-.368-.422-.145-.856-.145-.36 0-.608.1-.244.098-.244.28 0 .166.112.253.111.086.525.173.227.046.488.091.264.041.529.108.587.153.868.483.281.327.281.819zM55.76 4.271h-.133q-.095-.033-.306-.05-.21-.016-.351-.016-.318 0-.562.041-.244.042-.525.14v3.11h-1.489V2.853h1.489v.682q.492-.421.855-.558.364-.14.67-.14.079 0 .178.004.1.004.174.012zM51.343 5.45h-3.406q.033.546.413.835.385.29 1.129.29.471 0 .913-.17.443-.17.7-.363h.165v1.194q-.505.203-.951.294-.447.09-.988.09-1.398 0-2.142-.628t-.744-1.79q0-1.149.703-1.819.707-.674 1.935-.674 1.132 0 1.703.575.57.57.57 1.645zm-1.48-.872q-.012-.467-.231-.703-.22-.235-.682-.235-.43 0-.707.223-.277.223-.31.715zM45.94 2.853l-1.79 4.643h-1.687l-1.777-4.643h1.575l1.075 3.192 1.062-3.192zm-5.527 1.418h-.133q-.095-.033-.305-.05-.211-.016-.352-.016-.318 0-.562.041-.244.042-.525.14v3.11h-1.488V2.853h1.488v.682q.492-.421.856-.558.363-.14.67-.14.078 0 .177.004.1.004.174.012zM35.998 5.45H32.59q.033.546.413.835.385.29 1.129.29.471 0 .914-.17.442-.17.698-.363h.166v1.194q-.505.203-.951.294-.447.09-.988.09-1.398 0-2.142-.628t-.744-1.79q0-1.149.703-1.819.707-.674 1.935-.674 1.132 0 1.703.575.57.57.57 1.645zm-1.48-.872q-.013-.467-.232-.703-.22-.235-.682-.235-.43 0-.707.223-.277.223-.31.715zm-4.085 1.447q0 .72-.645 1.162-.645.438-1.765.438-.62 0-1.125-.116-.504-.116-.81-.256V6.028h.136q.112.079.257.174.149.09.417.198.232.095.525.166.294.066.629.066.438 0 .649-.095.21-.1.21-.29 0-.17-.123-.244-.124-.078-.472-.149-.165-.037-.45-.078-.281-.046-.513-.108-.632-.165-.938-.512-.306-.352-.306-.873 0-.67.632-1.112.637-.446 1.737-.446.52 0 .996.107.48.104.748.224V4.23h-.128q-.33-.228-.757-.368-.421-.145-.855-.145-.36 0-.608.1-.244.098-.244.28 0 .166.112.253.111.086.525.173.227.046.488.091.264.041.529.108.587.153.868.483.281.327.281.819zm-4.887-1.753h-.132q-.095-.033-.306-.05-.21-.016-.351-.016-.318 0-.562.041-.244.042-.525.14v3.11H22.18V2.853h1.489v.682q.492-.421.855-.558.364-.14.67-.14.079 0 .178.004.099.004.173.012zm-4.44.905q0 1.146-.67 1.807-.665.657-1.872.657t-1.877-.657q-.666-.661-.666-1.807 0-1.153.67-1.81.674-.658 1.873-.658 1.215 0 1.877.662.665.661.665 1.806zm-1.831 1.13q.145-.179.215-.427.074-.252.074-.694 0-.41-.074-.687-.074-.276-.207-.442-.132-.17-.318-.24-.186-.07-.401-.07-.215 0-.385.058-.165.058-.318.231-.136.162-.219.443-.079.28-.079.707 0 .38.07.661.071.277.207.447.133.16.315.235.186.075.421.075.203 0 .385-.066.186-.07.314-.232zM15.488 2.53h-1.922v4.965h-1.588V2.53h-1.922V1.34h5.432z"/></svg>