<?xml version="1.0" encoding="UTF-8" standalone="no"?>
<svg
   xmlns:dc="http://purl.org/dc/elements/1.1/"
   xmlns:cc="http://creativecommons.org/ns#"
   xmlns:rdf="http://www.w3.org/1999/02/22-rdf-syntax-ns#"
   xmlns:svg="http://www.w3.org/2000/svg"
   xmlns="http://www.w3.org/2000/svg"
   id="svg8"
   version="1.1"
   viewBox="0 0 79.323023 7.6404097"
   height="28.877138"
   width="299.80356">
  <defs
     id="defs2" />
  <metadata
     id="metadata5">
    <rdf:RDF>
      <cc:Work
         rdf:about="">
        <dc:format>image/svg+xml</dc:format>
        <dc:type
           rdf:resource="http://purl.org/dc/dcmitype/StillImage" />
        <dc:title></dc:title>
      </cc:Work>
    </rdf:RDF>
  </metadata>
  <g
     transform="translate(-60.854166,-150.42082)"
     style="opacity:1"
     id="layer1">
    <g
       id="text4498"
       style="font-style:normal;font-weight:normal;font-size:2.11666656px;line-height:6.61458302px;font-family:Sans;letter-spacing:0px;word-spacing:0px;fill:#000000;fill-opacity:1;stroke:none;stroke-width:0.26458332px;stroke-linecap:butt;stroke-linejoin:miter;stroke-opacity:1"
       aria-label="Torservers.net" />
    <path
       d="m 63.235416,152.27292 c -0.146579,0 -0.264583,0.118 -0.264583,0.26458 v 2.38125 c 0,0.14658 0.118004,0.26459 0.264583,0.26459 h 0.264583 v 2.38125 c 0,0.14658 0.118005,0.26458 0.264584,0.26458 h 1.5875 c 0.146579,0 0.264583,-0.118 0.264583,-0.26458 v -2.38125 h 0.264583 c 0.146582,0 0.264582,-0.11801 0.264582,-0.26459 v -2.38125 c 0,-0.14658 -0.118,-0.26458 -0.264582,-0.26458 z m -2.116666,0 c -0.14658,0 -0.264584,0.118 -0.264584,0.26458 v 2.38125 c 0,0.14658 0.118004,0.26459 0.264584,0.26459 h 0.264583 v 2.64583 h 1.5875 v -2.16473 c -0.308157,-0.10889 -0.529167,-0.39933 -0.529167,-0.74569 v -2.64583 z m 5.556251,0 v 2.64583 c 0,0.34636 -0.22101,0.6368 -0.52917,0.74569 v 2.16473 h 1.5875 v -2.64583 h 0.26459 c 0.14657,0 0.26458,-0.11801 0.26458,-0.26459 v -2.38125 c 0,-0.14658 -0.11801,-0.26458 -0.26458,-0.26458 z m 0.793752,-1.05835 a 0.79374999,0.79374999 0 0 1 -0.79375,0.79375 0.79374999,0.79374999 0 0 1 -0.79375,-0.79375 0.79374999,0.79374999 0 0 1 0.79375,-0.79375 0.79374999,0.79374999 0 0 1 0.79375,0.79375 z m -2.116669,0 a 0.79374999,0.79374999 0 0 1 -0.79375,0.79375 0.79374999,0.79374999 0 0 1 -0.79375,-0.79375 0.79374999,0.79374999 0 0 1 0.79375,-0.79375 0.79374999,0.79374999 0 0 1 0.79375,0.79375 z m -2.116665,0 a 0.79374999,0.79374999 0 0 1 -0.79375,0.79375 0.79374999,0.79374999 0 0 1 -0.79375,-0.79375 0.79374999,0.79374999 0 0 1 0.79375,-0.79375 0.79374999,0.79374999 0 0 1 0.79375,0.79375 z m 76.941771,6.66062 q -0.23978,0.062 -0.5085,0.0951 -0.26871,0.0372 -0.65732,0.0372 -0.86816,0 -1.29398,-0.35139 -0.42168,-0.3514 -0.42168,-1.20303 v -2.17041 h -0.61185 v -1.00873 h 0.61185 v -1.32705 h 1.48828 v 1.32705 h 1.3932 v 1.00873 h -1.3932 v 1.64538 q 0,0.24391 0.004,0.42581 0.004,0.1819 0.0661,0.32659 0.0579,0.1447 0.20257,0.23151 0.14883,0.0827 0.42995,0.0827 0.11576,0 0.30179,-0.0496 0.19017,-0.0496 0.26459,-0.0909 h 0.12402 z m -4.01836,-2.00504 h -3.40651 q 0.0331,0.5457 0.41341,0.83509 0.38447,0.28939 1.12861,0.28939 0.47129,0 0.91364,-0.1695 0.44235,-0.1695 0.69867,-0.3638 h 0.16536 v 1.19476 q -0.50436,0.20257 -0.95085,0.29352 -0.44648,0.0909 -0.98805,0.0909 -1.39733,0 -2.14147,-0.62839 -0.74414,-0.62838 -0.74414,-1.79007 0,-1.14928 0.7028,-1.81901 0.70693,-0.67386 1.93476,-0.67386 1.13275,0 1.70326,0.57464 0.57051,0.57051 0.57051,1.64538 z m -1.48002,-0.8723 q -0.0124,-0.46716 -0.23151,-0.7028 -0.2191,-0.23564 -0.68212,-0.23564 -0.42995,0 -0.70694,0.22324 -0.27698,0.22324 -0.31006,0.7152 z m -4.46484,2.91868 h -1.49655 v -2.3027 q 0,-0.28112 -0.0289,-0.5581 -0.0289,-0.28112 -0.0992,-0.41341 -0.0827,-0.15297 -0.24391,-0.22325 -0.1571,-0.0703 -0.44235,-0.0703 -0.20257,0 -0.41341,0.0661 -0.20671,0.0661 -0.45062,0.21084 v 3.29075 h -1.48828 v -4.64261 h 1.48828 v 0.51263 q 0.39687,-0.31005 0.76068,-0.47542 0.36793,-0.16536 0.81442,-0.16536 0.75241,0 1.17409,0.43821 0.42581,0.43822 0.42581,1.31052 z m -6.12262,0 h -1.54616 v -1.6247 h 1.54616 z m -2.59209,-1.47174 q 0,0.71934 -0.64492,1.16169 -0.64493,0.43821 -1.76527,0.43821 -0.62012,0 -1.12448,-0.11575 -0.50436,-0.11576 -0.81029,-0.25632 v -1.2237 h 0.13643 q 0.11162,0.0786 0.25631,0.17364 0.14883,0.091 0.41755,0.19843 0.23151,0.0951 0.52503,0.16537 0.29352,0.0661 0.62839,0.0661 0.43821,0 0.64905,-0.0951 0.21084,-0.0992 0.21084,-0.28939 0,-0.1695 -0.12402,-0.24391 -0.12402,-0.0785 -0.47129,-0.14883 -0.16536,-0.0372 -0.45062,-0.0786 -0.28112,-0.0455 -0.51263,-0.10748 -0.63252,-0.16537 -0.93844,-0.51263 -0.30593,-0.3514 -0.30593,-0.8723 0,-0.66973 0.63252,-1.11208 0.63666,-0.44648 1.73633,-0.44648 0.5209,0 0.99632,0.10748 0.47956,0.10336 0.74828,0.22325 v 1.17408 h -0.12816 q -0.33073,-0.22737 -0.75654,-0.36793 -0.42168,-0.1447 -0.85576,-0.1447 -0.35967,0 -0.60772,0.0992 -0.24391,0.0992 -0.24391,0.28112 0,0.16537 0.11162,0.25218 0.11162,0.0868 0.52503,0.17364 0.22738,0.0455 0.48783,0.0909 0.26458,0.0413 0.52916,0.10748 0.58705,0.15297 0.86817,0.4837 0.28112,0.32659 0.28112,0.81855 z m -4.88653,-1.75286 h -0.13229 q -0.0951,-0.0331 -0.30592,-0.0496 -0.21084,-0.0165 -0.3514,-0.0165 -0.31833,0 -0.56224,0.0413 -0.24391,0.0413 -0.52503,0.14056 v 3.10885 h -1.48829 v -4.64261 h 1.48829 v 0.68213 q 0.49196,-0.42168 0.85576,-0.5581 0.3638,-0.14056 0.66972,-0.14056 0.0785,0 0.17777,0.004 0.0992,0.004 0.17363,0.0124 z m -4.41523,1.17822 h -3.40651 q 0.0331,0.5457 0.41341,0.83509 0.38447,0.28939 1.12862,0.28939 0.47128,0 0.91363,-0.1695 0.44235,-0.1695 0.69867,-0.3638 h 0.16536 v 1.19476 q -0.50436,0.20257 -0.95084,0.29352 -0.44649,0.0909 -0.98806,0.0909 -1.39733,0 -2.14147,-0.62839 -0.74414,-0.62838 -0.74414,-1.79007 0,-1.14928 0.7028,-1.81901 0.70694,-0.67386 1.93477,-0.67386 1.13275,0 1.70325,0.57464 0.57051,0.57051 0.57051,1.64538 z m -1.48001,-0.8723 q -0.0124,-0.46716 -0.23151,-0.7028 -0.21911,-0.23564 -0.68213,-0.23564 -0.42995,0 -0.70693,0.22324 -0.27699,0.22324 -0.31006,0.7152 z m -3.92328,-1.72393 -1.79007,4.64261 h -1.68672 l -1.77767,-4.64261 h 1.5751 l 1.07487,3.19154 1.06247,-3.19154 z m -5.52731,1.41801 h -0.13229 q -0.0951,-0.0331 -0.30592,-0.0496 -0.21084,-0.0165 -0.3514,-0.0165 -0.31833,0 -0.562244,0.0413 -0.243913,0.0413 -0.525033,0.14056 v 3.10885 h -1.488281 v -4.64261 h 1.488281 v 0.68213 q 0.49196,-0.42168 0.855757,-0.5581 0.36381,-0.14056 0.66973,-0.14056 0.0786,0 0.17777,0.004 0.0992,0.004 0.17363,0.0124 z m -4.415232,1.17822 h -3.40651 q 0.03307,0.5457 0.413411,0.83509 0.384473,0.28939 1.128613,0.28939 0.471289,0 0.91364,-0.1695 0.44235,-0.1695 0.698665,-0.3638 h 0.165365 v 1.19476 q -0.504362,0.20257 -0.950847,0.29352 -0.446484,0.0909 -0.988053,0.0909 -1.397331,0 -2.141471,-0.62839 -0.744141,-0.62838 -0.744141,-1.79007 0,-1.14928 0.7028,-1.81901 0.706933,-0.67386 1.934765,-0.67386 1.132747,0 1.703255,0.57464 0.570508,0.57051 0.570508,1.64538 z m -1.480013,-0.8723 q -0.0124,-0.46716 -0.23151,-0.7028 -0.219108,-0.23564 -0.682129,-0.23564 -0.429948,0 -0.706934,0.22324 -0.276985,0.22324 -0.310058,0.7152 z m -4.084506,1.44694 q 0,0.71934 -0.644922,1.16169 -0.644922,0.43821 -1.765267,0.43821 -0.620117,0 -1.124479,-0.11575 -0.504362,-0.11576 -0.810286,-0.25632 v -1.2237 h 0.136425 q 0.111621,0.0786 0.256315,0.17364 0.148829,0.091 0.417546,0.19843 0.23151,0.0951 0.525033,0.16537 0.293522,0.0661 0.628385,0.0661 0.438216,0 0.649056,-0.0951 0.21084,-0.0992 0.21084,-0.28939 0,-0.1695 -0.124024,-0.24391 -0.124023,-0.0785 -0.471289,-0.14883 -0.165364,-0.0372 -0.450618,-0.0786 -0.28112,-0.0455 -0.51263,-0.10748 -0.63252,-0.16537 -0.938444,-0.51263 -0.305925,-0.3514 -0.305925,-0.8723 0,-0.66973 0.63252,-1.11208 0.636653,-0.44648 1.736328,-0.44648 0.520898,0 0.996321,0.10748 0.479558,0.10336 0.748275,0.22325 v 1.17408 h -0.128158 q -0.330729,-0.22737 -0.756543,-0.36793 -0.421679,-0.1447 -0.855761,-0.1447 -0.359668,0 -0.607715,0.0992 -0.243913,0.0992 -0.243913,0.28112 0,0.16537 0.111621,0.25218 0.111621,0.0868 0.525033,0.17364 0.227376,0.0455 0.487825,0.0909 0.264584,0.0413 0.529167,0.10748 0.587044,0.15297 0.868164,0.4837 0.28112,0.32659 0.28112,0.81855 z m -4.886524,-1.75286 h -0.132291 q -0.09508,-0.0331 -0.305925,-0.0496 -0.21084,-0.0165 -0.351399,-0.0165 -0.318327,0 -0.56224,0.0413 -0.243913,0.0413 -0.525033,0.14056 v 3.10885 h -1.488281 v -4.64261 h 1.488281 v 0.68213 q 0.49196,-0.42168 0.855762,-0.5581 0.363802,-0.14056 0.669727,-0.14056 0.07855,0 0.177767,0.004 0.09922,0.004 0.173632,0.0124 z m -4.440038,0.90537 q 0,1.14515 -0.669727,1.8066 -0.665592,0.65733 -1.872753,0.65733 -1.207162,0 -1.876888,-0.65733 -0.665593,-0.66145 -0.665593,-1.8066 0,-1.15342 0.669727,-1.81075 0.67386,-0.65732 1.872754,-0.65732 1.215429,0 1.876887,0.66146 0.665593,0.66146 0.665593,1.80661 z m -1.831413,1.12861 q 0.144694,-0.17777 0.214974,-0.42581 0.07441,-0.25219 0.07441,-0.69454 0,-0.40927 -0.07441,-0.68626 -0.07441,-0.27698 -0.206706,-0.44235 -0.132291,-0.1695 -0.318326,-0.23978 -0.186036,-0.0703 -0.401009,-0.0703 -0.214974,0 -0.384473,0.0579 -0.165365,0.0579 -0.318327,0.23151 -0.136426,0.16123 -0.219108,0.44235 -0.07855,0.28112 -0.07855,0.70693 0,0.38034 0.07028,0.66146 0.07028,0.27699 0.206706,0.44649 0.132291,0.16123 0.314192,0.23564 0.186035,0.0744 0.42168,0.0744 0.202571,0 0.384473,-0.0661 0.186035,-0.0703 0.314192,-0.23151 z m -3.786848,-3.77445 h -1.922364 v 4.96507 h -1.5875 v -4.96507 h -1.922363 v -1.19062 h 5.432227 z"
       style="opacity:1;fill:#000000;fill-opacity:1;stroke:none;stroke-width:0.5;stroke-linecap:round;stroke-linejoin:round;stroke-miterlimit:4;stroke-dasharray:none;stroke-dashoffset:0;stroke-opacity:1"
       id="rect4519" />
  </g>
</svg>
